<?xml version="1.0" encoding="utf-8" standalone="no"?>
<!DOCTYPE svg PUBLIC "-//W3C//DTD SVG 1.1//EN"
  "http://www.w3.org/Graphics/SVG/1.1/DTD/svg11.dtd">
<svg xmlns:xlink="http://www.w3.org/1999/xlink" width="568.492812pt" height="423.034375pt" viewBox="0 0 568.492812 423.034375" xmlns="http://www.w3.org/2000/svg" version="1.1">
 <metadata>
  <rdf:RDF xmlns:dc="http://purl.org/dc/elements/1.1/" xmlns:cc="http://creativecommons.org/ns#" xmlns:rdf="http://www.w3.org/1999/02/22-rdf-syntax-ns#">
   <cc:Work>
    <dc:type rdf:resource="http://purl.org/dc/dcmitype/StillImage"/>
    <dc:date>2026-01-13T17:55:47.975512</dc:date>
    <dc:format>image/svg+xml</dc:format>
    <dc:creator>
     <cc:Agent>
      <dc:title>Matplotlib v3.10.7, https://matplotlib.org/</dc:title>
     </cc:Agent>
    </dc:creator>
   </cc:Work>
  </rdf:RDF>
 </metadata>
 <defs>
  <style type="text/css">*{stroke-linejoin: round; stroke-linecap: butt}</style>
 </defs>
 <g id="figure_1">
  <g id="patch_1">
   <path d="M 0 423.034375 
L 568.492812 423.034375 
L 568.492812 0 
L 0 0 
z
" style="fill: #ffffff"/>
  </g>
  <g id="axes_1">
   <g id="patch_2">
    <path d="M 43.78125 385.478125 
L 553.34125 385.478125 
L 553.34125 22.318125 
L 43.78125 22.318125 
z
" style="fill: #ffffff"/>
   </g>
   <g id="matplotlib.axis_1">
    <g id="xtick_1">
     <g id="line2d_1">
      <path d="M 43.78125 385.478125 
L 43.78125 22.318125 
" clip-path="url(#p29c096db4e)" style="fill: none; stroke: #b0b0b0; stroke-opacity: 0.3; stroke-width: 0.8; stroke-linecap: square"/>
     </g>
     <g id="line2d_2">
      <defs>
       <path id="mc3da67a301" d="M 0 0 
L 0 3.5 
" style="stroke: #000000; stroke-width: 0.8"/>
      </defs>
      <g>
       <use xlink:href="#mc3da67a301" x="43.78125" y="385.478125" style="stroke: #000000; stroke-width: 0.8"/>
      </g>
     </g>
     <g id="text_1">
      <!-- 0.0 -->
      <g transform="translate(35.829688 400.076562) scale(0.1 -0.1)">
       <defs>
        <path id="DejaVuSans-30" d="M 2034 4250 
Q 1547 4250 1301 3770 
Q 1056 3291 1056 2328 
Q 1056 1369 1301 889 
Q 1547 409 2034 409 
Q 2525 409 2770 889 
Q 3016 1369 3016 2328 
Q 3016 3291 2770 3770 
Q 2525 4250 2034 4250 
z
M 2034 4750 
Q 2819 4750 3233 4129 
Q 3647 3509 3647 2328 
Q 3647 1150 3233 529 
Q 2819 -91 2034 -91 
Q 1250 -91 836 529 
Q 422 1150 422 2328 
Q 422 3509 836 4129 
Q 1250 4750 2034 4750 
z
" transform="scale(0.015625)"/>
        <path id="DejaVuSans-2e" d="M 684 794 
L 1344 794 
L 1344 0 
L 684 0 
L 684 794 
z
" transform="scale(0.015625)"/>
       </defs>
       <use xlink:href="#DejaVuSans-30"/>
       <use xlink:href="#DejaVuSans-2e" transform="translate(63.623047 0)"/>
       <use xlink:href="#DejaVuSans-30" transform="translate(95.410156 0)"/>
      </g>
     </g>
    </g>
    <g id="xtick_2">
     <g id="line2d_3">
      <path d="M 145.69325 385.478125 
L 145.69325 22.318125 
" clip-path="url(#p29c096db4e)" style="fill: none; stroke: #b0b0b0; stroke-opacity: 0.3; stroke-width: 0.8; stroke-linecap: square"/>
     </g>
     <g id="line2d_4">
      <g>
       <use xlink:href="#mc3da67a301" x="145.69325" y="385.478125" style="stroke: #000000; stroke-width: 0.8"/>
      </g>
     </g>
     <g id="text_2">
      <!-- 0.2 -->
      <g transform="translate(137.741688 400.076562) scale(0.1 -0.1)">
       <defs>
        <path id="DejaVuSans-32" d="M 1228 531 
L 3431 531 
L 3431 0 
L 469 0 
L 469 531 
Q 828 903 1448 1529 
Q 2069 2156 2228 2338 
Q 2531 2678 2651 2914 
Q 2772 3150 2772 3378 
Q 2772 3750 2511 3984 
Q 2250 4219 1831 4219 
Q 1534 4219 1204 4116 
Q 875 4013 500 3803 
L 500 4441 
Q 881 4594 1212 4672 
Q 1544 4750 1819 4750 
Q 2544 4750 2975 4387 
Q 3406 4025 3406 3419 
Q 3406 3131 3298 2873 
Q 3191 2616 2906 2266 
Q 2828 2175 2409 1742 
Q 1991 1309 1228 531 
z
" transform="scale(0.015625)"/>
       </defs>
       <use xlink:href="#DejaVuSans-30"/>
       <use xlink:href="#DejaVuSans-2e" transform="translate(63.623047 0)"/>
       <use xlink:href="#DejaVuSans-32" transform="translate(95.410156 0)"/>
      </g>
     </g>
    </g>
    <g id="xtick_3">
     <g id="line2d_5">
      <path d="M 247.60525 385.478125 
L 247.60525 22.318125 
" clip-path="url(#p29c096db4e)" style="fill: none; stroke: #b0b0b0; stroke-opacity: 0.3; stroke-width: 0.8; stroke-linecap: square"/>
     </g>
     <g id="line2d_6">
      <g>
       <use xlink:href="#mc3da67a301" x="247.60525" y="385.478125" style="stroke: #000000; stroke-width: 0.8"/>
      </g>
     </g>
     <g id="text_3">
      <!-- 0.4 -->
      <g transform="translate(239.653687 400.076562) scale(0.1 -0.1)">
       <defs>
        <path id="DejaVuSans-34" d="M 2419 4116 
L 825 1625 
L 2419 1625 
L 2419 4116 
z
M 2253 4666 
L 3047 4666 
L 3047 1625 
L 3713 1625 
L 3713 1100 
L 3047 1100 
L 3047 0 
L 2419 0 
L 2419 1100 
L 313 1100 
L 313 1709 
L 2253 4666 
z
" transform="scale(0.015625)"/>
       </defs>
       <use xlink:href="#DejaVuSans-30"/>
       <use xlink:href="#DejaVuSans-2e" transform="translate(63.623047 0)"/>
       <use xlink:href="#DejaVuSans-34" transform="translate(95.410156 0)"/>
      </g>
     </g>
    </g>
    <g id="xtick_4">
     <g id="line2d_7">
      <path d="M 349.51725 385.478125 
L 349.51725 22.318125 
" clip-path="url(#p29c096db4e)" style="fill: none; stroke: #b0b0b0; stroke-opacity: 0.3; stroke-width: 0.8; stroke-linecap: square"/>
     </g>
     <g id="line2d_8">
      <g>
       <use xlink:href="#mc3da67a301" x="349.51725" y="385.478125" style="stroke: #000000; stroke-width: 0.8"/>
      </g>
     </g>
     <g id="text_4">
      <!-- 0.6 -->
      <g transform="translate(341.565687 400.076562) scale(0.1 -0.1)">
       <defs>
        <path id="DejaVuSans-36" d="M 2113 2584 
Q 1688 2584 1439 2293 
Q 1191 2003 1191 1497 
Q 1191 994 1439 701 
Q 1688 409 2113 409 
Q 2538 409 2786 701 
Q 3034 994 3034 1497 
Q 3034 2003 2786 2293 
Q 2538 2584 2113 2584 
z
M 3366 4563 
L 3366 3988 
Q 3128 4100 2886 4159 
Q 2644 4219 2406 4219 
Q 1781 4219 1451 3797 
Q 1122 3375 1075 2522 
Q 1259 2794 1537 2939 
Q 1816 3084 2150 3084 
Q 2853 3084 3261 2657 
Q 3669 2231 3669 1497 
Q 3669 778 3244 343 
Q 2819 -91 2113 -91 
Q 1303 -91 875 529 
Q 447 1150 447 2328 
Q 447 3434 972 4092 
Q 1497 4750 2381 4750 
Q 2619 4750 2861 4703 
Q 3103 4656 3366 4563 
z
" transform="scale(0.015625)"/>
       </defs>
       <use xlink:href="#DejaVuSans-30"/>
       <use xlink:href="#DejaVuSans-2e" transform="translate(63.623047 0)"/>
       <use xlink:href="#DejaVuSans-36" transform="translate(95.410156 0)"/>
      </g>
     </g>
    </g>
    <g id="xtick_5">
     <g id="line2d_9">
      <path d="M 451.42925 385.478125 
L 451.42925 22.318125 
" clip-path="url(#p29c096db4e)" style="fill: none; stroke: #b0b0b0; stroke-opacity: 0.3; stroke-width: 0.8; stroke-linecap: square"/>
     </g>
     <g id="line2d_10">
      <g>
       <use xlink:href="#mc3da67a301" x="451.42925" y="385.478125" style="stroke: #000000; stroke-width: 0.8"/>
      </g>
     </g>
     <g id="text_5">
      <!-- 0.8 -->
      <g transform="translate(443.477687 400.076562) scale(0.1 -0.1)">
       <defs>
        <path id="DejaVuSans-38" d="M 2034 2216 
Q 1584 2216 1326 1975 
Q 1069 1734 1069 1313 
Q 1069 891 1326 650 
Q 1584 409 2034 409 
Q 2484 409 2743 651 
Q 3003 894 3003 1313 
Q 3003 1734 2745 1975 
Q 2488 2216 2034 2216 
z
M 1403 2484 
Q 997 2584 770 2862 
Q 544 3141 544 3541 
Q 544 4100 942 4425 
Q 1341 4750 2034 4750 
Q 2731 4750 3128 4425 
Q 3525 4100 3525 3541 
Q 3525 3141 3298 2862 
Q 3072 2584 2669 2484 
Q 3125 2378 3379 2068 
Q 3634 1759 3634 1313 
Q 3634 634 3220 271 
Q 2806 -91 2034 -91 
Q 1263 -91 848 271 
Q 434 634 434 1313 
Q 434 1759 690 2068 
Q 947 2378 1403 2484 
z
M 1172 3481 
Q 1172 3119 1398 2916 
Q 1625 2713 2034 2713 
Q 2441 2713 2670 2916 
Q 2900 3119 2900 3481 
Q 2900 3844 2670 4047 
Q 2441 4250 2034 4250 
Q 1625 4250 1398 4047 
Q 1172 3844 1172 3481 
z
" transform="scale(0.015625)"/>
       </defs>
       <use xlink:href="#DejaVuSans-30"/>
       <use xlink:href="#DejaVuSans-2e" transform="translate(63.623047 0)"/>
       <use xlink:href="#DejaVuSans-38" transform="translate(95.410156 0)"/>
      </g>
     </g>
    </g>
    <g id="xtick_6">
     <g id="line2d_11">
      <path d="M 553.34125 385.478125 
L 553.34125 22.318125 
" clip-path="url(#p29c096db4e)" style="fill: none; stroke: #b0b0b0; stroke-opacity: 0.3; stroke-width: 0.8; stroke-linecap: square"/>
     </g>
     <g id="line2d_12">
      <g>
       <use xlink:href="#mc3da67a301" x="553.34125" y="385.478125" style="stroke: #000000; stroke-width: 0.8"/>
      </g>
     </g>
     <g id="text_6">
      <!-- 1.0 -->
      <g transform="translate(545.389687 400.076562) scale(0.1 -0.1)">
       <defs>
        <path id="DejaVuSans-31" d="M 794 531 
L 1825 531 
L 1825 4091 
L 703 3866 
L 703 4441 
L 1819 4666 
L 2450 4666 
L 2450 531 
L 3481 531 
L 3481 0 
L 794 0 
L 794 531 
z
" transform="scale(0.015625)"/>
       </defs>
       <use xlink:href="#DejaVuSans-31"/>
       <use xlink:href="#DejaVuSans-2e" transform="translate(63.623047 0)"/>
       <use xlink:href="#DejaVuSans-30" transform="translate(95.410156 0)"/>
      </g>
     </g>
    </g>
    <g id="text_7">
     <!-- False Positive Rate -->
     <g transform="translate(252.094844 413.754687) scale(0.1 -0.1)">
      <defs>
       <path id="DejaVuSans-46" d="M 628 4666 
L 3309 4666 
L 3309 4134 
L 1259 4134 
L 1259 2759 
L 3109 2759 
L 3109 2228 
L 1259 2228 
L 1259 0 
L 628 0 
L 628 4666 
z
" transform="scale(0.015625)"/>
       <path id="DejaVuSans-61" d="M 2194 1759 
Q 1497 1759 1228 1600 
Q 959 1441 959 1056 
Q 959 750 1161 570 
Q 1363 391 1709 391 
Q 2188 391 2477 730 
Q 2766 1069 2766 1631 
L 2766 1759 
L 2194 1759 
z
M 3341 1997 
L 3341 0 
L 2766 0 
L 2766 531 
Q 2569 213 2275 61 
Q 1981 -91 1556 -91 
Q 1019 -91 701 211 
Q 384 513 384 1019 
Q 384 1609 779 1909 
Q 1175 2209 1959 2209 
L 2766 2209 
L 2766 2266 
Q 2766 2663 2505 2880 
Q 2244 3097 1772 3097 
Q 1472 3097 1187 3025 
Q 903 2953 641 2809 
L 641 3341 
Q 956 3463 1253 3523 
Q 1550 3584 1831 3584 
Q 2591 3584 2966 3190 
Q 3341 2797 3341 1997 
z
" transform="scale(0.015625)"/>
       <path id="DejaVuSans-6c" d="M 603 4863 
L 1178 4863 
L 1178 0 
L 603 0 
L 603 4863 
z
" transform="scale(0.015625)"/>
       <path id="DejaVuSans-73" d="M 2834 3397 
L 2834 2853 
Q 2591 2978 2328 3040 
Q 2066 3103 1784 3103 
Q 1356 3103 1142 2972 
Q 928 2841 928 2578 
Q 928 2378 1081 2264 
Q 1234 2150 1697 2047 
L 1894 2003 
Q 2506 1872 2764 1633 
Q 3022 1394 3022 966 
Q 3022 478 2636 193 
Q 2250 -91 1575 -91 
Q 1294 -91 989 -36 
Q 684 19 347 128 
L 347 722 
Q 666 556 975 473 
Q 1284 391 1588 391 
Q 1994 391 2212 530 
Q 2431 669 2431 922 
Q 2431 1156 2273 1281 
Q 2116 1406 1581 1522 
L 1381 1569 
Q 847 1681 609 1914 
Q 372 2147 372 2553 
Q 372 3047 722 3315 
Q 1072 3584 1716 3584 
Q 2034 3584 2315 3537 
Q 2597 3491 2834 3397 
z
" transform="scale(0.015625)"/>
       <path id="DejaVuSans-65" d="M 3597 1894 
L 3597 1613 
L 953 1613 
Q 991 1019 1311 708 
Q 1631 397 2203 397 
Q 2534 397 2845 478 
Q 3156 559 3463 722 
L 3463 178 
Q 3153 47 2828 -22 
Q 2503 -91 2169 -91 
Q 1331 -91 842 396 
Q 353 884 353 1716 
Q 353 2575 817 3079 
Q 1281 3584 2069 3584 
Q 2775 3584 3186 3129 
Q 3597 2675 3597 1894 
z
M 3022 2063 
Q 3016 2534 2758 2815 
Q 2500 3097 2075 3097 
Q 1594 3097 1305 2825 
Q 1016 2553 972 2059 
L 3022 2063 
z
" transform="scale(0.015625)"/>
       <path id="DejaVuSans-20" transform="scale(0.015625)"/>
       <path id="DejaVuSans-50" d="M 1259 4147 
L 1259 2394 
L 2053 2394 
Q 2494 2394 2734 2622 
Q 2975 2850 2975 3272 
Q 2975 3691 2734 3919 
Q 2494 4147 2053 4147 
L 1259 4147 
z
M 628 4666 
L 2053 4666 
Q 2838 4666 3239 4311 
Q 3641 3956 3641 3272 
Q 3641 2581 3239 2228 
Q 2838 1875 2053 1875 
L 1259 1875 
L 1259 0 
L 628 0 
L 628 4666 
z
" transform="scale(0.015625)"/>
       <path id="DejaVuSans-6f" d="M 1959 3097 
Q 1497 3097 1228 2736 
Q 959 2375 959 1747 
Q 959 1119 1226 758 
Q 1494 397 1959 397 
Q 2419 397 2687 759 
Q 2956 1122 2956 1747 
Q 2956 2369 2687 2733 
Q 2419 3097 1959 3097 
z
M 1959 3584 
Q 2709 3584 3137 3096 
Q 3566 2609 3566 1747 
Q 3566 888 3137 398 
Q 2709 -91 1959 -91 
Q 1206 -91 779 398 
Q 353 888 353 1747 
Q 353 2609 779 3096 
Q 1206 3584 1959 3584 
z
" transform="scale(0.015625)"/>
       <path id="DejaVuSans-69" d="M 603 3500 
L 1178 3500 
L 1178 0 
L 603 0 
L 603 3500 
z
M 603 4863 
L 1178 4863 
L 1178 4134 
L 603 4134 
L 603 4863 
z
" transform="scale(0.015625)"/>
       <path id="DejaVuSans-74" d="M 1172 4494 
L 1172 3500 
L 2356 3500 
L 2356 3053 
L 1172 3053 
L 1172 1153 
Q 1172 725 1289 603 
Q 1406 481 1766 481 
L 2356 481 
L 2356 0 
L 1766 0 
Q 1100 0 847 248 
Q 594 497 594 1153 
L 594 3053 
L 172 3053 
L 172 3500 
L 594 3500 
L 594 4494 
L 1172 4494 
z
" transform="scale(0.015625)"/>
       <path id="DejaVuSans-76" d="M 191 3500 
L 800 3500 
L 1894 563 
L 2988 3500 
L 3597 3500 
L 2284 0 
L 1503 0 
L 191 3500 
z
" transform="scale(0.015625)"/>
       <path id="DejaVuSans-52" d="M 2841 2188 
Q 3044 2119 3236 1894 
Q 3428 1669 3622 1275 
L 4263 0 
L 3584 0 
L 2988 1197 
Q 2756 1666 2539 1819 
Q 2322 1972 1947 1972 
L 1259 1972 
L 1259 0 
L 628 0 
L 628 4666 
L 2053 4666 
Q 2853 4666 3247 4331 
Q 3641 3997 3641 3322 
Q 3641 2881 3436 2590 
Q 3231 2300 2841 2188 
z
M 1259 4147 
L 1259 2491 
L 2053 2491 
Q 2509 2491 2742 2702 
Q 2975 2913 2975 3322 
Q 2975 3731 2742 3939 
Q 2509 4147 2053 4147 
L 1259 4147 
z
" transform="scale(0.015625)"/>
      </defs>
      <use xlink:href="#DejaVuSans-46"/>
      <use xlink:href="#DejaVuSans-61" transform="translate(48.394531 0)"/>
      <use xlink:href="#DejaVuSans-6c" transform="translate(109.673828 0)"/>
      <use xlink:href="#DejaVuSans-73" transform="translate(137.457031 0)"/>
      <use xlink:href="#DejaVuSans-65" transform="translate(189.556641 0)"/>
      <use xlink:href="#DejaVuSans-20" transform="translate(251.080078 0)"/>
      <use xlink:href="#DejaVuSans-50" transform="translate(282.867188 0)"/>
      <use xlink:href="#DejaVuSans-6f" transform="translate(339.544922 0)"/>
      <use xlink:href="#DejaVuSans-73" transform="translate(400.726562 0)"/>
      <use xlink:href="#DejaVuSans-69" transform="translate(452.826172 0)"/>
      <use xlink:href="#DejaVuSans-74" transform="translate(480.609375 0)"/>
      <use xlink:href="#DejaVuSans-69" transform="translate(519.818359 0)"/>
      <use xlink:href="#DejaVuSans-76" transform="translate(547.601562 0)"/>
      <use xlink:href="#DejaVuSans-65" transform="translate(606.78125 0)"/>
      <use xlink:href="#DejaVuSans-20" transform="translate(668.304688 0)"/>
      <use xlink:href="#DejaVuSans-52" transform="translate(700.091797 0)"/>
      <use xlink:href="#DejaVuSans-61" transform="translate(767.324219 0)"/>
      <use xlink:href="#DejaVuSans-74" transform="translate(828.603516 0)"/>
      <use xlink:href="#DejaVuSans-65" transform="translate(867.8125 0)"/>
     </g>
    </g>
   </g>
   <g id="matplotlib.axis_2">
    <g id="ytick_1">
     <g id="line2d_13">
      <path d="M 43.78125 385.478125 
L 553.34125 385.478125 
" clip-path="url(#p29c096db4e)" style="fill: none; stroke: #b0b0b0; stroke-opacity: 0.3; stroke-width: 0.8; stroke-linecap: square"/>
     </g>
     <g id="line2d_14">
      <defs>
       <path id="m6849efa452" d="M 0 0 
L -3.5 0 
" style="stroke: #000000; stroke-width: 0.8"/>
      </defs>
      <g>
       <use xlink:href="#m6849efa452" x="43.78125" y="385.478125" style="stroke: #000000; stroke-width: 0.8"/>
      </g>
     </g>
     <g id="text_8">
      <!-- 0.0 -->
      <g transform="translate(20.878125 389.277344) scale(0.1 -0.1)">
       <use xlink:href="#DejaVuSans-30"/>
       <use xlink:href="#DejaVuSans-2e" transform="translate(63.623047 0)"/>
       <use xlink:href="#DejaVuSans-30" transform="translate(95.410156 0)"/>
      </g>
     </g>
    </g>
    <g id="ytick_2">
     <g id="line2d_15">
      <path d="M 43.78125 316.304792 
L 553.34125 316.304792 
" clip-path="url(#p29c096db4e)" style="fill: none; stroke: #b0b0b0; stroke-opacity: 0.3; stroke-width: 0.8; stroke-linecap: square"/>
     </g>
     <g id="line2d_16">
      <g>
       <use xlink:href="#m6849efa452" x="43.78125" y="316.304792" style="stroke: #000000; stroke-width: 0.8"/>
      </g>
     </g>
     <g id="text_9">
      <!-- 0.2 -->
      <g transform="translate(20.878125 320.10401) scale(0.1 -0.1)">
       <use xlink:href="#DejaVuSans-30"/>
       <use xlink:href="#DejaVuSans-2e" transform="translate(63.623047 0)"/>
       <use xlink:href="#DejaVuSans-32" transform="translate(95.410156 0)"/>
      </g>
     </g>
    </g>
    <g id="ytick_3">
     <g id="line2d_17">
      <path d="M 43.78125 247.131458 
L 553.34125 247.131458 
" clip-path="url(#p29c096db4e)" style="fill: none; stroke: #b0b0b0; stroke-opacity: 0.3; stroke-width: 0.8; stroke-linecap: square"/>
     </g>
     <g id="line2d_18">
      <g>
       <use xlink:href="#m6849efa452" x="43.78125" y="247.131458" style="stroke: #000000; stroke-width: 0.8"/>
      </g>
     </g>
     <g id="text_10">
      <!-- 0.4 -->
      <g transform="translate(20.878125 250.930677) scale(0.1 -0.1)">
       <use xlink:href="#DejaVuSans-30"/>
       <use xlink:href="#DejaVuSans-2e" transform="translate(63.623047 0)"/>
       <use xlink:href="#DejaVuSans-34" transform="translate(95.410156 0)"/>
      </g>
     </g>
    </g>
    <g id="ytick_4">
     <g id="line2d_19">
      <path d="M 43.78125 177.958125 
L 553.34125 177.958125 
" clip-path="url(#p29c096db4e)" style="fill: none; stroke: #b0b0b0; stroke-opacity: 0.3; stroke-width: 0.8; stroke-linecap: square"/>
     </g>
     <g id="line2d_20">
      <g>
       <use xlink:href="#m6849efa452" x="43.78125" y="177.958125" style="stroke: #000000; stroke-width: 0.8"/>
      </g>
     </g>
     <g id="text_11">
      <!-- 0.6 -->
      <g transform="translate(20.878125 181.757344) scale(0.1 -0.1)">
       <use xlink:href="#DejaVuSans-30"/>
       <use xlink:href="#DejaVuSans-2e" transform="translate(63.623047 0)"/>
       <use xlink:href="#DejaVuSans-36" transform="translate(95.410156 0)"/>
      </g>
     </g>
    </g>
    <g id="ytick_5">
     <g id="line2d_21">
      <path d="M 43.78125 108.784792 
L 553.34125 108.784792 
" clip-path="url(#p29c096db4e)" style="fill: none; stroke: #b0b0b0; stroke-opacity: 0.3; stroke-width: 0.8; stroke-linecap: square"/>
     </g>
     <g id="line2d_22">
      <g>
       <use xlink:href="#m6849efa452" x="43.78125" y="108.784792" style="stroke: #000000; stroke-width: 0.8"/>
      </g>
     </g>
     <g id="text_12">
      <!-- 0.8 -->
      <g transform="translate(20.878125 112.58401) scale(0.1 -0.1)">
       <use xlink:href="#DejaVuSans-30"/>
       <use xlink:href="#DejaVuSans-2e" transform="translate(63.623047 0)"/>
       <use xlink:href="#DejaVuSans-38" transform="translate(95.410156 0)"/>
      </g>
     </g>
    </g>
    <g id="ytick_6">
     <g id="line2d_23">
      <path d="M 43.78125 39.611458 
L 553.34125 39.611458 
" clip-path="url(#p29c096db4e)" style="fill: none; stroke: #b0b0b0; stroke-opacity: 0.3; stroke-width: 0.8; stroke-linecap: square"/>
     </g>
     <g id="line2d_24">
      <g>
       <use xlink:href="#m6849efa452" x="43.78125" y="39.611458" style="stroke: #000000; stroke-width: 0.8"/>
      </g>
     </g>
     <g id="text_13">
      <!-- 1.0 -->
      <g transform="translate(20.878125 43.410677) scale(0.1 -0.1)">
       <use xlink:href="#DejaVuSans-31"/>
       <use xlink:href="#DejaVuSans-2e" transform="translate(63.623047 0)"/>
       <use xlink:href="#DejaVuSans-30" transform="translate(95.410156 0)"/>
      </g>
     </g>
    </g>
    <g id="text_14">
     <!-- True Positive Rate -->
     <g transform="translate(14.798438 248.427812) rotate(-90) scale(0.1 -0.1)">
      <defs>
       <path id="DejaVuSans-54" d="M -19 4666 
L 3928 4666 
L 3928 4134 
L 2272 4134 
L 2272 0 
L 1638 0 
L 1638 4134 
L -19 4134 
L -19 4666 
z
" transform="scale(0.015625)"/>
       <path id="DejaVuSans-72" d="M 2631 2963 
Q 2534 3019 2420 3045 
Q 2306 3072 2169 3072 
Q 1681 3072 1420 2755 
Q 1159 2438 1159 1844 
L 1159 0 
L 581 0 
L 581 3500 
L 1159 3500 
L 1159 2956 
Q 1341 3275 1631 3429 
Q 1922 3584 2338 3584 
Q 2397 3584 2469 3576 
Q 2541 3569 2628 3553 
L 2631 2963 
z
" transform="scale(0.015625)"/>
       <path id="DejaVuSans-75" d="M 544 1381 
L 544 3500 
L 1119 3500 
L 1119 1403 
Q 1119 906 1312 657 
Q 1506 409 1894 409 
Q 2359 409 2629 706 
Q 2900 1003 2900 1516 
L 2900 3500 
L 3475 3500 
L 3475 0 
L 2900 0 
L 2900 538 
Q 2691 219 2414 64 
Q 2138 -91 1772 -91 
Q 1169 -91 856 284 
Q 544 659 544 1381 
z
M 1991 3584 
L 1991 3584 
z
" transform="scale(0.015625)"/>
      </defs>
      <use xlink:href="#DejaVuSans-54"/>
      <use xlink:href="#DejaVuSans-72" transform="translate(46.333984 0)"/>
      <use xlink:href="#DejaVuSans-75" transform="translate(87.447266 0)"/>
      <use xlink:href="#DejaVuSans-65" transform="translate(150.826172 0)"/>
      <use xlink:href="#DejaVuSans-20" transform="translate(212.349609 0)"/>
      <use xlink:href="#DejaVuSans-50" transform="translate(244.136719 0)"/>
      <use xlink:href="#DejaVuSans-6f" transform="translate(300.814453 0)"/>
      <use xlink:href="#DejaVuSans-73" transform="translate(361.996094 0)"/>
      <use xlink:href="#DejaVuSans-69" transform="translate(414.095703 0)"/>
      <use xlink:href="#DejaVuSans-74" transform="translate(441.878906 0)"/>
      <use xlink:href="#DejaVuSans-69" transform="translate(481.087891 0)"/>
      <use xlink:href="#DejaVuSans-76" transform="translate(508.871094 0)"/>
      <use xlink:href="#DejaVuSans-65" transform="translate(568.050781 0)"/>
      <use xlink:href="#DejaVuSans-20" transform="translate(629.574219 0)"/>
      <use xlink:href="#DejaVuSans-52" transform="translate(661.361328 0)"/>
      <use xlink:href="#DejaVuSans-61" transform="translate(728.59375 0)"/>
      <use xlink:href="#DejaVuSans-74" transform="translate(789.873047 0)"/>
      <use xlink:href="#DejaVuSans-65" transform="translate(829.082031 0)"/>
     </g>
    </g>
   </g>
   <g id="line2d_25">
    <path d="M 43.78125 385.478125 
L 43.827853 385.379297 
L 43.936592 384.292183 
L 43.959893 384.193355 
L 44.060865 382.743871 
L 44.076399 382.743871 
L 44.161837 382.052072 
L 44.20844 381.986186 
L 44.309412 380.833187 
L 44.324946 380.833187 
L 44.425919 379.680189 
L 44.441453 379.680189 
L 44.550192 378.494247 
L 44.565726 378.395419 
L 44.674465 377.47302 
L 44.682233 377.47302 
L 44.752136 375.858822 
L 44.829807 375.792936 
L 44.938547 375.101137 
L 44.969615 375.002308 
L 45.070587 374.244623 
L 45.124957 374.145795 
L 45.233696 373.355167 
L 45.264764 373.289282 
L 45.357969 372.33394 
L 45.404572 372.300997 
L 45.497777 371.411541 
L 45.552147 371.312712 
L 45.660886 370.489142 
L 45.668653 370.489142 
L 45.769625 369.896171 
L 45.816228 369.830286 
L 45.924967 368.973772 
L 45.956035 368.907887 
L 46.057008 368.347859 
L 46.10361 368.24903 
L 46.212349 367.689002 
L 46.258952 367.590174 
L 46.367691 366.667775 
L 46.383225 366.634832 
L 46.484198 366.239518 
L 46.546334 366.14069 
L 46.655074 364.921805 
L 46.678375 364.822977 
L 46.779347 364.460606 
L 46.818183 364.460606 
L 46.926922 363.768807 
L 46.981291 363.735864 
L 47.090031 362.978179 
L 47.136633 362.879351 
L 47.229838 362.154608 
L 47.291975 362.088723 
L 47.392947 361.561638 
L 47.431783 361.528695 
L 47.532755 360.77101 
L 47.602659 360.738067 
L 47.695864 360.309811 
L 47.750233 360.210982 
L 47.858973 359.749783 
L 47.882274 359.683897 
L 47.991013 358.596784 
L 48.014315 358.530898 
L 48.10752 357.410842 
L 48.169656 357.312014 
L 48.278396 356.389615 
L 48.309464 356.290787 
L 48.410436 355.598987 
L 48.433737 355.598987 
L 48.526943 354.874245 
L 48.573545 354.775417 
L 48.66675 354.083618 
L 48.697819 354.083618 
L 48.798791 353.688304 
L 48.85316 353.622418 
L 48.9619 352.963562 
L 48.985201 352.864733 
L 49.09394 352.502362 
L 49.140543 352.403534 
L 49.249282 351.645849 
L 49.264816 351.579963 
L 49.373555 350.822278 
L 49.396857 350.72345 
L 49.505596 350.26225 
L 49.552199 350.196365 
L 49.645404 349.735165 
L 49.730842 349.636337 
L 49.839581 349.010423 
L 49.878416 348.944538 
L 49.987156 348.318624 
L 50.041525 348.219796 
L 50.13473 347.527996 
L 50.165799 347.527996 
L 50.259004 346.935026 
L 50.352209 346.86914 
L 50.453181 346.407941 
L 50.484249 346.374998 
L 50.585222 345.749084 
L 50.61629 345.749084 
L 50.701728 345.156113 
L 50.732796 345.156113 
L 50.841536 344.5302 
L 50.880371 344.497257 
L 50.981343 343.904286 
L 51.027946 343.805458 
L 51.136685 343.311315 
L 51.144452 343.311315 
L 51.253191 342.685402 
L 51.28426 342.586573 
L 51.392999 342.158317 
L 51.439602 342.125374 
L 51.548341 341.466518 
L 51.579409 341.367689 
L 51.664847 340.939432 
L 51.703683 340.90649 
L 51.804655 340.247633 
L 51.851257 340.181748 
L 51.959997 339.819377 
L 51.975531 339.753491 
L 52.08427 339.39112 
L 52.154174 339.292291 
L 52.255146 338.831092 
L 52.317283 338.798149 
L 52.410488 338.205178 
L 52.449323 338.205178 
L 52.558063 337.579265 
L 52.643501 337.480436 
L 52.75224 336.887466 
L 52.837678 336.788637 
L 52.93865 336.492152 
L 52.985253 336.393323 
L 53.086225 335.965067 
L 53.12506 335.866238 
L 53.218265 335.437981 
L 53.249334 335.437981 
L 53.358073 334.976782 
L 53.459045 334.877954 
L 53.567785 334.515583 
L 53.614387 334.449697 
L 53.707592 333.856726 
L 53.738661 333.757898 
L 53.831866 333.329641 
L 53.878468 333.230813 
L 53.987207 332.539013 
L 54.03381 332.440185 
L 54.142549 332.011928 
L 54.158083 331.9131 
L 54.266823 331.188358 
L 54.360028 331.089529 
L 54.445466 330.760101 
L 54.538671 330.661273 
L 54.624109 330.331844 
L 54.678479 330.233016 
L 54.787218 329.376503 
L 54.802752 329.34356 
L 54.911491 328.948246 
L 54.950327 328.88236 
L 55.059066 328.223504 
L 55.097901 328.157618 
L 55.198874 327.729362 
L 55.26101 327.663476 
L 55.354215 327.301105 
L 55.393051 327.235219 
L 55.50179 326.510477 
L 55.548393 326.444592 
L 55.626064 325.884564 
L 55.6882 325.785735 
L 55.789173 325.093936 
L 55.859076 324.995108 
L 55.967816 324.500965 
L 56.014418 324.402137 
L 56.123157 324.039766 
L 56.138692 323.97388 
L 56.239664 323.545623 
L 56.301801 323.446795 
L 56.317335 323.282081 
L 56.472677 323.183252 
L 56.581416 322.524396 
L 56.635785 322.45851 
L 56.736758 321.700826 
L 56.752292 321.700826 
L 56.861031 320.613713 
L 56.876565 320.58077 
L 56.985305 320.251341 
L 57.047441 320.185456 
L 57.156181 319.790142 
L 57.195016 319.691314 
L 57.295988 319.197171 
L 57.350358 319.164228 
L 57.428029 318.538315 
L 57.474631 318.538315 
L 57.560069 318.143001 
L 57.598905 318.110058 
L 57.699877 317.55003 
L 57.754247 317.517087 
L 57.855219 316.95706 
L 57.901821 316.924117 
L 58.010561 316.199375 
L 58.026095 316.133489 
L 58.1193 315.837004 
L 58.173669 315.771118 
L 58.282409 315.276976 
L 58.290176 315.276976 
L 58.367847 314.914605 
L 58.468819 314.848719 
L 58.562024 314.354577 
L 58.616394 314.255748 
L 58.725133 313.92632 
L 58.826105 313.827492 
L 58.91931 313.498063 
L 59.028049 313.432178 
L 59.121255 313.069807 
L 59.136789 313.069807 
L 59.563979 311.653265 
L 59.64165 311.58738 
L 59.750389 311.12618 
L 59.758156 311.12618 
L 59.866895 310.763809 
L 59.890197 310.697924 
L 59.998936 310.30261 
L 60.022237 310.203781 
L 60.123209 309.643753 
L 60.146511 309.610811 
L 60.185346 309.446097 
L 60.294085 309.380211 
L 60.402825 308.886069 
L 60.472728 308.78724 
L 60.573701 308.260155 
L 60.604769 308.161327 
L 60.713508 307.667184 
L 60.760111 307.601299 
L 60.853316 307.008328 
L 60.899918 306.975385 
L 61.008658 306.580071 
L 61.039726 306.481243 
L 61.10963 306.184757 
L 61.195068 306.118872 
L 61.29604 305.39413 
L 61.389245 305.295301 
L 61.48245 305.031759 
L 61.544587 304.998816 
L 61.645559 304.471731 
L 61.66886 304.471731 
L 61.754298 303.911703 
L 61.831969 303.812874 
L 61.940709 303.417561 
L 61.979544 303.318732 
L 62.088283 302.758704 
L 62.127119 302.758704 
L 62.220324 302.099848 
L 62.305762 302.033962 
L 62.414501 301.506877 
L 62.608678 301.045677 
L 62.663048 301.012735 
L 62.756253 300.518592 
L 62.833924 300.48565 
L 62.934896 300.02445 
L 63.012567 299.925622 
L 63.121306 299.464422 
L 63.175676 299.365594 
L 63.276648 298.97028 
L 63.323251 298.904394 
L 63.43199 298.476138 
L 63.501894 298.377309 
L 63.587332 297.91611 
L 63.633934 297.850224 
L 63.742674 297.421967 
L 63.812577 297.323139 
L 63.890248 297.158425 
L 63.960152 297.059596 
L 64.061124 296.763111 
L 64.162097 296.664282 
L 64.270836 296.268969 
L 64.325205 296.17014 
L 64.426178 295.675998 
L 64.465013 295.577169 
L 64.565985 295.214798 
L 64.674725 295.11597 
L 64.775697 294.621828 
L 64.853368 294.555942 
L 64.95434 293.995914 
L 64.993175 293.897086 
L 65.070846 293.633543 
L 65.14075 293.567657 
L 65.249489 293.205286 
L 65.358229 293.106458 
L 65.466968 292.744087 
L 65.51357 292.645258 
L 65.606775 292.31583 
L 65.668912 292.217002 
L 65.738816 291.821688 
L 65.816487 291.755802 
L 65.925226 291.459317 
L 65.987363 291.360488 
L 66.088335 291.129889 
L 66.158239 291.03106 
L 66.251444 290.536918 
L 66.352416 290.438089 
L 66.430087 290.141604 
L 66.484457 290.108661 
L 66.546593 289.779233 
L 66.600963 289.779233 
L 66.694168 289.449805 
L 66.756305 289.350976 
L 66.857277 288.92272 
L 66.919414 288.889777 
L 67.028153 288.296806 
L 67.113591 288.197978 
L 67.22233 287.835607 
L 67.237865 287.736778 
L 67.338837 287.506178 
L 67.393206 287.40735 
L 67.494179 287.012036 
L 67.548548 286.946151 
L 67.641753 286.649665 
L 67.719424 286.550837 
L 67.828163 286.221408 
L 67.866999 286.188466 
L 67.952437 285.859037 
L 68.037875 285.760209 
L 68.084477 285.430781 
L 68.162148 285.430781 
L 68.263121 284.771924 
L 68.294189 284.706039 
L 68.402928 284.541325 
L 68.496133 284.475439 
L 68.597105 284.01424 
L 68.705845 283.948354 
L 68.814584 283.487154 
L 68.907789 283.388326 
L 69.016528 283.190669 
L 69.117501 283.091841 
L 69.148569 283.025955 
L 69.179637 283.025955 
L 69.265075 282.927126 
L 69.334979 282.762412 
L 69.420417 282.72947 
L 69.521389 282.367099 
L 69.552458 282.26827 
L 69.661197 282.004728 
L 69.715567 281.905899 
L 69.824306 281.411757 
L 69.909744 281.345871 
L 70.018483 280.654072 
L 70.057319 280.588186 
L 70.158291 280.15993 
L 70.228195 280.061101 
L 70.313633 279.764616 
L 70.375769 279.665787 
L 70.476742 279.270473 
L 70.601015 279.171645 
L 70.69422 278.941045 
L 70.771891 278.842217 
L 70.865096 278.512789 
L 70.896164 278.479846 
L 71.004904 278.084532 
L 71.028205 277.985703 
L 71.136944 277.755104 
L 71.17578 277.656275 
L 71.261218 277.293904 
L 71.315587 277.195076 
L 71.424327 276.733876 
L 71.533066 276.635048 
L 71.641805 276.338563 
L 71.680641 276.239734 
L 71.773846 275.976191 
L 71.84375 275.910306 
L 71.952489 275.712649 
L 71.968023 275.679706 
L 72.076762 275.317335 
L 72.131132 275.218507 
L 72.239871 275.02085 
L 72.255405 274.922021 
L 72.364145 274.493765 
L 72.395213 274.394936 
L 72.503952 273.900794 
L 72.558322 273.801965 
L 72.659294 273.472537 
L 72.736965 273.406652 
L 72.814636 273.011338 
L 72.900074 272.912509 
L 73.001046 272.45131 
L 73.039882 272.385424 
L 73.133087 271.99011 
L 73.226292 271.891282 
L 73.327264 271.594796 
L 73.358332 271.495968 
L 73.412702 271.232425 
L 73.521441 271.133597 
L 73.622413 270.902997 
L 73.661249 270.804169 
L 73.769988 270.540626 
L 73.863193 270.441798 
L 73.956398 270.178255 
L 74.072905 270.079427 
L 74.181644 269.848827 
L 74.189411 269.848827 
L 74.290383 269.585284 
L 74.35252 269.519399 
L 74.445725 269.058199 
L 74.523396 268.992314 
L 74.624368 268.597 
L 74.748642 268.531114 
L 74.857381 267.938143 
L 74.935052 267.839315 
L 75.012723 267.674601 
L 75.051558 267.674601 
L 75.144763 267.378115 
L 75.214667 267.279287 
L 75.323406 266.982802 
L 75.39331 266.916916 
L 75.502049 266.653373 
L 75.595254 266.620431 
L 75.68846 266.192174 
L 75.789432 266.093345 
L 75.898171 265.533318 
L 75.944774 265.467432 
L 76.037979 265.203889 
L 76.076814 265.170947 
L 76.123417 264.874461 
L 76.208855 264.808576 
L 76.286526 264.643861 
L 76.356429 264.577976 
L 76.457402 264.380319 
L 76.581675 264.28149 
L 76.682647 263.919119 
L 76.760318 263.853234 
L 76.853523 263.424977 
L 76.97003 263.326149 
L 77.071002 263.062606 
L 77.187508 262.963778 
L 77.265179 262.568464 
L 77.358384 262.469635 
L 77.428288 262.17315 
L 77.544794 262.074321 
L 77.637999 261.71195 
L 77.754506 261.646065 
L 77.839944 261.448408 
L 77.894313 261.349579 
L 77.987518 261.086037 
L 78.057422 260.987208 
L 78.158394 260.789551 
L 78.267134 260.723666 
L 78.375873 260.097752 
L 78.399174 260.097752 
L 78.492379 259.636553 
L 78.554516 259.537724 
L 78.647721 259.405953 
L 78.709858 259.307125 
L 78.818597 259.010639 
L 78.896268 258.911811 
L 78.958405 258.714154 
L 79.067144 258.615325 
L 79.137048 258.483554 
L 79.261321 258.384726 
L 79.338992 258.252954 
L 79.439964 258.187069 
L 79.53317 257.857641 
L 79.657443 257.758812 
L 79.704046 257.627041 
L 79.85162 257.528212 
L 79.96036 257.099956 
L 79.983661 257.067013 
L 79.983661 257.001127 
L 80.084633 256.836413 
L 80.14677 256.737585 
L 80.232208 256.309328 
L 80.356481 256.2105 
L 80.449686 255.815186 
L 80.558426 255.716357 
L 80.667165 255.452815 
L 80.752603 255.353986 
L 80.845808 255.123386 
L 80.876876 255.090444 
L 80.970081 254.826901 
L 81.055519 254.728073 
L 81.125423 254.563359 
L 81.172026 254.563359 
L 81.280765 254.168045 
L 81.37397 254.102159 
L 81.482709 253.772731 
L 81.521545 253.673902 
L 81.622517 253.278589 
L 81.731256 253.212703 
L 81.832228 252.718561 
L 81.956502 252.652675 
L 82.065241 252.35619 
L 82.119611 252.257361 
L 82.220583 251.993819 
L 82.259418 251.960876 
L 82.368158 251.598505 
L 82.430294 251.499676 
L 82.507965 251.269077 
L 82.647773 251.170248 
L 82.740978 250.84082 
L 82.795348 250.774934 
L 82.888553 250.544334 
L 82.95069 250.478449 
L 83.059429 250.083135 
L 83.152634 249.984307 
L 83.214771 249.654878 
L 83.339044 249.55605 
L 83.447783 249.424279 
L 83.478852 249.32545 
L 83.579824 248.930136 
L 83.665262 248.897193 
L 83.766234 248.304223 
L 83.812837 248.205394 
L 83.913809 247.974795 
L 83.983713 247.908909 
L 84.061384 247.81008 
L 84.139054 247.744195 
L 84.224492 247.480652 
L 84.278862 247.447709 
L 84.3643 247.282995 
L 84.434204 247.250052 
L 84.527409 247.019453 
L 84.558477 246.920624 
L 84.65945 246.657082 
L 84.799257 246.558253 
L 84.907996 246.031168 
L 85.040037 245.93234 
L 85.148776 245.668797 
L 85.203146 245.569969 
L 85.280817 245.339369 
L 85.335186 245.273483 
L 85.412857 244.845227 
L 85.537131 244.779341 
L 85.607035 244.482856 
L 85.754609 244.384027 
L 85.863349 243.988713 
L 85.948787 243.889885 
L 86.01869 243.659285 
L 86.166265 243.560457 
L 86.275004 243.099257 
L 86.306073 243.000429 
L 86.375977 242.868657 
L 86.453648 242.802772 
L 86.453648 242.769829 
L 86.562387 242.506286 
L 86.608989 242.407458 
L 86.702194 242.045087 
L 86.779865 241.946258 
L 86.888605 241.781544 
L 86.92744 241.682716 
L 87.036179 241.254459 
L 87.098316 241.155631 
L 87.207055 240.859145 
L 87.261425 240.760317 
L 87.370164 240.496774 
L 87.463369 240.397946 
L 87.572109 239.969689 
L 87.72745 239.903804 
L 87.83619 239.442604 
L 87.867258 239.343776 
L 87.975997 239.080233 
L 87.991532 238.981405 
L 88.045901 238.717862 
L 88.255613 238.619034 
L 88.255613 238.586091 
L 88.387653 238.586091 
L 88.488625 238.091949 
L 88.519694 238.026063 
L 88.605132 237.795463 
L 88.667268 237.696635 
L 88.760474 237.400149 
L 88.82261 237.301321 
L 88.93135 237.16955 
L 89.024555 237.070721 
L 89.133294 236.93895 
L 89.187664 236.840121 
L 89.273102 236.642464 
L 89.343005 236.543636 
L 89.43621 236.411865 
L 89.529416 236.313036 
L 89.638155 235.720066 
L 89.67699 235.621237 
L 89.78573 235.225923 
L 89.855633 235.160038 
L 89.964373 234.698838 
L 90.026509 234.60001 
L 90.135249 234.303524 
L 90.197385 234.270581 
L 90.259522 233.941153 
L 90.376028 233.875268 
L 90.484768 233.512897 
L 90.53137 233.414068 
L 90.616808 233.051697 
L 90.818753 232.985811 
L 90.919725 232.85404 
L 91.090601 232.755212 
L 91.19934 232.458726 
L 91.308079 232.359898 
L 91.416819 232.129298 
L 91.486722 232.063412 
L 91.587695 231.832813 
L 91.735269 231.733984 
L 91.844009 231.305728 
L 91.960515 231.206899 
L 92.045953 231.009242 
L 92.154692 230.910414 
L 92.232363 230.844528 
L 92.325568 230.7457 
L 92.395472 230.416271 
L 92.53528 230.317443 
L 92.644019 230.0539 
L 92.768292 229.955072 
L 92.877032 229.559758 
L 93.001305 229.46093 
L 93.078976 229.131502 
L 93.110044 229.131502 
L 93.125579 229.098559 
L 93.211017 228.867959 
L 93.33529 228.76913 
L 93.420728 228.637359 
L 93.513933 228.571474 
L 93.622672 228.143217 
L 93.754713 228.044388 
L 93.855685 227.71496 
L 93.917822 227.649075 
L 94.00326 227.319646 
L 94.049862 227.220818 
L 94.127533 226.957275 
L 94.205204 226.89139 
L 94.313944 226.529019 
L 94.391614 226.463133 
L 94.477052 226.265476 
L 94.570258 226.199591 
L 94.655696 226.001934 
L 94.717832 225.968991 
L 94.826572 225.738391 
L 94.958612 225.639563 
L 95.036283 225.441906 
L 95.23046 225.343077 
L 95.323665 225.14542 
L 95.409103 225.046592 
L 95.479007 224.848935 
L 95.642116 224.783049 
L 95.743088 224.486564 
L 95.89843 224.420678 
L 95.968334 224.058307 
L 96.061539 223.959479 
L 96.115909 223.827707 
L 96.286785 223.728879 
L 96.387757 223.432394 
L 96.504263 223.333565 
L 96.613002 223.070023 
L 96.745043 222.971194 
L 96.799413 222.872366 
L 97.001357 222.773537 
L 97.102329 222.509995 
L 97.156699 222.411166 
L 97.257671 221.98291 
L 97.319808 221.917024 
L 97.42078 221.587596 
L 97.537286 221.488767 
L 97.568355 221.389939 
L 97.770299 221.29111 
L 97.816902 221.192282 
L 97.933408 221.126396 
L 98.011079 220.796968 
L 98.189722 220.69814 
L 98.259626 220.368711 
L 98.368365 220.269883 
L 98.477104 219.874569 
L 98.578076 219.775741 
L 98.671282 219.578084 
L 98.787788 219.479255 
L 98.880993 219.281598 
L 98.989732 219.18277 
L 99.082937 218.919227 
L 99.199444 218.820399 
L 99.308183 218.556856 
L 99.31595 218.556856 
L 99.409155 218.1286 
L 99.55673 218.029771 
L 99.649935 217.6674 
L 99.696538 217.634457 
L 99.79751 217.305029 
L 99.937317 217.206201 
L 100.030522 217.074429 
L 100.077125 217.041487 
L 100.17033 216.61323 
L 100.294604 216.514401 
L 100.395576 216.184973 
L 100.46548 216.086145 
L 100.558685 215.822602 
L 100.65189 215.756717 
L 100.737328 215.493174 
L 100.8383 215.427288 
L 100.939272 214.834318 
L 101.086847 214.735489 
L 101.086847 214.669604 
L 101.304325 214.570775 
L 101.413065 214.406061 
L 101.498503 214.307233 
L 101.599475 214.241347 
L 101.684913 214.142518 
L 101.715981 214.04369 
L 101.770351 214.04369 
L 101.917926 213.944862 
L 102.018898 213.714262 
L 102.0655 213.615433 
L 102.166472 213.154234 
L 102.228609 213.088348 
L 102.314047 212.725977 
L 102.422786 212.627149 
L 102.49269 212.429492 
L 102.609197 212.396549 
L 102.694635 212.165949 
L 102.749004 212.100064 
L 102.842209 211.803578 
L 103.036387 211.70475 
L 103.082989 211.47415 
L 103.21503 211.441207 
L 103.269399 211.210607 
L 103.362604 211.111779 
L 103.471344 210.980008 
L 103.688822 210.914122 
L 103.797562 210.749408 
L 103.859698 210.65058 
L 103.968438 210.354094 
L 104.077177 210.255266 
L 104.185916 210.057609 
L 104.279121 209.95878 
L 104.38786 209.596409 
L 104.418929 209.563466 
L 104.527668 209.332867 
L 110.197644 200.668905 
L 110.306384 200.603019 
L 110.306384 200.570077 
L 110.469493 200.273591 
L 110.702505 200.174763 
L 110.803478 199.878277 
L 111.005422 199.779449 
L 111.114161 199.384135 
L 111.207366 199.318249 
L 111.253969 199.219421 
L 111.339407 199.153535 
L 111.409311 198.889993 
L 111.494749 198.791164 
L 111.525817 198.692336 
L 111.673392 198.593507 
L 111.735528 198.362908 
L 111.867569 198.264079 
L 111.960774 198.132308 
L 112.085048 198.033479 
L 112.170486 197.934651 
L 112.255924 197.835823 
L 112.333594 197.736994 
L 112.465635 197.638166 
L 112.566607 197.506394 
L 112.644278 197.407566 
L 112.698648 197.308737 
L 112.822921 197.242852 
L 112.908359 197.045195 
L 113.055934 196.979309 
L 113.164673 196.583995 
L 113.219043 196.485167 
L 113.327782 196.221624 
L 113.397686 196.122796 
L 113.498658 195.661596 
L 113.506425 195.661596 
L 113.584096 195.562768 
L 113.661767 195.299225 
L 113.855944 195.23334 
L 113.918081 195.035683 
L 113.933615 195.035683 
L 114.042354 194.936854 
L 114.08119 194.805083 
L 114.228765 194.706255 
L 114.306436 194.541541 
L 114.384106 194.475655 
L 114.485079 194.343884 
L 114.56275 194.245055 
L 114.671489 193.915627 
L 114.733626 193.816799 
L 114.842365 193.652084 
L 114.920036 193.553256 
L 115.021008 193.421485 
L 115.083145 193.322656 
L 115.083145 193.289713 
L 115.114213 193.289713 
L 115.292856 193.190885 
L 115.36276 192.993228 
L 115.463732 192.8944 
L 115.564704 192.795571 
L 115.681211 192.696743 
L 115.78995 192.400257 
L 115.875388 192.334372 
L 115.953059 192.169658 
L 116.007428 192.103772 
L 116.108401 191.741401 
L 116.16277 191.642572 
L 116.178304 191.576687 
L 116.318112 191.510801 
L 116.411317 191.247259 
L 116.488988 191.14843 
L 116.566659 191.049602 
L 116.597727 191.049602 
L 116.659864 190.950773 
L 116.768603 190.555459 
L 116.838507 190.456631 
L 116.947246 190.127203 
L 116.993849 190.061317 
L 117.102588 189.698946 
L 117.164725 189.63306 
L 117.250163 189.501289 
L 117.265697 189.501289 
L 117.327834 189.402461 
L 117.436573 189.237747 
L 117.529778 189.138918 
L 117.615216 188.974204 
L 117.855996 188.875376 
L 117.964735 188.480062 
L 118.065708 188.381233 
L 118.174447 187.985919 
L 118.275419 187.920034 
L 118.360857 187.623548 
L 118.555034 187.52472 
L 118.656006 187.29412 
L 118.72591 187.195292 
L 118.83465 186.898806 
L 118.873485 186.799978 
L 118.96669 186.668207 
L 119.199703 186.569378 
L 119.277374 186.305836 
L 119.471551 186.207007 
L 119.572523 185.877579 
L 119.657961 185.77875 
L 119.712331 185.712865 
L 119.82107 185.614036 
L 119.898741 185.482265 
L 120.023014 185.383437 
L 120.092918 185.218723 
L 120.186123 185.152837 
L 120.294863 184.922237 
L 120.473506 184.823409 
L 120.582245 184.559866 
L 120.628848 184.49398 
L 120.667683 184.329266 
L 120.823025 184.230438 
L 120.923997 183.933953 
L 121.001668 183.835124 
L 121.110407 183.604524 
L 121.188078 183.505696 
L 121.281283 183.242153 
L 121.390023 183.176268 
L 121.490995 182.715068 
L 121.545364 182.61624 
L 121.591967 182.517411 
L 121.731775 182.418583 
L 121.778377 182.352697 
L 121.925952 182.253869 
L 122.034691 182.056212 
L 122.1978 181.957383 
L 122.291005 181.693841 
L 122.322073 181.693841 
L 122.423046 181.463241 
L 122.578387 181.364413 
L 122.663825 181.265584 
L 122.889071 181.166756 
L 122.966742 180.903213 
L 123.191988 180.804385 
L 123.191988 180.771442 
L 123.355097 180.672613 
L 123.401699 180.540842 
L 123.572575 180.474956 
L 123.681314 180.211414 
L 123.774519 180.112585 
L 123.883259 179.783157 
L 123.991998 179.684329 
L 123.999765 179.618443 
L 124.248312 179.519615 
L 124.341517 179.387843 
L 124.465791 179.289015 
L 124.535694 179.190186 
L 124.753173 179.091358 
L 124.838611 178.893701 
L 124.931816 178.794873 
L 125.040555 178.663101 
L 125.118226 178.597216 
L 125.203664 178.234845 
L 125.359006 178.136016 
L 125.491047 177.905416 
L 125.61532 177.806588 
L 125.716292 177.575988 
L 125.825031 177.47716 
L 125.887168 177.312446 
L 126.019209 177.213617 
L 126.127948 176.917132 
L 126.159016 176.884189 
L 126.267756 176.686532 
L 126.384262 176.587704 
L 126.485234 176.42299 
L 126.562905 176.357104 
L 126.671644 176.159447 
L 126.733781 176.060619 
L 126.826986 175.895904 
L 126.920191 175.830019 
L 126.982328 175.599419 
L 127.075533 175.500591 
L 127.153204 175.368819 
L 127.246409 175.269991 
L 127.347381 175.105277 
L 127.650298 175.006448 
L 127.75127 174.775849 
L 127.852242 174.67702 
L 127.93768 174.545249 
L 128.077488 174.44642 
L 128.162926 174.182878 
L 128.36487 174.084049 
L 128.442541 173.85345 
L 128.566815 173.787564 
L 128.636718 173.589907 
L 128.916334 173.491079 
L 129.017306 173.293422 
L 129.118278 173.194593 
L 129.172648 173.128708 
L 129.366825 173.029879 
L 129.475564 172.667508 
L 129.747412 172.56868 
L 129.801782 172.469851 
L 129.94159 172.371023 
L 130.011493 172.206309 
L 130.174602 172.140423 
L 130.283342 171.975709 
L 130.617327 171.87688 
L 130.694997 171.679224 
L 130.92801 171.580395 
L 131.028982 171.316852 
L 131.215393 171.250967 
L 131.300831 171.086253 
L 131.425104 170.987424 
L 131.526076 170.690939 
L 131.867828 170.59211 
L 131.945499 170.361511 
L 132.007636 170.262682 
L 132.116375 169.99914 
L 132.194046 169.99914 
L 132.240649 169.76854 
L 132.380456 169.669712 
L 132.45036 169.53794 
L 132.652304 169.439112 
L 132.722208 169.208512 
L 132.799879 169.109684 
L 132.885317 168.846141 
L 132.986289 168.747313 
L 133.087261 168.48377 
L 133.188234 168.384942 
L 133.289206 168.220227 
L 133.328041 168.121399 
L 133.436781 167.791971 
L 133.592122 167.693142 
L 133.700862 167.462543 
L 133.809601 167.363714 
L 133.840669 167.264886 
L 133.926107 167.264886 
L 133.926107 167.133114 
L 134.151353 167.067229 
L 134.260092 166.803686 
L 134.423201 166.704858 
L 134.53194 166.474258 
L 134.625145 166.37543 
L 134.695049 166.276601 
L 134.82709 166.177773 
L 134.935829 166.013058 
L 135.083404 165.91423 
L 135.192143 165.716573 
L 135.38632 165.617745 
L 135.479525 165.354202 
L 135.557196 165.255374 
L 135.658169 165.123602 
L 135.766908 165.024774 
L 135.86788 164.794174 
L 135.961085 164.695346 
L 135.976619 164.62946 
L 136.2407 164.530632 
L 136.34944 164.201203 
L 136.427111 164.102375 
L 136.528083 163.904718 
L 136.862068 163.838832 
L 136.970807 163.707061 
L 137.14945 163.608233 
L 137.20382 163.542347 
L 137.328093 163.443519 
L 137.413531 163.278804 
L 137.429065 163.278804 
L 137.57664 163.179976 
L 137.669845 162.850548 
L 137.786351 162.751719 
L 137.856255 162.488177 
L 137.957227 162.389348 
L 138.027131 162.323463 
L 138.128103 162.224634 
L 138.229076 162.05992 
L 138.306747 161.961092 
L 138.415486 161.763435 
L 138.500924 161.664606 
L 138.539759 161.466949 
L 138.702868 161.401064 
L 138.765005 161.23635 
L 138.974716 161.137521 
L 139.036853 161.00575 
L 139.09899 160.906921 
L 139.184428 160.808093 
L 139.394139 160.709264 
L 139.440742 160.610436 
L 139.596084 160.511608 
L 139.697056 160.346893 
L 139.914534 160.248065 
L 139.976671 160.050408 
L 140.186383 159.984522 
L 140.279588 159.819808 
L 140.411628 159.786866 
L 140.434929 159.622151 
L 140.559203 159.523323 
L 140.660175 159.292723 
L 140.823284 159.193895 
L 140.885421 159.029181 
L 140.900955 159.029181 
L 141.095132 158.930352 
L 141.141735 158.765638 
L 141.258241 158.66681 
L 141.359213 158.502096 
L 141.413583 158.403267 
L 141.514555 158.20561 
L 141.599993 158.172667 
L 141.599993 158.073839 
L 141.926211 157.97501 
L 141.980581 157.810296 
L 142.073786 157.777353 
L 142.073786 157.711468 
L 142.229127 157.480868 
L 142.353401 157.38204 
L 142.454373 157.118497 
L 142.563112 157.052611 
L 142.671852 156.887897 
L 142.935933 156.789069 
L 142.982535 156.69024 
L 143.07574 156.657298 
L 143.161178 156.393755 
L 143.300986 156.294927 
L 143.401958 156.064327 
L 143.767011 155.998441 
L 143.875751 155.767841 
L 144.132065 155.669013 
L 144.22527 155.40547 
L 144.396146 155.306642 
L 144.504885 155.207814 
L 144.574789 155.141928 
L 144.667994 154.878385 
L 144.745665 154.8125 
L 144.846637 154.516014 
L 144.916541 154.417186 
L 145.02528 154.186586 
L 145.157321 154.087758 
L 145.180622 154.021872 
L 145.335964 153.923044 
L 145.405868 153.824215 
L 145.522374 153.725387 
L 145.631113 153.461844 
L 145.732085 153.363016 
L 145.833058 153.264187 
L 146.011701 153.165359 
L 146.12044 152.835931 
L 146.221412 152.737102 
L 146.322384 152.572388 
L 146.532096 152.473559 
L 146.586465 152.275903 
L 146.765109 152.177074 
L 146.78841 152.078246 
L 146.97482 151.979417 
L 147.044724 151.880589 
L 147.145696 151.78176 
L 147.200066 151.584103 
L 147.339873 151.485275 
L 147.355407 151.386446 
L 147.526283 151.353504 
L 147.627256 151.057018 
L 147.712694 150.95819 
L 147.805899 150.760533 
L 147.953473 150.661704 
L 148.01561 150.49699 
L 148.20202 150.398162 
L 148.302993 150.266391 
L 148.427266 150.167562 
L 148.536005 150.101676 
L 148.660279 150.002848 
L 148.745717 149.90402 
L 148.823388 149.805191 
L 148.932127 149.739305 
L 149.203975 149.640477 
L 149.219509 149.574591 
L 149.413687 149.475763 
L 149.522426 149.278106 
L 149.631165 149.179277 
L 149.739904 149.080449 
L 149.871945 149.014563 
L 149.949616 148.751021 
L 150.058355 148.652192 
L 150.097191 148.553364 
L 150.384573 148.454535 
L 150.493312 148.256879 
L 150.563216 148.15805 
L 150.625353 148.059222 
L 150.749626 147.960393 
L 150.788462 147.894508 
L 150.850598 147.894508 
L 150.928269 147.828622 
L 150.990406 147.598022 
L 151.137981 147.499194 
L 151.231186 147.433308 
L 151.479733 147.33448 
L 151.572938 147.169765 
L 151.767115 147.10388 
L 151.837019 146.939166 
L 152.054497 146.840337 
L 152.085566 146.741509 
L 152.240908 146.64268 
L 152.310811 146.477966 
L 152.326346 146.477966 
L 152.442852 146.379138 
L 152.52829 146.214424 
L 152.738001 146.115595 
L 152.838974 145.950881 
L 152.924412 145.852053 
L 153.017617 145.58851 
L 153.071986 145.522624 
L 153.071986 145.456739 
L 153.281698 145.35791 
L 153.374903 144.929654 
L 153.390437 144.929654 
L 153.646751 144.830825 
L 153.833161 144.468454 
L 154.027339 144.369626 
L 154.136078 144.204912 
L 154.322488 144.139026 
L 154.42346 143.974312 
L 154.431227 143.974312 
L 154.617637 143.875483 
L 154.66424 143.809598 
L 154.827349 143.710769 
L 154.858417 143.578998 
L 155.03706 143.48017 
L 155.1458 143.216627 
L 155.246772 143.150741 
L 155.355511 142.887199 
L 155.394347 142.78837 
L 155.503086 142.590714 
L 155.596291 142.491885 
L 155.689496 142.393057 
L 155.70503 142.393057 
L 155.790468 142.294228 
L 155.89144 142.063628 
L 156.217658 141.9648 
L 156.326397 141.898914 
L 156.489506 141.800086 
L 156.505041 141.7342 
L 156.699218 141.668315 
L 156.792423 141.536543 
L 156.862327 141.470658 
L 156.971066 141.273001 
L 157.087572 141.174172 
L 157.165243 141.075344 
L 157.250681 140.976515 
L 157.320585 140.844744 
L 157.506995 140.778858 
L 157.584666 140.68003 
L 157.786611 140.581201 
L 157.786611 140.548259 
L 157.817679 140.548259 
L 158.073993 140.44943 
L 158.143897 140.120002 
L 158.213801 140.087059 
L 158.291471 139.889402 
L 158.369142 139.790574 
L 158.439046 139.62586 
L 158.578854 139.527031 
L 158.672059 139.428203 
L 158.773031 139.362317 
L 158.874003 139.065832 
L 158.982743 138.967003 
L 159.091482 138.736404 
L 159.340029 138.637575 
L 159.4177 138.571689 
L 159.596343 138.472861 
L 159.681781 138.34109 
L 159.97693 138.242261 
L 160.0313 138.143433 
L 160.310915 138.044604 
L 160.380819 137.978719 
L 160.551695 137.87989 
L 160.652667 137.682233 
L 160.730338 137.583405 
L 160.83131 137.484576 
L 161.033255 137.418691 
L 161.07209 137.286919 
L 161.266267 137.221034 
L 161.336171 137.05632 
L 161.507047 136.957491 
L 161.600252 136.792777 
L 161.747827 136.693949 
L 161.755594 136.59512 
L 161.988607 136.496292 
L 162.097346 136.232749 
L 162.268222 136.133921 
L 162.369194 135.837435 
L 162.563371 135.77155 
L 162.656577 135.54095 
L 162.881822 135.442122 
L 162.928425 135.244465 
L 163.099301 135.178579 
L 163.192506 135.013865 
L 163.39445 134.915036 
L 163.44882 134.849151 
L 163.534258 134.750322 
L 163.534258 134.71738 
L 163.743969 134.684437 
L 163.844941 134.552665 
L 164.093488 134.453837 
L 164.194461 134.322066 
L 164.326501 134.223237 
L 164.427473 133.992637 
L 164.520678 133.893809 
L 164.613883 133.827923 
L 164.691554 133.729095 
L 164.792527 133.564381 
L 165.095443 133.465552 
L 165.118744 133.399667 
L 165.545934 133.300838 
L 165.600304 133.20201 
L 165.841084 133.103181 
L 165.942056 132.938467 
L 166.19837 132.839639 
L 166.291575 132.609039 
L 166.524588 132.510211 
L 166.578957 132.411382 
L 166.788669 132.312554 
L 166.788669 132.279611 
L 167.060517 132.180782 
L 167.169256 131.983125 
L 167.417803 131.884297 
L 167.526543 131.68664 
L 167.573145 131.587812 
L 167.643049 131.521926 
L 167.674117 131.521926 
L 167.806158 131.423098 
L 167.85276 131.291326 
L 168.023636 131.192498 
L 168.046938 131.126612 
L 168.272183 131.027784 
L 168.342087 130.961898 
L 168.598401 130.86307 
L 168.676072 130.665413 
L 168.831414 130.566584 
L 168.940153 130.40187 
L 169.048892 130.303042 
L 169.048892 130.270099 
L 169.413946 130.204213 
L 169.491617 129.973613 
L 169.763465 129.874785 
L 169.85667 129.611242 
L 169.980943 129.512414 
L 170.074148 129.314757 
L 170.190655 129.215929 
L 170.190655 129.182986 
L 170.221723 129.182986 
L 170.547941 129.1171 
L 170.633379 128.952386 
L 170.65668 128.952386 
L 170.765419 128.8865 
L 170.866392 128.590015 
L 171.060569 128.491187 
L 171.153774 128.359415 
L 171.425622 128.260587 
L 171.526594 128.06293 
L 171.798443 127.964101 
L 171.891648 127.83233 
L 172.109126 127.733502 
L 172.217866 127.568788 
L 172.272235 127.502902 
L 172.287769 127.404074 
L 172.373207 127.404074 
L 172.505248 127.206417 
L 172.769329 127.107588 
L 172.870301 126.975817 
L 172.986808 126.909931 
L 173.095547 126.745217 
L 173.250889 126.646389 
L 173.351861 126.448732 
L 173.452833 126.349903 
L 173.538271 126.218132 
L 173.732448 126.152246 
L 173.794585 126.020475 
L 174.004296 125.921647 
L 174.035365 125.789875 
L 174.151871 125.72399 
L 174.26061 125.625161 
L 174.470322 125.526333 
L 174.579061 125.394561 
L 174.74217 125.295733 
L 174.819841 125.131019 
L 174.850909 125.131019 
L 174.951882 125.03219 
L 175.021785 124.900419 
L 175.130525 124.801591 
L 175.161593 124.735705 
L 175.433441 124.636877 
L 175.487811 124.43922 
L 175.666454 124.340391 
L 175.720824 124.274506 
L 175.821796 124.175677 
L 175.930535 124.043906 
L 176.047041 123.945077 
L 176.140246 123.846249 
L 176.497533 123.74742 
L 176.520834 123.681535 
L 176.544135 123.681535 
L 176.870353 123.582706 
L 176.955791 123.516821 
L 177.165502 123.417992 
L 177.188804 123.319164 
L 177.382981 123.220335 
L 177.452885 123.121507 
L 177.569391 123.022678 
L 177.67813 122.890907 
L 177.802404 122.792079 
L 177.911143 122.660307 
L 177.965513 122.561479 
L 178.043184 122.330879 
L 178.182991 122.232051 
L 178.260662 122.133222 
L 178.509209 122.034394 
L 178.610181 121.836737 
L 178.781057 121.770851 
L 178.843194 121.606137 
L 178.9597 121.507309 
L 178.9597 121.474366 
L 179.231549 121.375537 
L 179.324754 121.210823 
L 179.635437 121.111995 
L 179.73641 120.980224 
L 179.81408 120.881395 
L 179.92282 120.683738 
L 179.977189 120.617853 
L 180.031559 120.420196 
L 180.29564 120.321367 
L 180.365544 120.12371 
L 180.683995 120.024882 
L 180.683995 119.991939 
L 181.09565 119.893111 
L 181.09565 119.860168 
L 181.33643 119.761339 
L 181.44517 119.596625 
L 181.584977 119.497797 
L 181.647114 119.398968 
L 181.918962 119.30014 
L 181.95003 119.135426 
L 182.019934 119.135426 
L 182.105372 119.06954 
L 182.198577 118.83894 
L 182.338385 118.740112 
L 182.338385 118.674226 
L 182.563631 118.575398 
L 182.67237 118.443626 
L 182.819945 118.344798 
L 182.91315 118.213027 
L 183.208299 118.114198 
L 183.223833 118.01537 
L 183.28597 118.01537 
L 183.402476 117.916541 
L 183.495682 117.78477 
L 183.651023 117.718884 
L 183.728694 117.620056 
L 183.860735 117.521228 
L 183.876269 117.455342 
L 184.031611 117.356513 
L 184.132583 117.224742 
L 184.350062 117.125914 
L 184.412198 116.928257 
L 184.4355 116.928257 
L 184.614143 116.829428 
L 184.684046 116.7306 
L 185.025798 116.631771 
L 185.087935 116.565886 
L 185.243277 116.467057 
L 185.313181 116.335286 
L 185.383085 116.236458 
L 185.484057 116.137629 
L 185.654933 116.038801 
L 185.701535 115.874087 
L 185.755905 115.874087 
L 186.08989 115.775258 
L 186.120958 115.544658 
L 186.338437 115.44583 
L 186.400574 115.314059 
L 186.594751 115.21523 
L 186.687956 115.116402 
L 186.804462 115.017573 
L 186.874366 114.951688 
L 187.099612 114.852859 
L 187.208351 114.721088 
L 187.55787 114.655202 
L 187.55787 114.589317 
L 188.148169 114.490488 
L 188.249141 114.358717 
L 188.46662 114.292831 
L 188.497688 114.194003 
L 188.684098 114.16106 
L 188.746235 113.996346 
L 188.886043 113.897517 
L 188.987015 113.69986 
L 189.103521 113.601032 
L 189.196726 113.370432 
L 189.204493 113.370432 
L 189.359835 113.271604 
L 189.445273 113.041004 
L 189.623916 112.942176 
L 189.69382 112.744519 
L 189.98897 112.64569 
L 190.058873 112.546862 
L 190.167613 112.513919 
L 190.229749 112.349205 
L 190.447228 112.250376 
L 190.5482 112.085662 
L 190.672474 111.986834 
L 190.781213 111.723291 
L 190.905486 111.624463 
L 191.006458 111.459749 
L 191.169567 111.36092 
L 191.247238 111.229149 
L 191.511319 111.13032 
L 191.612292 110.965606 
L 191.798702 110.866778 
L 191.860838 110.800892 
L 192.225892 110.702064 
L 192.326864 110.603235 
L 192.68415 110.504407 
L 192.777355 110.339693 
L 192.971532 110.273807 
L 193.025902 110.174979 
L 193.289983 110.07615 
L 193.289983 110.043207 
L 193.390955 110.043207 
L 193.530763 109.944379 
L 193.616201 109.84555 
L 193.841447 109.746722 
L 193.934652 109.647894 
L 194.113295 109.549065 
L 194.167664 109.384351 
L 194.26087 109.285523 
L 194.354075 109.186694 
L 194.649224 109.087866 
L 194.757963 108.857266 
L 195.107482 108.758437 
L 195.11525 108.692552 
L 195.425933 108.593723 
L 195.534672 108.429009 
L 195.635645 108.330181 
L 195.744384 108.231352 
L 195.868657 108.132524 
L 195.868657 108.066638 
L 196.117204 107.96781 
L 196.210409 107.868981 
L 196.420121 107.803096 
L 196.513326 107.50661 
L 196.637599 107.407782 
L 196.730804 107.276011 
L 196.917215 107.243068 
L 197.025954 106.946582 
L 197.134693 106.847754 
L 197.243432 106.650097 
L 197.484212 106.551268 
L 197.577417 106.45244 
L 197.740526 106.353612 
L 197.825964 106.188897 
L 198.082278 106.090069 
L 198.128881 106.024183 
L 198.315291 105.925355 
L 198.361894 105.859469 
L 198.71918 105.760641 
L 198.804618 105.661812 
L 199.029863 105.562984 
L 199.029863 105.530041 
L 199.441519 105.431213 
L 199.534724 105.332384 
L 199.736669 105.233556 
L 199.845408 105.16767 
L 200.210461 104.805299 
L 200.365803 104.706471 
L 200.443474 104.607642 
L 200.74639 104.508814 
L 200.824061 104.442928 
L 201.088142 104.3441 
L 201.111444 104.245271 
L 201.336689 104.146443 
L 201.437662 104.080557 
L 201.546401 103.981729 
L 201.639606 103.817014 
L 201.763879 103.751129 
L 201.826016 103.6523 
L 202.035728 103.553472 
L 202.066796 103.487586 
L 202.307576 103.388758 
L 202.307576 103.355815 
L 202.618259 103.289929 
L 202.618259 103.224044 
L 203.208558 103.125215 
L 203.262928 103.05933 
L 203.495941 102.960501 
L 203.589146 102.795787 
L 203.73672 102.696959 
L 203.767789 102.59813 
L 204.008569 102.499302 
L 204.047404 102.36753 
L 204.101774 102.36753 
L 204.264883 102.268702 
L 204.350321 102.136931 
L 204.614402 102.038102 
L 204.622169 101.972217 
L 205.049359 101.873388 
L 205.142564 101.741617 
L 205.305673 101.675731 
L 205.31344 101.576903 
L 205.530918 101.478074 
L 205.585288 101.379246 
L 205.787232 101.31336 
L 205.857136 101.214532 
L 206.090149 101.115703 
L 206.144519 101.049818 
L 206.462969 100.950989 
L 206.563942 100.786275 
L 206.78142 100.687447 
L 206.890159 100.555675 
L 207.255213 100.456847 
L 207.340651 100.390961 
L 207.356185 100.390961 
L 207.511527 100.292133 
L 207.620266 100.160361 
L 207.721238 100.061533 
L 207.798909 99.962704 
L 207.977552 99.863876 
L 208.016388 99.633276 
L 208.210565 99.534448 
L 208.30377 99.435619 
L 208.505714 99.336791 
L 208.637755 99.270905 
L 208.979507 99.172077 
L 209.088246 99.040306 
L 209.39893 98.941477 
L 209.39893 98.908534 
L 209.631942 98.809706 
L 209.709613 98.644992 
L 210.082434 98.546163 
L 210.082434 98.51322 
L 210.14457 98.51322 
L 210.284378 98.447335 
L 210.284378 98.381449 
L 210.525158 98.282621 
L 210.563993 98.216735 
L 211.076621 98.117907 
L 211.185361 98.019078 
L 211.379538 97.92025 
L 211.379538 97.887307 
L 211.488277 97.887307 
L 211.752358 97.788478 
L 211.861098 97.656707 
L 212.086343 97.557879 
L 212.20285 97.491993 
L 212.241685 97.393165 
L 212.327123 97.261393 
L 212.598971 97.162565 
L 212.70771 97.063736 
L 212.964024 96.964908 
L 213.041695 96.833137 
L 213.352379 96.734308 
L 213.352379 96.701365 
L 213.43005 96.701365 
L 213.631994 96.602537 
L 213.80287 96.371937 
L 213.965979 96.273109 
L 214.059184 96.17428 
L 214.191225 96.075452 
L 214.292197 95.910738 
L 214.618415 95.811909 
L 214.71162 95.614252 
L 214.773757 95.515424 
L 214.874729 95.383653 
L 215.022304 95.284824 
L 215.030071 95.251881 
L 215.332987 95.153053 
L 215.348521 95.054224 
L 215.907752 94.955396 
L 215.915519 94.88951 
L 216.23397 94.790682 
L 216.327175 94.691853 
L 216.490284 94.593025 
L 216.544653 94.527139 
L 216.591256 94.527139 
L 216.715529 94.428311 
L 216.746598 94.362425 
L 216.800967 94.362425 
L 217.189322 94.263597 
L 217.259226 94.098883 
L 217.624279 94.000054 
L 217.694183 93.901226 
L 217.896127 93.83534 
L 217.927196 93.736512 
L 218.113606 93.637683 
L 218.199044 93.538855 
L 218.338851 93.440026 
L 218.432056 93.341198 
L 218.812644 93.242369 
L 218.890315 93.143541 
L 219.022355 93.044712 
L 219.022355 93.011769 
L 219.35634 92.912941 
L 219.418477 92.78117 
L 219.806832 92.682341 
L 219.822366 92.484684 
L 219.876735 92.484684 
L 220.171885 92.385856 
L 220.26509 92.31997 
L 220.490336 92.221142 
L 220.521404 92.122313 
L 220.544705 92.122313 
L 220.707814 92.023485 
L 220.707814 91.990542 
L 221.243743 91.891714 
L 221.267045 91.825828 
L 221.329181 91.825828 
L 221.694235 91.726999 
L 221.702002 91.628171 
L 221.756371 91.628171 
L 221.958316 91.529343 
L 221.958316 91.4964 
L 222.21463 91.397571 
L 222.21463 91.331686 
L 222.478711 91.232857 
L 222.478711 91.199914 
L 223.006873 91.101086 
L 223.115612 91.002257 
L 223.379693 90.903429 
L 223.379693 90.837543 
L 223.674843 90.738715 
L 223.705911 90.639886 
L 224.148635 90.541058 
L 224.249608 90.277515 
L 224.467086 90.178687 
L 224.529223 90.079858 
L 224.808838 89.98103 
L 224.832139 89.915144 
L 225.010783 89.816316 
L 225.096221 89.717487 
L 225.422438 89.618659 
L 225.500109 89.552773 
L 225.515643 89.552773 
L 225.748656 89.453945 
L 225.849628 89.355116 
L 226.206915 89.256288 
L 226.24575 89.190402 
L 226.502064 89.091574 
L 226.579735 89.025688 
L 227.232171 88.92686 
L 227.239938 88.860974 
L 227.294307 88.860974 
L 227.47295 88.762146 
L 227.566155 88.630374 
L 227.970044 88.531546 
L 228.001113 88.46566 
L 228.451604 88.366832 
L 228.482672 88.300946 
L 228.909862 88.235061 
L 228.9953 88.037404 
L 229.360353 87.971518 
L 229.453559 87.806804 
L 229.531229 87.707975 
L 229.562298 87.64209 
L 229.927351 87.543261 
L 230.028323 87.378547 
L 230.362308 87.279719 
L 230.362308 87.246776 
L 230.471047 87.246776 
L 230.742896 87.147948 
L 230.843868 86.917348 
L 230.99921 86.818519 
L 231.006977 86.752634 
L 231.045812 86.752634 
L 231.333195 86.719691 
L 231.37203 86.58792 
L 231.690481 86.489091 
L 231.768152 86.390263 
L 231.970096 86.291434 
L 232.055534 86.12672 
L 232.335149 86.027892 
L 232.420587 85.929063 
L 232.824476 85.830235 
L 232.909914 85.764349 
L 233.344871 85.665521 
L 233.422542 85.599635 
L 233.45361 85.599635 
L 233.577884 85.500807 
L 233.686623 85.336092 
L 233.927403 85.237264 
L 233.942937 85.171378 
L 234.020608 85.171378 
L 234.191484 85.07255 
L 234.276922 85.006664 
L 234.424497 84.907836 
L 234.502168 84.776064 
L 234.673044 84.677236 
L 234.766249 84.61135 
L 235.038097 84.512522 
L 235.038097 84.479579 
L 235.123535 84.479579 
L 235.58956 84.380751 
L 235.682765 84.248979 
L 235.900244 84.150151 
L 235.970148 84.051322 
L 236.49831 83.952494 
L 236.568214 83.853666 
L 237.042006 83.754837 
L 237.135211 83.688951 
L 237.632305 83.590123 
L 237.733277 83.491295 
L 237.904153 83.425409 
L 237.958523 83.32658 
L 238.26144 83.227752 
L 238.339111 83.095981 
L 238.362412 83.095981 
L 238.44785 83.030095 
L 238.533288 82.931267 
L 238.556589 82.931267 
L 239.209025 82.832438 
L 239.30223 82.667724 
L 239.527475 82.568896 
L 239.620681 82.50301 
L 240.125541 82.404181 
L 240.195445 82.305353 
L 240.498362 82.206525 
L 240.513896 82.140639 
L 240.972154 82.04181 
L 241.003223 81.975925 
L 241.181866 81.877096 
L 241.205167 81.811211 
L 241.259537 81.811211 
L 241.958575 81.712382 
L 242.059547 81.646497 
L 242.207122 81.547668 
L 242.315861 81.44884 
L 242.572175 81.350011 
L 242.649846 81.251183 
L 242.859557 81.152354 
L 242.96053 81.086469 
L 243.403254 80.98764 
L 243.480925 80.921755 
L 243.869279 80.822926 
L 243.931416 80.75704 
L 244.420743 80.658212 
L 244.521715 80.592326 
L 244.941138 80.493498 
L 245.003275 80.394669 
L 245.531437 80.295841 
L 245.632409 80.16407 
L 245.927558 80.065241 
L 246.036298 79.966413 
L 246.409118 79.867584 
L 246.463488 79.801699 
L 246.479022 79.801699 
L 246.867376 79.70287 
L 246.93728 79.636985 
L 247.146992 79.538156 
L 247.224663 79.47227 
L 247.442141 79.373442 
L 247.527579 79.241671 
L 247.760592 79.142842 
L 247.760592 79.109899 
L 248.055741 79.011071 
L 248.141179 78.912243 
L 248.529534 78.813414 
L 248.529534 78.780471 
L 249.1276 78.681643 
L 249.228572 78.451043 
L 250.331499 78.352215 
L 250.424704 78.286329 
L 251.015003 78.1875 
L 251.030537 78.121615 
L 251.496563 78.022786 
L 251.574233 77.956901 
L 251.923753 77.858072 
L 251.923753 77.825129 
L 252.30434 77.726301 
L 252.374244 77.660415 
L 252.467449 77.561587 
L 252.498517 77.495701 
L 252.949009 77.396873 
L 253.057748 77.265102 
L 253.523773 77.166273 
L 253.632513 77.034502 
L 253.849991 76.935673 
L 253.896594 76.869788 
L 254.207277 76.770959 
L 254.222811 76.705074 
L 254.308249 76.705074 
L 254.81311 76.639188 
L 254.81311 76.606245 
L 254.820877 76.573302 
L 255.271369 76.474474 
L 255.356807 76.375645 
L 255.683025 76.276817 
L 255.737394 76.210931 
L 255.77623 76.210931 
L 256.180118 76.112103 
L 256.265556 76.013274 
L 256.661678 75.914446 
L 256.770417 75.84856 
L 256.855855 75.749732 
L 256.925759 75.585018 
L 257.368483 75.486189 
L 257.368483 75.453246 
L 257.733537 75.354418 
L 257.811207 75.222647 
L 258.719957 75.123818 
L 258.719957 75.090875 
L 259.209284 74.992047 
L 259.302489 74.893219 
L 259.318023 74.893219 
L 259.652008 74.79439 
L 259.698611 74.695562 
L 260.141335 74.596733 
L 260.141335 74.56379 
L 260.700565 74.464962 
L 260.770469 74.366133 
L 261.197659 74.267305 
L 261.27533 74.135534 
L 261.51611 74.036705 
L 261.601548 73.904934 
L 261.88893 73.839048 
L 261.88893 73.773163 
L 262.277285 73.674334 
L 262.277285 73.641391 
L 263.527786 73.542563 
L 263.551088 73.443734 
L 263.683128 73.377849 
L 263.714197 73.27902 
L 264.055949 73.180192 
L 264.055949 73.147249 
L 264.281194 73.048421 
L 264.358865 72.949592 
L 264.382166 72.949592 
L 264.778288 72.850764 
L 264.887027 72.784878 
L 265.554997 72.68605 
L 265.593833 72.587221 
L 266.090926 72.488393 
L 266.121995 72.422507 
L 266.549185 72.323679 
L 266.603554 72.257793 
L 267.263757 72.158964 
L 267.318127 72.027193 
L 267.784152 71.928365 
L 267.900659 71.796593 
L 268.413287 71.697765 
L 268.522026 71.631879 
L 269.143393 71.533051 
L 269.213297 71.434222 
L 270.00554 71.335394 
L 270.075444 71.203623 
L 270.362826 71.104794 
L 270.370593 71.038909 
L 270.91429 70.94008 
L 271.023029 70.775366 
L 271.357014 70.676538 
L 271.442452 70.610652 
L 272.001683 70.511823 
L 272.048285 70.445938 
L 272.428873 70.380052 
L 272.428873 70.314167 
L 272.75509 70.215338 
L 272.75509 70.149452 
L 272.786159 70.149452 
L 273.485197 70.050624 
L 273.539567 69.984738 
L 273.788114 69.88591 
L 273.788114 69.852967 
L 274.316276 69.754139 
L 274.324043 69.688253 
L 275.038615 69.589424 
L 275.124053 69.457653 
L 275.683284 69.358825 
L 275.706585 69.292939 
L 276.188145 69.194111 
L 276.28135 69.095282 
L 276.576499 68.996454 
L 276.623102 68.930568 
L 277.50855 68.83174 
L 277.50855 68.798797 
L 277.609522 68.798797 
L 278.192054 68.732911 
L 278.293026 68.634083 
L 278.665847 68.535254 
L 278.665847 68.502311 
L 278.774586 68.502311 
L 279.40372 68.403483 
L 279.40372 68.37054 
L 279.6445 68.271712 
L 279.729938 68.205826 
L 279.900814 68.106998 
L 279.962951 68.041112 
L 280.281402 67.942283 
L 280.374607 67.843455 
L 280.832865 67.744627 
L 280.832865 67.678741 
L 281.322192 67.579912 
L 281.40763 67.54697 
L 281.710546 67.448141 
L 281.733848 67.382256 
L 282.223174 67.283427 
L 282.26201 67.184599 
L 282.673666 67.08577 
L 282.751336 67.019885 
L 283.131924 66.921056 
L 283.131924 66.888113 
L 283.504744 66.822228 
L 283.512511 66.690456 
L 284.056208 66.591628 
L 284.133879 66.525742 
L 284.328056 66.426914 
L 284.328056 66.393971 
L 284.778547 66.295142 
L 284.778547 66.2622 
L 285.229038 66.163371 
L 285.229038 66.130428 
L 285.330011 66.130428 
L 285.803803 66.0316 
L 285.803803 65.998657 
L 285.86594 65.998657 
L 286.363034 65.899829 
L 286.370801 65.833943 
L 286.805758 65.735115 
L 286.914497 65.636286 
L 287.062072 65.537458 
L 287.163044 65.306858 
L 287.768877 65.208029 
L 287.776644 65.142144 
L 288.265971 65.043315 
L 288.351409 64.944487 
L 288.584422 64.845658 
L 288.584422 64.812716 
L 288.66986 64.812716 
L 288.941708 64.713887 
L 289.050447 64.615059 
L 289.236857 64.51623 
L 289.330062 64.417402 
L 289.625212 64.318573 
L 289.65628 64.186802 
L 289.733951 64.186802 
L 290.32425 64.087974 
L 290.32425 64.055031 
L 290.56503 63.956202 
L 290.6194 63.890317 
L 291.271835 63.824431 
L 291.271835 63.758545 
L 292.211653 63.659717 
L 292.211653 63.626774 
L 292.817486 63.527946 
L 292.895157 63.46206 
L 292.926226 63.46206 
L 293.236909 63.396174 
L 293.275745 63.23146 
L 293.967016 63.132632 
L 294.044687 63.066746 
L 294.40974 62.967918 
L 294.495178 62.902032 
L 294.518479 62.902032 
L 295.116545 62.803204 
L 295.163148 62.737318 
L 295.776748 62.671432 
L 295.776748 62.605547 
L 295.846652 62.605547 
L 296.258308 62.506718 
L 296.35928 62.440833 
L 296.716566 62.342004 
L 296.716566 62.309061 
L 297.151523 62.210233 
L 297.260262 62.111404 
L 297.64085 62.012576 
L 297.710754 61.880805 
L 298.207847 61.781976 
L 298.316587 61.716091 
L 298.790379 61.617262 
L 298.836982 61.551376 
L 299.598157 61.452548 
L 299.675828 61.386662 
L 299.706896 61.386662 
L 300.3904 61.287834 
L 300.3904 61.254891 
L 301.104972 61.156063 
L 301.128274 61.057234 
L 301.749641 60.958406 
L 301.749641 60.925463 
L 301.780709 60.925463 
L 302.619555 60.826634 
L 302.619555 60.793692 
L 302.71276 60.793692 
L 303.489469 60.694863 
L 303.598208 60.66192 
L 303.792386 60.563092 
L 303.877824 60.497206 
L 304.273945 60.398378 
L 304.320548 60.332492 
L 304.802108 60.233664 
L 304.856477 60.134835 
L 304.90308 60.134835 
L 305.8895 60.036007 
L 305.990472 59.937178 
L 306.751647 59.871293 
L 306.751647 59.805407 
L 307.334179 59.706579 
L 307.497288 59.60775 
L 308.390504 59.508922 
L 308.390504 59.475979 
L 309.252651 59.37715 
L 309.283719 59.311265 
L 309.49343 59.245379 
L 309.571101 59.146551 
L 310.487618 59.047722 
L 310.518686 58.981836 
L 311.171122 58.883008 
L 311.171122 58.850065 
L 311.862393 58.751237 
L 311.862393 58.718294 
L 311.893462 58.718294 
L 312.771143 58.619465 
L 312.771143 58.586523 
L 313.128429 58.487694 
L 313.175032 58.421809 
L 313.959508 58.32298 
L 313.959508 58.290037 
L 314.06048 58.290037 
L 314.650779 58.191209 
L 314.650779 58.158266 
L 315.349817 58.059438 
L 315.349817 58.026495 
L 316.654688 57.927666 
L 316.685757 57.861781 
L 316.740126 57.861781 
L 317.29159 57.762952 
L 317.299357 57.697066 
L 317.330425 57.697066 
L 317.944025 57.598238 
L 317.982861 57.532352 
L 318.479955 57.433524 
L 318.479955 57.400581 
L 319.24113 57.301753 
L 319.24113 57.26881 
L 319.311033 57.26881 
L 320.250851 57.169981 
L 320.344056 57.104096 
L 320.351824 57.104096 
L 321.314943 57.005267 
L 321.330477 56.939382 
L 321.571257 56.840553 
L 321.571257 56.80761 
L 321.679996 56.80761 
L 322.262528 56.708782 
L 322.262528 56.675839 
L 322.347966 56.675839 
L 322.938265 56.577011 
L 322.938265 56.544068 
L 323.51303 56.445239 
L 323.51303 56.412297 
L 324.414012 56.313468 
L 324.507217 56.247582 
L 325.058681 56.148754 
L 325.058681 56.115811 
L 325.4082 56.016983 
L 325.4082 55.951097 
L 326.099471 55.852269 
L 326.169375 55.786383 
L 326.526661 55.687554 
L 326.565496 55.621669 
L 326.588798 55.621669 
L 327.008221 55.52284 
L 327.008221 55.489898 
L 327.101426 55.489898 
L 327.575218 55.391069 
L 327.67619 55.325183 
L 328.266489 55.226355 
L 328.266489 55.193412 
L 329.346115 55.094584 
L 329.346115 55.061641 
L 329.369416 55.061641 
L 330.099523 54.962812 
L 330.200495 54.863984 
L 330.899533 54.765156 
L 330.938369 54.69927 
L 332.049063 54.600441 
L 332.049063 54.567499 
L 332.080131 54.567499 
L 333.214126 54.46867 
L 333.214126 54.435727 
L 333.936466 54.336899 
L 333.936466 54.303956 
L 334.045205 54.303956 
L 334.503463 54.205128 
L 334.61997 54.172185 
L 335.373377 54.073356 
L 335.458815 54.007471 
L 335.47435 54.007471 
L 335.645226 53.908642 
L 335.691828 53.875699 
L 336.75592 53.776871 
L 336.856892 53.710985 
L 337.882148 53.612157 
L 337.882148 53.579214 
L 337.936517 53.579214 
L 338.658857 53.480386 
L 338.658857 53.447443 
L 338.759829 53.447443 
L 339.218087 53.348614 
L 339.31906 53.315671 
L 340.406452 53.216843 
L 340.406452 53.1839 
L 341.439475 53.085072 
L 341.439475 53.052129 
L 341.540448 53.052129 
L 342.340458 52.986243 
L 342.394828 52.887415 
L 342.433663 52.887415 
L 343.637562 52.788586 
L 343.691932 52.722701 
L 344.499709 52.623872 
L 344.523011 52.557987 
L 345.152145 52.459158 
L 345.214282 52.393272 
L 345.260884 52.393272 
L 346.130798 52.294444 
L 346.216236 52.228558 
L 347.396834 52.12973 
L 347.396834 52.096787 
L 348.173543 51.997959 
L 348.173543 51.965016 
L 349.354141 51.866187 
L 349.416278 51.800302 
L 350.418233 51.701473 
L 350.418233 51.66853 
L 350.519205 51.66853 
L 351.676501 51.569702 
L 351.738638 51.503816 
L 353.17555 51.404988 
L 353.17555 51.372045 
L 353.688178 51.273217 
L 353.742547 51.174388 
L 354.45712 51.07556 
L 354.45712 51.042617 
L 354.558092 51.042617 
L 355.024117 50.943788 
L 355.031885 50.910846 
L 356.546467 50.812017 
L 356.546467 50.779074 
L 356.631905 50.779074 
L 359.71544 50.680246 
L 359.71544 50.61436 
L 359.754276 50.61436 
L 360.872737 50.515532 
L 360.911572 50.449646 
L 361.447502 50.350818 
L 361.447502 50.317875 
L 361.525173 50.317875 
L 361.944595 50.219046 
L 361.991198 50.153161 
L 362.620332 50.054332 
L 362.659168 50.021389 
L 363.762095 49.922561 
L 363.8553 49.856675 
L 365.0825 49.757847 
L 365.0825 49.724904 
L 365.633964 49.626076 
L 365.688333 49.56019 
L 366.721356 49.461361 
L 366.721356 49.428419 
L 368.189337 49.32959 
L 368.189337 49.296647 
L 368.204871 49.296647 
L 369.307798 49.197819 
L 369.307798 49.164876 
L 370.107808 49.066048 
L 370.115575 49.033105 
L 371.49035 48.934276 
L 371.49035 48.901334 
L 371.552487 48.901334 
L 372.049581 48.802505 
L 372.072882 48.736619 
L 372.111717 48.736619 
L 373.447657 48.637791 
L 373.447657 48.604848 
L 374.340873 48.50602 
L 374.550584 48.473077 
L 375.156417 48.374248 
L 375.20302 48.341306 
L 375.661278 48.242477 
L 375.731182 48.176592 
L 376.236043 48.077763 
L 376.360316 47.978935 
L 377.121491 47.880106 
L 377.121491 47.847163 
L 377.191395 47.847163 
L 378.915689 47.748335 
L 379.001127 47.649506 
L 379.016661 47.649506 
L 380.344834 47.550678 
L 380.344834 47.517735 
L 380.391436 47.517735 
L 382.006991 47.418907 
L 382.006991 47.385964 
L 382.076895 47.385964 
L 383.280794 47.287135 
L 383.280794 47.254193 
L 383.366232 47.254193 
L 385.191499 47.155364 
L 385.191499 47.122421 
L 387.288613 47.023593 
L 387.40512 46.924764 
L 388.352705 46.825936 
L 388.399307 46.76005 
L 389.72748 46.661222 
L 389.72748 46.628279 
L 389.805151 46.628279 
L 390.558558 46.529451 
L 390.651764 46.430622 
L 391.832361 46.331794 
L 391.832361 46.298851 
L 393.378012 46.232965 
L 393.378012 46.16708 
L 393.424615 46.16708 
L 394.473172 46.068251 
L 394.581912 45.969423 
L 397.556707 45.870594 
L 397.564474 45.837651 
L 398.628566 45.738823 
L 398.714004 45.639994 
L 399.816931 45.541166 
L 399.894602 45.47528 
L 401.440253 45.376452 
L 401.440253 45.343509 
L 401.486855 45.343509 
L 401.999483 45.244681 
L 401.999483 45.211738 
L 403.187848 45.112909 
L 403.273286 45.047024 
L 405.859728 44.948195 
L 405.859728 44.915252 
L 407.918007 44.816424 
L 407.918007 44.783481 
L 407.941308 44.783481 
L 408.974331 44.684653 
L 408.974331 44.65171 
L 409.044235 44.65171 
L 410.030655 44.552881 
L 410.085025 44.454053 
L 410.582119 44.355224 
L 410.582119 44.322282 
L 410.65979 44.322282 
L 412.756904 44.223453 
L 412.756904 44.19051 
L 412.850109 44.19051 
L 413.976338 44.091682 
L 413.976338 44.058739 
L 414.046241 44.058739 
L 414.791882 43.992853 
L 414.791882 43.926968 
L 417.712308 43.828139 
L 417.712308 43.795196 
L 417.789979 43.795196 
L 419.079316 43.696368 
L 419.079316 43.663425 
L 419.188056 43.663425 
L 419.234658 43.630482 
L 420.555064 43.531654 
L 420.562831 43.498711 
L 421.875469 43.399883 
L 421.960907 43.333997 
L 422.830821 43.235169 
L 422.830821 43.202226 
L 422.916259 43.202226 
L 424.446376 43.103397 
L 424.446376 43.070454 
L 424.477444 43.070454 
L 430.061983 42.971626 
L 430.061983 42.938683 
L 430.155188 42.938683 
L 432.322206 42.839855 
L 432.322206 42.806912 
L 434.28728 42.708083 
L 434.28728 42.675141 
L 436.570805 42.576312 
L 436.570805 42.543369 
L 436.679544 42.543369 
L 439.5223 42.444541 
L 439.5223 42.411598 
L 439.537834 42.411598 
L 442.497095 42.31277 
L 442.497095 42.279827 
L 442.605835 42.279827 
L 446.644722 42.180998 
L 446.644722 42.148055 
L 446.691325 42.148055 
L 448.019497 42.049227 
L 448.019497 42.016284 
L 449.736024 41.917456 
L 449.736024 41.884513 
L 459.763339 41.785684 
L 459.763339 41.752742 
L 459.856544 41.752742 
L 465.006125 41.653913 
L 465.006125 41.62097 
L 465.114864 41.62097 
L 469.363463 41.522142 
L 469.363463 41.489199 
L 469.472202 41.489199 
L 475.981024 41.390371 
L 476.043161 41.357428 
L 478.474261 41.258599 
L 478.474261 41.225657 
L 478.497562 41.225657 
L 480.757785 41.126828 
L 480.757785 41.093885 
L 480.835456 41.093885 
L 484.32288 40.995057 
L 484.32288 40.962114 
L 484.392784 40.962114 
L 489.705474 40.863285 
L 489.705474 40.830343 
L 489.814213 40.830343 
L 492.664736 40.731514 
L 492.664736 40.698571 
L 492.773475 40.698571 
L 497.115279 40.599743 
L 497.115279 40.5668 
L 497.200717 40.5668 
L 501.293974 40.467972 
L 501.293974 40.435029 
L 501.35611 40.435029 
L 506.653266 40.3362 
L 506.653266 40.303258 
L 509.014462 40.204429 
L 509.014462 40.171486 
L 509.0999 40.171486 
L 518.79323 40.072658 
L 518.79323 40.039715 
L 518.863133 40.039715 
L 526.692361 39.940887 
L 526.692361 39.907944 
L 526.777799 39.907944 
L 534.521589 39.809115 
L 534.521589 39.776172 
L 534.560424 39.776172 
L 549.092651 39.677344 
L 549.092651 39.644401 
L 553.34125 39.611458 
L 553.34125 39.611458 
" clip-path="url(#p29c096db4e)" style="fill: none; stroke: #ff8c00; stroke-width: 2; stroke-linecap: square"/>
   </g>
   <g id="line2d_26">
    <path d="M 43.78125 385.478125 
L 553.34125 39.611458 
" clip-path="url(#p29c096db4e)" style="fill: none; stroke-dasharray: 7.4,3.2; stroke-dashoffset: 0; stroke: #000080; stroke-width: 2"/>
   </g>
   <g id="patch_3">
    <path d="M 43.78125 385.478125 
L 43.78125 22.318125 
" style="fill: none; stroke: #000000; stroke-width: 0.8; stroke-linejoin: miter; stroke-linecap: square"/>
   </g>
   <g id="patch_4">
    <path d="M 553.34125 385.478125 
L 553.34125 22.318125 
" style="fill: none; stroke: #000000; stroke-width: 0.8; stroke-linejoin: miter; stroke-linecap: square"/>
   </g>
   <g id="patch_5">
    <path d="M 43.78125 385.478125 
L 553.34125 385.478125 
" style="fill: none; stroke: #000000; stroke-width: 0.8; stroke-linejoin: miter; stroke-linecap: square"/>
   </g>
   <g id="patch_6">
    <path d="M 43.78125 22.318125 
L 553.34125 22.318125 
" style="fill: none; stroke: #000000; stroke-width: 0.8; stroke-linejoin: miter; stroke-linecap: square"/>
   </g>
   <g id="text_15">
    <!-- Curva ROC (NN - Standard - No PCA) -->
    <g transform="translate(189.086562 16.318125) scale(0.12 -0.12)">
     <defs>
      <path id="DejaVuSans-43" d="M 4122 4306 
L 4122 3641 
Q 3803 3938 3442 4084 
Q 3081 4231 2675 4231 
Q 1875 4231 1450 3742 
Q 1025 3253 1025 2328 
Q 1025 1406 1450 917 
Q 1875 428 2675 428 
Q 3081 428 3442 575 
Q 3803 722 4122 1019 
L 4122 359 
Q 3791 134 3420 21 
Q 3050 -91 2638 -91 
Q 1578 -91 968 557 
Q 359 1206 359 2328 
Q 359 3453 968 4101 
Q 1578 4750 2638 4750 
Q 3056 4750 3426 4639 
Q 3797 4528 4122 4306 
z
" transform="scale(0.015625)"/>
      <path id="DejaVuSans-4f" d="M 2522 4238 
Q 1834 4238 1429 3725 
Q 1025 3213 1025 2328 
Q 1025 1447 1429 934 
Q 1834 422 2522 422 
Q 3209 422 3611 934 
Q 4013 1447 4013 2328 
Q 4013 3213 3611 3725 
Q 3209 4238 2522 4238 
z
M 2522 4750 
Q 3503 4750 4090 4092 
Q 4678 3434 4678 2328 
Q 4678 1225 4090 567 
Q 3503 -91 2522 -91 
Q 1538 -91 948 565 
Q 359 1222 359 2328 
Q 359 3434 948 4092 
Q 1538 4750 2522 4750 
z
" transform="scale(0.015625)"/>
      <path id="DejaVuSans-28" d="M 1984 4856 
Q 1566 4138 1362 3434 
Q 1159 2731 1159 2009 
Q 1159 1288 1364 580 
Q 1569 -128 1984 -844 
L 1484 -844 
Q 1016 -109 783 600 
Q 550 1309 550 2009 
Q 550 2706 781 3412 
Q 1013 4119 1484 4856 
L 1984 4856 
z
" transform="scale(0.015625)"/>
      <path id="DejaVuSans-4e" d="M 628 4666 
L 1478 4666 
L 3547 763 
L 3547 4666 
L 4159 4666 
L 4159 0 
L 3309 0 
L 1241 3903 
L 1241 0 
L 628 0 
L 628 4666 
z
" transform="scale(0.015625)"/>
      <path id="DejaVuSans-2d" d="M 313 2009 
L 1997 2009 
L 1997 1497 
L 313 1497 
L 313 2009 
z
" transform="scale(0.015625)"/>
      <path id="DejaVuSans-53" d="M 3425 4513 
L 3425 3897 
Q 3066 4069 2747 4153 
Q 2428 4238 2131 4238 
Q 1616 4238 1336 4038 
Q 1056 3838 1056 3469 
Q 1056 3159 1242 3001 
Q 1428 2844 1947 2747 
L 2328 2669 
Q 3034 2534 3370 2195 
Q 3706 1856 3706 1288 
Q 3706 609 3251 259 
Q 2797 -91 1919 -91 
Q 1588 -91 1214 -16 
Q 841 59 441 206 
L 441 856 
Q 825 641 1194 531 
Q 1563 422 1919 422 
Q 2459 422 2753 634 
Q 3047 847 3047 1241 
Q 3047 1584 2836 1778 
Q 2625 1972 2144 2069 
L 1759 2144 
Q 1053 2284 737 2584 
Q 422 2884 422 3419 
Q 422 4038 858 4394 
Q 1294 4750 2059 4750 
Q 2388 4750 2728 4690 
Q 3069 4631 3425 4513 
z
" transform="scale(0.015625)"/>
      <path id="DejaVuSans-6e" d="M 3513 2113 
L 3513 0 
L 2938 0 
L 2938 2094 
Q 2938 2591 2744 2837 
Q 2550 3084 2163 3084 
Q 1697 3084 1428 2787 
Q 1159 2491 1159 1978 
L 1159 0 
L 581 0 
L 581 3500 
L 1159 3500 
L 1159 2956 
Q 1366 3272 1645 3428 
Q 1925 3584 2291 3584 
Q 2894 3584 3203 3211 
Q 3513 2838 3513 2113 
z
" transform="scale(0.015625)"/>
      <path id="DejaVuSans-64" d="M 2906 2969 
L 2906 4863 
L 3481 4863 
L 3481 0 
L 2906 0 
L 2906 525 
Q 2725 213 2448 61 
Q 2172 -91 1784 -91 
Q 1150 -91 751 415 
Q 353 922 353 1747 
Q 353 2572 751 3078 
Q 1150 3584 1784 3584 
Q 2172 3584 2448 3432 
Q 2725 3281 2906 2969 
z
M 947 1747 
Q 947 1113 1208 752 
Q 1469 391 1925 391 
Q 2381 391 2643 752 
Q 2906 1113 2906 1747 
Q 2906 2381 2643 2742 
Q 2381 3103 1925 3103 
Q 1469 3103 1208 2742 
Q 947 2381 947 1747 
z
" transform="scale(0.015625)"/>
      <path id="DejaVuSans-41" d="M 2188 4044 
L 1331 1722 
L 3047 1722 
L 2188 4044 
z
M 1831 4666 
L 2547 4666 
L 4325 0 
L 3669 0 
L 3244 1197 
L 1141 1197 
L 716 0 
L 50 0 
L 1831 4666 
z
" transform="scale(0.015625)"/>
      <path id="DejaVuSans-29" d="M 513 4856 
L 1013 4856 
Q 1481 4119 1714 3412 
Q 1947 2706 1947 2009 
Q 1947 1309 1714 600 
Q 1481 -109 1013 -844 
L 513 -844 
Q 928 -128 1133 580 
Q 1338 1288 1338 2009 
Q 1338 2731 1133 3434 
Q 928 4138 513 4856 
z
" transform="scale(0.015625)"/>
     </defs>
     <use xlink:href="#DejaVuSans-43"/>
     <use xlink:href="#DejaVuSans-75" transform="translate(69.824219 0)"/>
     <use xlink:href="#DejaVuSans-72" transform="translate(133.203125 0)"/>
     <use xlink:href="#DejaVuSans-76" transform="translate(174.316406 0)"/>
     <use xlink:href="#DejaVuSans-61" transform="translate(233.496094 0)"/>
     <use xlink:href="#DejaVuSans-20" transform="translate(294.775391 0)"/>
     <use xlink:href="#DejaVuSans-52" transform="translate(326.5625 0)"/>
     <use xlink:href="#DejaVuSans-4f" transform="translate(396.044922 0)"/>
     <use xlink:href="#DejaVuSans-43" transform="translate(474.755859 0)"/>
     <use xlink:href="#DejaVuSans-20" transform="translate(544.580078 0)"/>
     <use xlink:href="#DejaVuSans-28" transform="translate(576.367188 0)"/>
     <use xlink:href="#DejaVuSans-4e" transform="translate(615.380859 0)"/>
     <use xlink:href="#DejaVuSans-4e" transform="translate(690.185547 0)"/>
     <use xlink:href="#DejaVuSans-20" transform="translate(764.990234 0)"/>
     <use xlink:href="#DejaVuSans-2d" transform="translate(796.777344 0)"/>
     <use xlink:href="#DejaVuSans-20" transform="translate(832.861328 0)"/>
     <use xlink:href="#DejaVuSans-53" transform="translate(864.648438 0)"/>
     <use xlink:href="#DejaVuSans-74" transform="translate(928.125 0)"/>
     <use xlink:href="#DejaVuSans-61" transform="translate(967.333984 0)"/>
     <use xlink:href="#DejaVuSans-6e" transform="translate(1028.613281 0)"/>
     <use xlink:href="#DejaVuSans-64" transform="translate(1091.992188 0)"/>
     <use xlink:href="#DejaVuSans-61" transform="translate(1155.46875 0)"/>
     <use xlink:href="#DejaVuSans-72" transform="translate(1216.748047 0)"/>
     <use xlink:href="#DejaVuSans-64" transform="translate(1256.111328 0)"/>
     <use xlink:href="#DejaVuSans-20" transform="translate(1319.587891 0)"/>
     <use xlink:href="#DejaVuSans-2d" transform="translate(1351.375 0)"/>
     <use xlink:href="#DejaVuSans-20" transform="translate(1387.458984 0)"/>
     <use xlink:href="#DejaVuSans-4e" transform="translate(1419.246094 0)"/>
     <use xlink:href="#DejaVuSans-6f" transform="translate(1494.050781 0)"/>
     <use xlink:href="#DejaVuSans-20" transform="translate(1555.232422 0)"/>
     <use xlink:href="#DejaVuSans-50" transform="translate(1587.019531 0)"/>
     <use xlink:href="#DejaVuSans-43" transform="translate(1647.322266 0)"/>
     <use xlink:href="#DejaVuSans-41" transform="translate(1717.146484 0)"/>
     <use xlink:href="#DejaVuSans-29" transform="translate(1785.554688 0)"/>
    </g>
   </g>
   <g id="legend_1">
    <g id="patch_7">
     <path d="M 392.21625 380.478125 
L 546.34125 380.478125 
Q 548.34125 380.478125 548.34125 378.478125 
L 548.34125 350.121875 
Q 548.34125 348.121875 546.34125 348.121875 
L 392.21625 348.121875 
Q 390.21625 348.121875 390.21625 350.121875 
L 390.21625 378.478125 
Q 390.21625 380.478125 392.21625 380.478125 
z
" style="fill: #ffffff; opacity: 0.8; stroke: #cccccc; stroke-linejoin: miter"/>
    </g>
    <g id="line2d_27">
     <path d="M 394.21625 356.220312 
L 404.21625 356.220312 
L 414.21625 356.220312 
" style="fill: none; stroke: #ff8c00; stroke-width: 2; stroke-linecap: square"/>
    </g>
    <g id="text_16">
     <!-- ROC curve (AUC = 0.83) -->
     <g transform="translate(422.21625 359.720312) scale(0.1 -0.1)">
      <defs>
       <path id="DejaVuSans-63" d="M 3122 3366 
L 3122 2828 
Q 2878 2963 2633 3030 
Q 2388 3097 2138 3097 
Q 1578 3097 1268 2742 
Q 959 2388 959 1747 
Q 959 1106 1268 751 
Q 1578 397 2138 397 
Q 2388 397 2633 464 
Q 2878 531 3122 666 
L 3122 134 
Q 2881 22 2623 -34 
Q 2366 -91 2075 -91 
Q 1284 -91 818 406 
Q 353 903 353 1747 
Q 353 2603 823 3093 
Q 1294 3584 2113 3584 
Q 2378 3584 2631 3529 
Q 2884 3475 3122 3366 
z
" transform="scale(0.015625)"/>
       <path id="DejaVuSans-55" d="M 556 4666 
L 1191 4666 
L 1191 1831 
Q 1191 1081 1462 751 
Q 1734 422 2344 422 
Q 2950 422 3222 751 
Q 3494 1081 3494 1831 
L 3494 4666 
L 4128 4666 
L 4128 1753 
Q 4128 841 3676 375 
Q 3225 -91 2344 -91 
Q 1459 -91 1007 375 
Q 556 841 556 1753 
L 556 4666 
z
" transform="scale(0.015625)"/>
       <path id="DejaVuSans-3d" d="M 678 2906 
L 4684 2906 
L 4684 2381 
L 678 2381 
L 678 2906 
z
M 678 1631 
L 4684 1631 
L 4684 1100 
L 678 1100 
L 678 1631 
z
" transform="scale(0.015625)"/>
       <path id="DejaVuSans-33" d="M 2597 2516 
Q 3050 2419 3304 2112 
Q 3559 1806 3559 1356 
Q 3559 666 3084 287 
Q 2609 -91 1734 -91 
Q 1441 -91 1130 -33 
Q 819 25 488 141 
L 488 750 
Q 750 597 1062 519 
Q 1375 441 1716 441 
Q 2309 441 2620 675 
Q 2931 909 2931 1356 
Q 2931 1769 2642 2001 
Q 2353 2234 1838 2234 
L 1294 2234 
L 1294 2753 
L 1863 2753 
Q 2328 2753 2575 2939 
Q 2822 3125 2822 3475 
Q 2822 3834 2567 4026 
Q 2313 4219 1838 4219 
Q 1578 4219 1281 4162 
Q 984 4106 628 3988 
L 628 4550 
Q 988 4650 1302 4700 
Q 1616 4750 1894 4750 
Q 2613 4750 3031 4423 
Q 3450 4097 3450 3541 
Q 3450 3153 3228 2886 
Q 3006 2619 2597 2516 
z
" transform="scale(0.015625)"/>
      </defs>
      <use xlink:href="#DejaVuSans-52"/>
      <use xlink:href="#DejaVuSans-4f" transform="translate(69.482422 0)"/>
      <use xlink:href="#DejaVuSans-43" transform="translate(148.193359 0)"/>
      <use xlink:href="#DejaVuSans-20" transform="translate(218.017578 0)"/>
      <use xlink:href="#DejaVuSans-63" transform="translate(249.804688 0)"/>
      <use xlink:href="#DejaVuSans-75" transform="translate(304.785156 0)"/>
      <use xlink:href="#DejaVuSans-72" transform="translate(368.164062 0)"/>
      <use xlink:href="#DejaVuSans-76" transform="translate(409.277344 0)"/>
      <use xlink:href="#DejaVuSans-65" transform="translate(468.457031 0)"/>
      <use xlink:href="#DejaVuSans-20" transform="translate(529.980469 0)"/>
      <use xlink:href="#DejaVuSans-28" transform="translate(561.767578 0)"/>
      <use xlink:href="#DejaVuSans-41" transform="translate(600.78125 0)"/>
      <use xlink:href="#DejaVuSans-55" transform="translate(669.189453 0)"/>
      <use xlink:href="#DejaVuSans-43" transform="translate(742.382812 0)"/>
      <use xlink:href="#DejaVuSans-20" transform="translate(812.207031 0)"/>
      <use xlink:href="#DejaVuSans-3d" transform="translate(843.994141 0)"/>
      <use xlink:href="#DejaVuSans-20" transform="translate(927.783203 0)"/>
      <use xlink:href="#DejaVuSans-30" transform="translate(959.570312 0)"/>
      <use xlink:href="#DejaVuSans-2e" transform="translate(1023.193359 0)"/>
      <use xlink:href="#DejaVuSans-38" transform="translate(1054.980469 0)"/>
      <use xlink:href="#DejaVuSans-33" transform="translate(1118.603516 0)"/>
      <use xlink:href="#DejaVuSans-29" transform="translate(1182.226562 0)"/>
     </g>
    </g>
    <g id="line2d_28">
     <path d="M 394.21625 370.898437 
L 404.21625 370.898437 
L 414.21625 370.898437 
" style="fill: none; stroke-dasharray: 7.4,3.2; stroke-dashoffset: 0; stroke: #000080; stroke-width: 2"/>
    </g>
    <g id="text_17">
     <!-- Random Classifier -->
     <g transform="translate(422.21625 374.398437) scale(0.1 -0.1)">
      <defs>
       <path id="DejaVuSans-6d" d="M 3328 2828 
Q 3544 3216 3844 3400 
Q 4144 3584 4550 3584 
Q 5097 3584 5394 3201 
Q 5691 2819 5691 2113 
L 5691 0 
L 5113 0 
L 5113 2094 
Q 5113 2597 4934 2840 
Q 4756 3084 4391 3084 
Q 3944 3084 3684 2787 
Q 3425 2491 3425 1978 
L 3425 0 
L 2847 0 
L 2847 2094 
Q 2847 2600 2669 2842 
Q 2491 3084 2119 3084 
Q 1678 3084 1418 2786 
Q 1159 2488 1159 1978 
L 1159 0 
L 581 0 
L 581 3500 
L 1159 3500 
L 1159 2956 
Q 1356 3278 1631 3431 
Q 1906 3584 2284 3584 
Q 2666 3584 2933 3390 
Q 3200 3197 3328 2828 
z
" transform="scale(0.015625)"/>
       <path id="DejaVuSans-66" d="M 2375 4863 
L 2375 4384 
L 1825 4384 
Q 1516 4384 1395 4259 
Q 1275 4134 1275 3809 
L 1275 3500 
L 2222 3500 
L 2222 3053 
L 1275 3053 
L 1275 0 
L 697 0 
L 697 3053 
L 147 3053 
L 147 3500 
L 697 3500 
L 697 3744 
Q 697 4328 969 4595 
Q 1241 4863 1831 4863 
L 2375 4863 
z
" transform="scale(0.015625)"/>
      </defs>
      <use xlink:href="#DejaVuSans-52"/>
      <use xlink:href="#DejaVuSans-61" transform="translate(67.232422 0)"/>
      <use xlink:href="#DejaVuSans-6e" transform="translate(128.511719 0)"/>
      <use xlink:href="#DejaVuSans-64" transform="translate(191.890625 0)"/>
      <use xlink:href="#DejaVuSans-6f" transform="translate(255.367188 0)"/>
      <use xlink:href="#DejaVuSans-6d" transform="translate(316.548828 0)"/>
      <use xlink:href="#DejaVuSans-20" transform="translate(413.960938 0)"/>
      <use xlink:href="#DejaVuSans-43" transform="translate(445.748047 0)"/>
      <use xlink:href="#DejaVuSans-6c" transform="translate(515.572266 0)"/>
      <use xlink:href="#DejaVuSans-61" transform="translate(543.355469 0)"/>
      <use xlink:href="#DejaVuSans-73" transform="translate(604.634766 0)"/>
      <use xlink:href="#DejaVuSans-73" transform="translate(656.734375 0)"/>
      <use xlink:href="#DejaVuSans-69" transform="translate(708.833984 0)"/>
      <use xlink:href="#DejaVuSans-66" transform="translate(736.617188 0)"/>
      <use xlink:href="#DejaVuSans-69" transform="translate(771.822266 0)"/>
      <use xlink:href="#DejaVuSans-65" transform="translate(799.605469 0)"/>
      <use xlink:href="#DejaVuSans-72" transform="translate(861.128906 0)"/>
     </g>
    </g>
   </g>
  </g>
 </g>
 <defs>
  <clipPath id="p29c096db4e">
   <rect x="43.78125" y="22.318125" width="509.56" height="363.16"/>
  </clipPath>
 </defs>
</svg>
