<?xml version="1.0" encoding="utf-8" standalone="no"?>
<!DOCTYPE svg PUBLIC "-//W3C//DTD SVG 1.1//EN"
  "http://www.w3.org/Graphics/SVG/1.1/DTD/svg11.dtd">
<svg xmlns:xlink="http://www.w3.org/1999/xlink" width="856.925625pt" height="351.43625pt" viewBox="0 0 856.925625 351.43625" xmlns="http://www.w3.org/2000/svg" version="1.1">
 <metadata>
  <rdf:RDF xmlns:dc="http://purl.org/dc/elements/1.1/" xmlns:cc="http://creativecommons.org/ns#" xmlns:rdf="http://www.w3.org/1999/02/22-rdf-syntax-ns#">
   <cc:Work>
    <dc:type rdf:resource="http://purl.org/dc/dcmitype/StillImage"/>
    <dc:date>2026-01-22T15:37:24.475409</dc:date>
    <dc:format>image/svg+xml</dc:format>
    <dc:creator>
     <cc:Agent>
      <dc:title>Matplotlib v3.10.7, https://matplotlib.org/</dc:title>
     </cc:Agent>
    </dc:creator>
   </cc:Work>
  </rdf:RDF>
 </metadata>
 <defs>
  <style type="text/css">*{stroke-linejoin: round; stroke-linecap: butt}</style>
 </defs>
 <g id="figure_1">
  <g id="patch_1">
   <path d="M 0 351.43625 
L 856.925625 351.43625 
L 856.925625 0 
L 0 0 
z
" style="fill: #ffffff"/>
  </g>
  <g id="axes_1">
   <g id="patch_2">
    <path d="M 36.465625 327.558125 
L 423.125625 327.558125 
L 423.125625 22.318125 
L 36.465625 22.318125 
z
" style="fill: #ffffff"/>
   </g>
   <g id="matplotlib.axis_1">
    <g id="xtick_1">
     <g id="line2d_1">
      <defs>
       <path id="m82ea1349e4" d="M 0 0 
L 0 3.5 
" style="stroke: #000000; stroke-width: 0.8"/>
      </defs>
      <g>
       <use xlink:href="#m82ea1349e4" x="54.04108" y="327.558125" style="stroke: #000000; stroke-width: 0.8"/>
      </g>
     </g>
     <g id="text_1">
      <!-- 0 -->
      <g transform="translate(50.85983 342.156563) scale(0.1 -0.1)">
       <defs>
        <path id="DejaVuSans-30" d="M 2034 4250 
Q 1547 4250 1301 3770 
Q 1056 3291 1056 2328 
Q 1056 1369 1301 889 
Q 1547 409 2034 409 
Q 2525 409 2770 889 
Q 3016 1369 3016 2328 
Q 3016 3291 2770 3770 
Q 2525 4250 2034 4250 
z
M 2034 4750 
Q 2819 4750 3233 4129 
Q 3647 3509 3647 2328 
Q 3647 1150 3233 529 
Q 2819 -91 2034 -91 
Q 1250 -91 836 529 
Q 422 1150 422 2328 
Q 422 3509 836 4129 
Q 1250 4750 2034 4750 
z
" transform="scale(0.015625)"/>
       </defs>
       <use xlink:href="#DejaVuSans-30"/>
      </g>
     </g>
    </g>
    <g id="xtick_2">
     <g id="line2d_2">
      <g>
       <use xlink:href="#m82ea1349e4" x="101.223508" y="327.558125" style="stroke: #000000; stroke-width: 0.8"/>
      </g>
     </g>
     <g id="text_2">
      <!-- 20 -->
      <g transform="translate(94.861008 342.156563) scale(0.1 -0.1)">
       <defs>
        <path id="DejaVuSans-32" d="M 1228 531 
L 3431 531 
L 3431 0 
L 469 0 
L 469 531 
Q 828 903 1448 1529 
Q 2069 2156 2228 2338 
Q 2531 2678 2651 2914 
Q 2772 3150 2772 3378 
Q 2772 3750 2511 3984 
Q 2250 4219 1831 4219 
Q 1534 4219 1204 4116 
Q 875 4013 500 3803 
L 500 4441 
Q 881 4594 1212 4672 
Q 1544 4750 1819 4750 
Q 2544 4750 2975 4387 
Q 3406 4025 3406 3419 
Q 3406 3131 3298 2873 
Q 3191 2616 2906 2266 
Q 2828 2175 2409 1742 
Q 1991 1309 1228 531 
z
" transform="scale(0.015625)"/>
       </defs>
       <use xlink:href="#DejaVuSans-32"/>
       <use xlink:href="#DejaVuSans-30" transform="translate(63.623047 0)"/>
      </g>
     </g>
    </g>
    <g id="xtick_3">
     <g id="line2d_3">
      <g>
       <use xlink:href="#m82ea1349e4" x="148.405936" y="327.558125" style="stroke: #000000; stroke-width: 0.8"/>
      </g>
     </g>
     <g id="text_3">
      <!-- 40 -->
      <g transform="translate(142.043436 342.156563) scale(0.1 -0.1)">
       <defs>
        <path id="DejaVuSans-34" d="M 2419 4116 
L 825 1625 
L 2419 1625 
L 2419 4116 
z
M 2253 4666 
L 3047 4666 
L 3047 1625 
L 3713 1625 
L 3713 1100 
L 3047 1100 
L 3047 0 
L 2419 0 
L 2419 1100 
L 313 1100 
L 313 1709 
L 2253 4666 
z
" transform="scale(0.015625)"/>
       </defs>
       <use xlink:href="#DejaVuSans-34"/>
       <use xlink:href="#DejaVuSans-30" transform="translate(63.623047 0)"/>
      </g>
     </g>
    </g>
    <g id="xtick_4">
     <g id="line2d_4">
      <g>
       <use xlink:href="#m82ea1349e4" x="195.588364" y="327.558125" style="stroke: #000000; stroke-width: 0.8"/>
      </g>
     </g>
     <g id="text_4">
      <!-- 60 -->
      <g transform="translate(189.225864 342.156563) scale(0.1 -0.1)">
       <defs>
        <path id="DejaVuSans-36" d="M 2113 2584 
Q 1688 2584 1439 2293 
Q 1191 2003 1191 1497 
Q 1191 994 1439 701 
Q 1688 409 2113 409 
Q 2538 409 2786 701 
Q 3034 994 3034 1497 
Q 3034 2003 2786 2293 
Q 2538 2584 2113 2584 
z
M 3366 4563 
L 3366 3988 
Q 3128 4100 2886 4159 
Q 2644 4219 2406 4219 
Q 1781 4219 1451 3797 
Q 1122 3375 1075 2522 
Q 1259 2794 1537 2939 
Q 1816 3084 2150 3084 
Q 2853 3084 3261 2657 
Q 3669 2231 3669 1497 
Q 3669 778 3244 343 
Q 2819 -91 2113 -91 
Q 1303 -91 875 529 
Q 447 1150 447 2328 
Q 447 3434 972 4092 
Q 1497 4750 2381 4750 
Q 2619 4750 2861 4703 
Q 3103 4656 3366 4563 
z
" transform="scale(0.015625)"/>
       </defs>
       <use xlink:href="#DejaVuSans-36"/>
       <use xlink:href="#DejaVuSans-30" transform="translate(63.623047 0)"/>
      </g>
     </g>
    </g>
    <g id="xtick_5">
     <g id="line2d_5">
      <g>
       <use xlink:href="#m82ea1349e4" x="242.770793" y="327.558125" style="stroke: #000000; stroke-width: 0.8"/>
      </g>
     </g>
     <g id="text_5">
      <!-- 80 -->
      <g transform="translate(236.408293 342.156563) scale(0.1 -0.1)">
       <defs>
        <path id="DejaVuSans-38" d="M 2034 2216 
Q 1584 2216 1326 1975 
Q 1069 1734 1069 1313 
Q 1069 891 1326 650 
Q 1584 409 2034 409 
Q 2484 409 2743 651 
Q 3003 894 3003 1313 
Q 3003 1734 2745 1975 
Q 2488 2216 2034 2216 
z
M 1403 2484 
Q 997 2584 770 2862 
Q 544 3141 544 3541 
Q 544 4100 942 4425 
Q 1341 4750 2034 4750 
Q 2731 4750 3128 4425 
Q 3525 4100 3525 3541 
Q 3525 3141 3298 2862 
Q 3072 2584 2669 2484 
Q 3125 2378 3379 2068 
Q 3634 1759 3634 1313 
Q 3634 634 3220 271 
Q 2806 -91 2034 -91 
Q 1263 -91 848 271 
Q 434 634 434 1313 
Q 434 1759 690 2068 
Q 947 2378 1403 2484 
z
M 1172 3481 
Q 1172 3119 1398 2916 
Q 1625 2713 2034 2713 
Q 2441 2713 2670 2916 
Q 2900 3119 2900 3481 
Q 2900 3844 2670 4047 
Q 2441 4250 2034 4250 
Q 1625 4250 1398 4047 
Q 1172 3844 1172 3481 
z
" transform="scale(0.015625)"/>
       </defs>
       <use xlink:href="#DejaVuSans-38"/>
       <use xlink:href="#DejaVuSans-30" transform="translate(63.623047 0)"/>
      </g>
     </g>
    </g>
    <g id="xtick_6">
     <g id="line2d_6">
      <g>
       <use xlink:href="#m82ea1349e4" x="289.953221" y="327.558125" style="stroke: #000000; stroke-width: 0.8"/>
      </g>
     </g>
     <g id="text_6">
      <!-- 100 -->
      <g transform="translate(280.409471 342.156563) scale(0.1 -0.1)">
       <defs>
        <path id="DejaVuSans-31" d="M 794 531 
L 1825 531 
L 1825 4091 
L 703 3866 
L 703 4441 
L 1819 4666 
L 2450 4666 
L 2450 531 
L 3481 531 
L 3481 0 
L 794 0 
L 794 531 
z
" transform="scale(0.015625)"/>
       </defs>
       <use xlink:href="#DejaVuSans-31"/>
       <use xlink:href="#DejaVuSans-30" transform="translate(63.623047 0)"/>
       <use xlink:href="#DejaVuSans-30" transform="translate(127.246094 0)"/>
      </g>
     </g>
    </g>
    <g id="xtick_7">
     <g id="line2d_7">
      <g>
       <use xlink:href="#m82ea1349e4" x="337.135649" y="327.558125" style="stroke: #000000; stroke-width: 0.8"/>
      </g>
     </g>
     <g id="text_7">
      <!-- 120 -->
      <g transform="translate(327.591899 342.156563) scale(0.1 -0.1)">
       <use xlink:href="#DejaVuSans-31"/>
       <use xlink:href="#DejaVuSans-32" transform="translate(63.623047 0)"/>
       <use xlink:href="#DejaVuSans-30" transform="translate(127.246094 0)"/>
      </g>
     </g>
    </g>
    <g id="xtick_8">
     <g id="line2d_8">
      <g>
       <use xlink:href="#m82ea1349e4" x="384.318078" y="327.558125" style="stroke: #000000; stroke-width: 0.8"/>
      </g>
     </g>
     <g id="text_8">
      <!-- 140 -->
      <g transform="translate(374.774328 342.156563) scale(0.1 -0.1)">
       <use xlink:href="#DejaVuSans-31"/>
       <use xlink:href="#DejaVuSans-34" transform="translate(63.623047 0)"/>
       <use xlink:href="#DejaVuSans-30" transform="translate(127.246094 0)"/>
      </g>
     </g>
    </g>
   </g>
   <g id="matplotlib.axis_2">
    <g id="ytick_1">
     <g id="line2d_9">
      <defs>
       <path id="mc9100b6cc6" d="M 0 0 
L -3.5 0 
" style="stroke: #000000; stroke-width: 0.8"/>
      </defs>
      <g>
       <use xlink:href="#mc9100b6cc6" x="36.465625" y="283.874849" style="stroke: #000000; stroke-width: 0.8"/>
      </g>
     </g>
     <g id="text_9">
      <!-- 0.54 -->
      <g transform="translate(7.2 287.674067) scale(0.1 -0.1)">
       <defs>
        <path id="DejaVuSans-2e" d="M 684 794 
L 1344 794 
L 1344 0 
L 684 0 
L 684 794 
z
" transform="scale(0.015625)"/>
        <path id="DejaVuSans-35" d="M 691 4666 
L 3169 4666 
L 3169 4134 
L 1269 4134 
L 1269 2991 
Q 1406 3038 1543 3061 
Q 1681 3084 1819 3084 
Q 2600 3084 3056 2656 
Q 3513 2228 3513 1497 
Q 3513 744 3044 326 
Q 2575 -91 1722 -91 
Q 1428 -91 1123 -41 
Q 819 9 494 109 
L 494 744 
Q 775 591 1075 516 
Q 1375 441 1709 441 
Q 2250 441 2565 725 
Q 2881 1009 2881 1497 
Q 2881 1984 2565 2268 
Q 2250 2553 1709 2553 
Q 1456 2553 1204 2497 
Q 953 2441 691 2322 
L 691 4666 
z
" transform="scale(0.015625)"/>
       </defs>
       <use xlink:href="#DejaVuSans-30"/>
       <use xlink:href="#DejaVuSans-2e" transform="translate(63.623047 0)"/>
       <use xlink:href="#DejaVuSans-35" transform="translate(95.410156 0)"/>
       <use xlink:href="#DejaVuSans-34" transform="translate(159.033203 0)"/>
      </g>
     </g>
    </g>
    <g id="ytick_2">
     <g id="line2d_10">
      <g>
       <use xlink:href="#mc9100b6cc6" x="36.465625" y="234.119165" style="stroke: #000000; stroke-width: 0.8"/>
      </g>
     </g>
     <g id="text_10">
      <!-- 0.55 -->
      <g transform="translate(7.2 237.918383) scale(0.1 -0.1)">
       <use xlink:href="#DejaVuSans-30"/>
       <use xlink:href="#DejaVuSans-2e" transform="translate(63.623047 0)"/>
       <use xlink:href="#DejaVuSans-35" transform="translate(95.410156 0)"/>
       <use xlink:href="#DejaVuSans-35" transform="translate(159.033203 0)"/>
      </g>
     </g>
    </g>
    <g id="ytick_3">
     <g id="line2d_11">
      <g>
       <use xlink:href="#mc9100b6cc6" x="36.465625" y="184.363481" style="stroke: #000000; stroke-width: 0.8"/>
      </g>
     </g>
     <g id="text_11">
      <!-- 0.56 -->
      <g transform="translate(7.2 188.162699) scale(0.1 -0.1)">
       <use xlink:href="#DejaVuSans-30"/>
       <use xlink:href="#DejaVuSans-2e" transform="translate(63.623047 0)"/>
       <use xlink:href="#DejaVuSans-35" transform="translate(95.410156 0)"/>
       <use xlink:href="#DejaVuSans-36" transform="translate(159.033203 0)"/>
      </g>
     </g>
    </g>
    <g id="ytick_4">
     <g id="line2d_12">
      <g>
       <use xlink:href="#mc9100b6cc6" x="36.465625" y="134.607797" style="stroke: #000000; stroke-width: 0.8"/>
      </g>
     </g>
     <g id="text_12">
      <!-- 0.57 -->
      <g transform="translate(7.2 138.407015) scale(0.1 -0.1)">
       <defs>
        <path id="DejaVuSans-37" d="M 525 4666 
L 3525 4666 
L 3525 4397 
L 1831 0 
L 1172 0 
L 2766 4134 
L 525 4134 
L 525 4666 
z
" transform="scale(0.015625)"/>
       </defs>
       <use xlink:href="#DejaVuSans-30"/>
       <use xlink:href="#DejaVuSans-2e" transform="translate(63.623047 0)"/>
       <use xlink:href="#DejaVuSans-35" transform="translate(95.410156 0)"/>
       <use xlink:href="#DejaVuSans-37" transform="translate(159.033203 0)"/>
      </g>
     </g>
    </g>
    <g id="ytick_5">
     <g id="line2d_13">
      <g>
       <use xlink:href="#mc9100b6cc6" x="36.465625" y="84.852112" style="stroke: #000000; stroke-width: 0.8"/>
      </g>
     </g>
     <g id="text_13">
      <!-- 0.58 -->
      <g transform="translate(7.2 88.651331) scale(0.1 -0.1)">
       <use xlink:href="#DejaVuSans-30"/>
       <use xlink:href="#DejaVuSans-2e" transform="translate(63.623047 0)"/>
       <use xlink:href="#DejaVuSans-35" transform="translate(95.410156 0)"/>
       <use xlink:href="#DejaVuSans-38" transform="translate(159.033203 0)"/>
      </g>
     </g>
    </g>
    <g id="ytick_6">
     <g id="line2d_14">
      <g>
       <use xlink:href="#mc9100b6cc6" x="36.465625" y="35.096428" style="stroke: #000000; stroke-width: 0.8"/>
      </g>
     </g>
     <g id="text_14">
      <!-- 0.59 -->
      <g transform="translate(7.2 38.895647) scale(0.1 -0.1)">
       <defs>
        <path id="DejaVuSans-39" d="M 703 97 
L 703 672 
Q 941 559 1184 500 
Q 1428 441 1663 441 
Q 2288 441 2617 861 
Q 2947 1281 2994 2138 
Q 2813 1869 2534 1725 
Q 2256 1581 1919 1581 
Q 1219 1581 811 2004 
Q 403 2428 403 3163 
Q 403 3881 828 4315 
Q 1253 4750 1959 4750 
Q 2769 4750 3195 4129 
Q 3622 3509 3622 2328 
Q 3622 1225 3098 567 
Q 2575 -91 1691 -91 
Q 1453 -91 1209 -44 
Q 966 3 703 97 
z
M 1959 2075 
Q 2384 2075 2632 2365 
Q 2881 2656 2881 3163 
Q 2881 3666 2632 3958 
Q 2384 4250 1959 4250 
Q 1534 4250 1286 3958 
Q 1038 3666 1038 3163 
Q 1038 2656 1286 2365 
Q 1534 2075 1959 2075 
z
" transform="scale(0.015625)"/>
       </defs>
       <use xlink:href="#DejaVuSans-30"/>
       <use xlink:href="#DejaVuSans-2e" transform="translate(63.623047 0)"/>
       <use xlink:href="#DejaVuSans-35" transform="translate(95.410156 0)"/>
       <use xlink:href="#DejaVuSans-39" transform="translate(159.033203 0)"/>
      </g>
     </g>
    </g>
   </g>
   <g id="line2d_15">
    <path d="M 54.04108 36.19267 
L 56.400201 151.266593 
L 61.118444 186.039665 
L 63.477565 194.588802 
L 65.836687 206.531851 
L 68.195808 208.992467 
L 70.554929 211.761513 
L 72.914051 221.504925 
L 75.273172 222.190291 
L 77.632294 225.481295 
L 79.991415 223.086813 
L 82.350537 222.174573 
L 84.709658 229.740294 
L 87.068779 231.142166 
L 89.427901 237.817296 
L 91.787022 228.756284 
L 94.146144 239.395329 
L 96.505265 234.886028 
L 98.864386 233.662096 
L 101.223508 238.496434 
L 103.582629 237.595464 
L 105.941751 243.161136 
L 108.300872 243.479056 
L 110.659994 239.663129 
L 113.019115 240.967134 
L 115.378236 245.196179 
L 117.737358 243.781258 
L 120.096479 244.307071 
L 122.455601 248.154435 
L 124.814722 247.637815 
L 127.173843 256.495974 
L 129.532965 253.001229 
L 131.892086 255.804083 
L 134.251208 249.381332 
L 136.610329 251.405105 
L 138.969451 251.503862 
L 141.328572 252.601457 
L 143.687693 255.839375 
L 146.046815 256.383872 
L 148.405936 258.818094 
L 150.765058 260.350455 
L 153.124179 256.821308 
L 155.4833 257.447658 
L 157.842422 260.625076 
L 160.201543 262.043556 
L 162.560665 264.462653 
L 164.919786 258.528941 
L 167.278907 262.242849 
L 169.638029 261.102549 
L 171.99715 265.175897 
L 174.356272 265.934812 
L 176.715393 258.899057 
L 179.074515 264.330977 
L 181.433636 265.705269 
L 183.792757 266.052845 
L 186.151879 260.501705 
L 188.511 272.378619 
L 190.870122 267.076298 
L 193.229243 269.704771 
L 195.588364 276.272247 
L 197.947486 272.312485 
L 200.306607 270.280111 
L 202.665729 268.684581 
L 205.02485 270.717844 
L 207.383972 277.229862 
L 209.743093 271.455406 
L 212.102214 272.166277 
L 214.461336 275.294762 
L 216.820457 275.857053 
L 219.179579 278.514294 
L 221.5387 275.581246 
L 223.897821 280.774727 
L 226.256943 277.878454 
L 228.616064 279.722804 
L 230.975186 280.358051 
L 233.334307 279.067984 
L 235.693429 277.047473 
L 238.05255 282.707751 
L 240.411671 278.180063 
L 242.770793 280.450283 
L 245.129914 282.17482 
L 247.489036 285.484804 
L 249.848157 277.777621 
L 252.207278 284.072256 
L 254.5664 281.521483 
L 256.925521 287.654192 
L 259.284643 284.872393 
L 261.643764 285.838015 
L 266.362007 288.177039 
L 268.721128 288.078282 
L 271.08025 282.833792 
L 273.439371 290.609482 
L 275.798493 285.085922 
L 278.157614 289.259212 
L 280.516735 287.961435 
L 282.875857 292.964224 
L 285.234978 294.996004 
L 287.5941 287.960545 
L 289.953221 293.757837 
L 292.312343 297.979171 
L 294.671464 294.705961 
L 297.030585 292.095579 
L 299.389707 293.420047 
L 301.748828 284.096574 
L 304.10795 296.282808 
L 306.467071 296.293485 
L 308.826192 296.716389 
L 311.185314 294.929573 
L 313.544435 293.829013 
L 315.903557 295.671287 
L 318.262678 298.447154 
L 320.621799 290.18895 
L 322.980921 300.797744 
L 325.340042 301.378126 
L 327.699164 302.886762 
L 330.058285 300.297435 
L 332.417407 295.274184 
L 334.776528 292.811788 
L 337.135649 294.901103 
L 339.494771 302.143268 
L 341.853892 296.272725 
L 344.213014 304.913797 
L 346.572135 304.720435 
L 348.931256 298.464355 
L 351.290378 304.531819 
L 353.649499 303.388553 
L 356.008621 310.666307 
L 358.367742 304.625831 
L 360.726864 302.789488 
L 363.085985 309.138987 
L 365.445106 302.541558 
L 367.804228 298.340983 
L 370.163349 306.602746 
L 372.522471 305.082544 
L 374.881592 300.774908 
L 377.240713 313.389385 
L 379.599835 305.320391 
L 381.958956 306.269701 
L 384.318078 311.04532 
L 386.677199 312.291494 
L 389.036321 305.299334 
L 391.395442 312.149142 
L 393.754563 310.317544 
L 396.113685 313.68358 
L 398.472806 309.483301 
L 400.831928 309.844223 
L 403.191049 313.247033 
L 405.55017 310.725324 
L 405.55017 310.725324 
" clip-path="url(#pbd1e290c32)" style="fill: none; stroke: #1f77b4; stroke-width: 1.5; stroke-linecap: square"/>
   </g>
   <g id="line2d_16">
    <path d="M 54.04108 233.420097 
L 56.400201 258.257879 
L 58.759322 276.442773 
L 61.118444 253.648041 
L 63.477565 283.152008 
L 65.836687 279.097344 
L 68.195808 275.573832 
L 70.554929 275.607344 
L 72.914051 281.017912 
L 75.273172 285.562208 
L 77.632294 283.795855 
L 79.991415 271.155874 
L 82.350537 266.527056 
L 84.709658 285.121213 
L 87.068779 291.153979 
L 91.787022 288.565839 
L 94.146144 283.09744 
L 96.505265 280.850945 
L 98.864386 289.086017 
L 101.223508 296.054748 
L 103.582629 287.397958 
L 105.941751 286.533168 
L 108.300872 289.042422 
L 110.659994 286.622435 
L 113.019115 291.783887 
L 115.378236 289.521377 
L 117.737358 286.275155 
L 120.096479 280.476084 
L 124.814722 290.838135 
L 127.173843 293.637727 
L 129.532965 294.382407 
L 131.892086 293.224016 
L 134.251208 287.501163 
L 136.610329 289.375763 
L 138.969451 279.300493 
L 141.328572 294.357495 
L 143.687693 282.39161 
L 146.046815 289.914625 
L 148.405936 289.189815 
L 150.765058 291.696103 
L 153.124179 289.846118 
L 155.4833 285.627453 
L 157.842422 290.560845 
L 160.201543 286.651499 
L 162.560665 292.721335 
L 164.919786 287.048009 
L 167.278907 282.791976 
L 169.638029 280.601829 
L 171.99715 282.493629 
L 174.356272 275.335392 
L 176.715393 288.034984 
L 179.074515 289.171725 
L 181.433636 283.870887 
L 183.792757 291.512528 
L 186.151879 285.759129 
L 188.511 287.397958 
L 190.870122 280.455325 
L 193.229243 288.526099 
L 195.588364 278.703503 
L 197.947486 290.773187 
L 200.306607 287.574712 
L 202.665729 286.616207 
L 205.02485 281.660573 
L 207.383972 284.664796 
L 209.743093 281.613122 
L 212.102214 284.41479 
L 214.461336 278.640631 
L 216.820457 283.383924 
L 219.179579 276.013344 
L 221.5387 274.094852 
L 223.897821 282.180751 
L 226.256943 283.062742 
L 228.616064 280.265522 
L 230.975186 280.382369 
L 233.334307 276.711463 
L 235.693429 278.988801 
L 238.05255 271.043178 
L 240.411671 279.94345 
L 242.770793 275.792698 
L 245.129914 270.267359 
L 247.489036 275.922002 
L 249.848157 277.263967 
L 252.207278 264.547471 
L 254.5664 271.165067 
L 256.925521 277.205544 
L 259.284643 279.514318 
L 261.643764 275.615055 
L 264.002886 276.077699 
L 266.362007 279.508683 
L 268.721128 279.838169 
L 271.08025 272.542621 
L 273.439371 274.321133 
L 275.798493 274.018635 
L 278.157614 270.967257 
L 280.516735 280.049324 
L 282.875857 272.136917 
L 285.234978 277.732246 
L 287.5941 267.954729 
L 289.953221 277.710004 
L 292.312343 269.459807 
L 294.671464 272.563677 
L 297.030585 269.702695 
L 299.389707 276.474209 
L 301.748828 272.601934 
L 304.10795 273.390802 
L 306.467071 275.242567 
L 308.826192 273.363518 
L 311.185314 278.477519 
L 313.544435 278.283268 
L 315.903557 281.721369 
L 318.262678 282.011708 
L 320.621799 276.456415 
L 322.980921 272.518006 
L 325.340042 276.385536 
L 327.699164 272.206314 
L 330.058285 272.191782 
L 332.417407 269.394266 
L 334.776528 274.583595 
L 337.135649 272.42518 
L 339.494771 270.527745 
L 341.853892 273.052716 
L 344.213014 270.829353 
L 346.572135 276.371301 
L 348.931256 269.712482 
L 351.290378 273.0023 
L 353.649499 267.537163 
L 356.008621 266.945809 
L 358.367742 271.717868 
L 360.726864 273.307467 
L 363.085985 272.441788 
L 365.445106 274.900328 
L 367.804228 272.281938 
L 370.163349 267.158151 
L 372.522471 273.878062 
L 377.240713 268.929545 
L 379.599835 264.667284 
L 381.958956 263.069678 
L 384.318078 268.86608 
L 386.677199 264.490234 
L 389.036321 264.596108 
L 391.395442 262.139051 
L 393.754563 262.936223 
L 396.113685 265.433614 
L 398.472806 261.870658 
L 400.831928 266.196087 
L 403.191049 261.703691 
L 405.55017 261.813717 
L 405.55017 261.813717 
" clip-path="url(#pbd1e290c32)" style="fill: none; stroke: #ff7f0e; stroke-width: 1.5; stroke-linecap: square"/>
   </g>
   <g id="patch_3">
    <path d="M 36.465625 327.558125 
L 36.465625 22.318125 
" style="fill: none; stroke: #000000; stroke-width: 0.8; stroke-linejoin: miter; stroke-linecap: square"/>
   </g>
   <g id="patch_4">
    <path d="M 423.125625 327.558125 
L 423.125625 22.318125 
" style="fill: none; stroke: #000000; stroke-width: 0.8; stroke-linejoin: miter; stroke-linecap: square"/>
   </g>
   <g id="patch_5">
    <path d="M 36.465625 327.558125 
L 423.125625 327.558125 
" style="fill: none; stroke: #000000; stroke-width: 0.8; stroke-linejoin: miter; stroke-linecap: square"/>
   </g>
   <g id="patch_6">
    <path d="M 36.465625 22.318125 
L 423.125625 22.318125 
" style="fill: none; stroke: #000000; stroke-width: 0.8; stroke-linejoin: miter; stroke-linecap: square"/>
   </g>
   <g id="text_15">
    <!-- Model Loss (NN - Standard - No PCA) -->
    <g transform="translate(119.913125 16.318125) scale(0.12 -0.12)">
     <defs>
      <path id="DejaVuSans-4d" d="M 628 4666 
L 1569 4666 
L 2759 1491 
L 3956 4666 
L 4897 4666 
L 4897 0 
L 4281 0 
L 4281 4097 
L 3078 897 
L 2444 897 
L 1241 4097 
L 1241 0 
L 628 0 
L 628 4666 
z
" transform="scale(0.015625)"/>
      <path id="DejaVuSans-6f" d="M 1959 3097 
Q 1497 3097 1228 2736 
Q 959 2375 959 1747 
Q 959 1119 1226 758 
Q 1494 397 1959 397 
Q 2419 397 2687 759 
Q 2956 1122 2956 1747 
Q 2956 2369 2687 2733 
Q 2419 3097 1959 3097 
z
M 1959 3584 
Q 2709 3584 3137 3096 
Q 3566 2609 3566 1747 
Q 3566 888 3137 398 
Q 2709 -91 1959 -91 
Q 1206 -91 779 398 
Q 353 888 353 1747 
Q 353 2609 779 3096 
Q 1206 3584 1959 3584 
z
" transform="scale(0.015625)"/>
      <path id="DejaVuSans-64" d="M 2906 2969 
L 2906 4863 
L 3481 4863 
L 3481 0 
L 2906 0 
L 2906 525 
Q 2725 213 2448 61 
Q 2172 -91 1784 -91 
Q 1150 -91 751 415 
Q 353 922 353 1747 
Q 353 2572 751 3078 
Q 1150 3584 1784 3584 
Q 2172 3584 2448 3432 
Q 2725 3281 2906 2969 
z
M 947 1747 
Q 947 1113 1208 752 
Q 1469 391 1925 391 
Q 2381 391 2643 752 
Q 2906 1113 2906 1747 
Q 2906 2381 2643 2742 
Q 2381 3103 1925 3103 
Q 1469 3103 1208 2742 
Q 947 2381 947 1747 
z
" transform="scale(0.015625)"/>
      <path id="DejaVuSans-65" d="M 3597 1894 
L 3597 1613 
L 953 1613 
Q 991 1019 1311 708 
Q 1631 397 2203 397 
Q 2534 397 2845 478 
Q 3156 559 3463 722 
L 3463 178 
Q 3153 47 2828 -22 
Q 2503 -91 2169 -91 
Q 1331 -91 842 396 
Q 353 884 353 1716 
Q 353 2575 817 3079 
Q 1281 3584 2069 3584 
Q 2775 3584 3186 3129 
Q 3597 2675 3597 1894 
z
M 3022 2063 
Q 3016 2534 2758 2815 
Q 2500 3097 2075 3097 
Q 1594 3097 1305 2825 
Q 1016 2553 972 2059 
L 3022 2063 
z
" transform="scale(0.015625)"/>
      <path id="DejaVuSans-6c" d="M 603 4863 
L 1178 4863 
L 1178 0 
L 603 0 
L 603 4863 
z
" transform="scale(0.015625)"/>
      <path id="DejaVuSans-20" transform="scale(0.015625)"/>
      <path id="DejaVuSans-4c" d="M 628 4666 
L 1259 4666 
L 1259 531 
L 3531 531 
L 3531 0 
L 628 0 
L 628 4666 
z
" transform="scale(0.015625)"/>
      <path id="DejaVuSans-73" d="M 2834 3397 
L 2834 2853 
Q 2591 2978 2328 3040 
Q 2066 3103 1784 3103 
Q 1356 3103 1142 2972 
Q 928 2841 928 2578 
Q 928 2378 1081 2264 
Q 1234 2150 1697 2047 
L 1894 2003 
Q 2506 1872 2764 1633 
Q 3022 1394 3022 966 
Q 3022 478 2636 193 
Q 2250 -91 1575 -91 
Q 1294 -91 989 -36 
Q 684 19 347 128 
L 347 722 
Q 666 556 975 473 
Q 1284 391 1588 391 
Q 1994 391 2212 530 
Q 2431 669 2431 922 
Q 2431 1156 2273 1281 
Q 2116 1406 1581 1522 
L 1381 1569 
Q 847 1681 609 1914 
Q 372 2147 372 2553 
Q 372 3047 722 3315 
Q 1072 3584 1716 3584 
Q 2034 3584 2315 3537 
Q 2597 3491 2834 3397 
z
" transform="scale(0.015625)"/>
      <path id="DejaVuSans-28" d="M 1984 4856 
Q 1566 4138 1362 3434 
Q 1159 2731 1159 2009 
Q 1159 1288 1364 580 
Q 1569 -128 1984 -844 
L 1484 -844 
Q 1016 -109 783 600 
Q 550 1309 550 2009 
Q 550 2706 781 3412 
Q 1013 4119 1484 4856 
L 1984 4856 
z
" transform="scale(0.015625)"/>
      <path id="DejaVuSans-4e" d="M 628 4666 
L 1478 4666 
L 3547 763 
L 3547 4666 
L 4159 4666 
L 4159 0 
L 3309 0 
L 1241 3903 
L 1241 0 
L 628 0 
L 628 4666 
z
" transform="scale(0.015625)"/>
      <path id="DejaVuSans-2d" d="M 313 2009 
L 1997 2009 
L 1997 1497 
L 313 1497 
L 313 2009 
z
" transform="scale(0.015625)"/>
      <path id="DejaVuSans-53" d="M 3425 4513 
L 3425 3897 
Q 3066 4069 2747 4153 
Q 2428 4238 2131 4238 
Q 1616 4238 1336 4038 
Q 1056 3838 1056 3469 
Q 1056 3159 1242 3001 
Q 1428 2844 1947 2747 
L 2328 2669 
Q 3034 2534 3370 2195 
Q 3706 1856 3706 1288 
Q 3706 609 3251 259 
Q 2797 -91 1919 -91 
Q 1588 -91 1214 -16 
Q 841 59 441 206 
L 441 856 
Q 825 641 1194 531 
Q 1563 422 1919 422 
Q 2459 422 2753 634 
Q 3047 847 3047 1241 
Q 3047 1584 2836 1778 
Q 2625 1972 2144 2069 
L 1759 2144 
Q 1053 2284 737 2584 
Q 422 2884 422 3419 
Q 422 4038 858 4394 
Q 1294 4750 2059 4750 
Q 2388 4750 2728 4690 
Q 3069 4631 3425 4513 
z
" transform="scale(0.015625)"/>
      <path id="DejaVuSans-74" d="M 1172 4494 
L 1172 3500 
L 2356 3500 
L 2356 3053 
L 1172 3053 
L 1172 1153 
Q 1172 725 1289 603 
Q 1406 481 1766 481 
L 2356 481 
L 2356 0 
L 1766 0 
Q 1100 0 847 248 
Q 594 497 594 1153 
L 594 3053 
L 172 3053 
L 172 3500 
L 594 3500 
L 594 4494 
L 1172 4494 
z
" transform="scale(0.015625)"/>
      <path id="DejaVuSans-61" d="M 2194 1759 
Q 1497 1759 1228 1600 
Q 959 1441 959 1056 
Q 959 750 1161 570 
Q 1363 391 1709 391 
Q 2188 391 2477 730 
Q 2766 1069 2766 1631 
L 2766 1759 
L 2194 1759 
z
M 3341 1997 
L 3341 0 
L 2766 0 
L 2766 531 
Q 2569 213 2275 61 
Q 1981 -91 1556 -91 
Q 1019 -91 701 211 
Q 384 513 384 1019 
Q 384 1609 779 1909 
Q 1175 2209 1959 2209 
L 2766 2209 
L 2766 2266 
Q 2766 2663 2505 2880 
Q 2244 3097 1772 3097 
Q 1472 3097 1187 3025 
Q 903 2953 641 2809 
L 641 3341 
Q 956 3463 1253 3523 
Q 1550 3584 1831 3584 
Q 2591 3584 2966 3190 
Q 3341 2797 3341 1997 
z
" transform="scale(0.015625)"/>
      <path id="DejaVuSans-6e" d="M 3513 2113 
L 3513 0 
L 2938 0 
L 2938 2094 
Q 2938 2591 2744 2837 
Q 2550 3084 2163 3084 
Q 1697 3084 1428 2787 
Q 1159 2491 1159 1978 
L 1159 0 
L 581 0 
L 581 3500 
L 1159 3500 
L 1159 2956 
Q 1366 3272 1645 3428 
Q 1925 3584 2291 3584 
Q 2894 3584 3203 3211 
Q 3513 2838 3513 2113 
z
" transform="scale(0.015625)"/>
      <path id="DejaVuSans-72" d="M 2631 2963 
Q 2534 3019 2420 3045 
Q 2306 3072 2169 3072 
Q 1681 3072 1420 2755 
Q 1159 2438 1159 1844 
L 1159 0 
L 581 0 
L 581 3500 
L 1159 3500 
L 1159 2956 
Q 1341 3275 1631 3429 
Q 1922 3584 2338 3584 
Q 2397 3584 2469 3576 
Q 2541 3569 2628 3553 
L 2631 2963 
z
" transform="scale(0.015625)"/>
      <path id="DejaVuSans-50" d="M 1259 4147 
L 1259 2394 
L 2053 2394 
Q 2494 2394 2734 2622 
Q 2975 2850 2975 3272 
Q 2975 3691 2734 3919 
Q 2494 4147 2053 4147 
L 1259 4147 
z
M 628 4666 
L 2053 4666 
Q 2838 4666 3239 4311 
Q 3641 3956 3641 3272 
Q 3641 2581 3239 2228 
Q 2838 1875 2053 1875 
L 1259 1875 
L 1259 0 
L 628 0 
L 628 4666 
z
" transform="scale(0.015625)"/>
      <path id="DejaVuSans-43" d="M 4122 4306 
L 4122 3641 
Q 3803 3938 3442 4084 
Q 3081 4231 2675 4231 
Q 1875 4231 1450 3742 
Q 1025 3253 1025 2328 
Q 1025 1406 1450 917 
Q 1875 428 2675 428 
Q 3081 428 3442 575 
Q 3803 722 4122 1019 
L 4122 359 
Q 3791 134 3420 21 
Q 3050 -91 2638 -91 
Q 1578 -91 968 557 
Q 359 1206 359 2328 
Q 359 3453 968 4101 
Q 1578 4750 2638 4750 
Q 3056 4750 3426 4639 
Q 3797 4528 4122 4306 
z
" transform="scale(0.015625)"/>
      <path id="DejaVuSans-41" d="M 2188 4044 
L 1331 1722 
L 3047 1722 
L 2188 4044 
z
M 1831 4666 
L 2547 4666 
L 4325 0 
L 3669 0 
L 3244 1197 
L 1141 1197 
L 716 0 
L 50 0 
L 1831 4666 
z
" transform="scale(0.015625)"/>
      <path id="DejaVuSans-29" d="M 513 4856 
L 1013 4856 
Q 1481 4119 1714 3412 
Q 1947 2706 1947 2009 
Q 1947 1309 1714 600 
Q 1481 -109 1013 -844 
L 513 -844 
Q 928 -128 1133 580 
Q 1338 1288 1338 2009 
Q 1338 2731 1133 3434 
Q 928 4138 513 4856 
z
" transform="scale(0.015625)"/>
     </defs>
     <use xlink:href="#DejaVuSans-4d"/>
     <use xlink:href="#DejaVuSans-6f" transform="translate(86.279297 0)"/>
     <use xlink:href="#DejaVuSans-64" transform="translate(147.460938 0)"/>
     <use xlink:href="#DejaVuSans-65" transform="translate(210.9375 0)"/>
     <use xlink:href="#DejaVuSans-6c" transform="translate(272.460938 0)"/>
     <use xlink:href="#DejaVuSans-20" transform="translate(300.244141 0)"/>
     <use xlink:href="#DejaVuSans-4c" transform="translate(332.03125 0)"/>
     <use xlink:href="#DejaVuSans-6f" transform="translate(385.994141 0)"/>
     <use xlink:href="#DejaVuSans-73" transform="translate(447.175781 0)"/>
     <use xlink:href="#DejaVuSans-73" transform="translate(499.275391 0)"/>
     <use xlink:href="#DejaVuSans-20" transform="translate(551.375 0)"/>
     <use xlink:href="#DejaVuSans-28" transform="translate(583.162109 0)"/>
     <use xlink:href="#DejaVuSans-4e" transform="translate(622.175781 0)"/>
     <use xlink:href="#DejaVuSans-4e" transform="translate(696.980469 0)"/>
     <use xlink:href="#DejaVuSans-20" transform="translate(771.785156 0)"/>
     <use xlink:href="#DejaVuSans-2d" transform="translate(803.572266 0)"/>
     <use xlink:href="#DejaVuSans-20" transform="translate(839.65625 0)"/>
     <use xlink:href="#DejaVuSans-53" transform="translate(871.443359 0)"/>
     <use xlink:href="#DejaVuSans-74" transform="translate(934.919922 0)"/>
     <use xlink:href="#DejaVuSans-61" transform="translate(974.128906 0)"/>
     <use xlink:href="#DejaVuSans-6e" transform="translate(1035.408203 0)"/>
     <use xlink:href="#DejaVuSans-64" transform="translate(1098.787109 0)"/>
     <use xlink:href="#DejaVuSans-61" transform="translate(1162.263672 0)"/>
     <use xlink:href="#DejaVuSans-72" transform="translate(1223.542969 0)"/>
     <use xlink:href="#DejaVuSans-64" transform="translate(1262.90625 0)"/>
     <use xlink:href="#DejaVuSans-20" transform="translate(1326.382812 0)"/>
     <use xlink:href="#DejaVuSans-2d" transform="translate(1358.169922 0)"/>
     <use xlink:href="#DejaVuSans-20" transform="translate(1394.253906 0)"/>
     <use xlink:href="#DejaVuSans-4e" transform="translate(1426.041016 0)"/>
     <use xlink:href="#DejaVuSans-6f" transform="translate(1500.845703 0)"/>
     <use xlink:href="#DejaVuSans-20" transform="translate(1562.027344 0)"/>
     <use xlink:href="#DejaVuSans-50" transform="translate(1593.814453 0)"/>
     <use xlink:href="#DejaVuSans-43" transform="translate(1654.117188 0)"/>
     <use xlink:href="#DejaVuSans-41" transform="translate(1723.941406 0)"/>
     <use xlink:href="#DejaVuSans-29" transform="translate(1792.349609 0)"/>
    </g>
   </g>
   <g id="legend_1">
    <g id="patch_7">
     <path d="M 335.025625 59.674375 
L 416.125625 59.674375 
Q 418.125625 59.674375 418.125625 57.674375 
L 418.125625 29.318125 
Q 418.125625 27.318125 416.125625 27.318125 
L 335.025625 27.318125 
Q 333.025625 27.318125 333.025625 29.318125 
L 333.025625 57.674375 
Q 333.025625 59.674375 335.025625 59.674375 
z
" style="fill: #ffffff; opacity: 0.8; stroke: #cccccc; stroke-linejoin: miter"/>
    </g>
    <g id="line2d_17">
     <path d="M 337.025625 35.416562 
L 347.025625 35.416562 
L 357.025625 35.416562 
" style="fill: none; stroke: #1f77b4; stroke-width: 1.5; stroke-linecap: square"/>
    </g>
    <g id="text_16">
     <!-- Train Loss -->
     <g transform="translate(365.025625 38.916562) scale(0.1 -0.1)">
      <defs>
       <path id="DejaVuSans-54" d="M -19 4666 
L 3928 4666 
L 3928 4134 
L 2272 4134 
L 2272 0 
L 1638 0 
L 1638 4134 
L -19 4134 
L -19 4666 
z
" transform="scale(0.015625)"/>
       <path id="DejaVuSans-69" d="M 603 3500 
L 1178 3500 
L 1178 0 
L 603 0 
L 603 3500 
z
M 603 4863 
L 1178 4863 
L 1178 4134 
L 603 4134 
L 603 4863 
z
" transform="scale(0.015625)"/>
      </defs>
      <use xlink:href="#DejaVuSans-54"/>
      <use xlink:href="#DejaVuSans-72" transform="translate(46.333984 0)"/>
      <use xlink:href="#DejaVuSans-61" transform="translate(87.447266 0)"/>
      <use xlink:href="#DejaVuSans-69" transform="translate(148.726562 0)"/>
      <use xlink:href="#DejaVuSans-6e" transform="translate(176.509766 0)"/>
      <use xlink:href="#DejaVuSans-20" transform="translate(239.888672 0)"/>
      <use xlink:href="#DejaVuSans-4c" transform="translate(271.675781 0)"/>
      <use xlink:href="#DejaVuSans-6f" transform="translate(325.638672 0)"/>
      <use xlink:href="#DejaVuSans-73" transform="translate(386.820312 0)"/>
      <use xlink:href="#DejaVuSans-73" transform="translate(438.919922 0)"/>
     </g>
    </g>
    <g id="line2d_18">
     <path d="M 337.025625 50.094688 
L 347.025625 50.094688 
L 357.025625 50.094688 
" style="fill: none; stroke: #ff7f0e; stroke-width: 1.5; stroke-linecap: square"/>
    </g>
    <g id="text_17">
     <!-- Val Loss -->
     <g transform="translate(365.025625 53.594688) scale(0.1 -0.1)">
      <defs>
       <path id="DejaVuSans-56" d="M 1831 0 
L 50 4666 
L 709 4666 
L 2188 738 
L 3669 4666 
L 4325 4666 
L 2547 0 
L 1831 0 
z
" transform="scale(0.015625)"/>
      </defs>
      <use xlink:href="#DejaVuSans-56"/>
      <use xlink:href="#DejaVuSans-61" transform="translate(60.658203 0)"/>
      <use xlink:href="#DejaVuSans-6c" transform="translate(121.9375 0)"/>
      <use xlink:href="#DejaVuSans-20" transform="translate(149.720703 0)"/>
      <use xlink:href="#DejaVuSans-4c" transform="translate(181.507812 0)"/>
      <use xlink:href="#DejaVuSans-6f" transform="translate(235.470703 0)"/>
      <use xlink:href="#DejaVuSans-73" transform="translate(296.652344 0)"/>
      <use xlink:href="#DejaVuSans-73" transform="translate(348.751953 0)"/>
     </g>
    </g>
   </g>
  </g>
  <g id="axes_2">
   <g id="patch_8">
    <path d="M 463.065625 327.558125 
L 849.725625 327.558125 
L 849.725625 22.318125 
L 463.065625 22.318125 
z
" style="fill: #ffffff"/>
   </g>
   <g id="matplotlib.axis_3">
    <g id="xtick_9">
     <g id="line2d_19">
      <g>
       <use xlink:href="#m82ea1349e4" x="480.64108" y="327.558125" style="stroke: #000000; stroke-width: 0.8"/>
      </g>
     </g>
     <g id="text_18">
      <!-- 0 -->
      <g transform="translate(477.45983 342.156563) scale(0.1 -0.1)">
       <use xlink:href="#DejaVuSans-30"/>
      </g>
     </g>
    </g>
    <g id="xtick_10">
     <g id="line2d_20">
      <g>
       <use xlink:href="#m82ea1349e4" x="527.823508" y="327.558125" style="stroke: #000000; stroke-width: 0.8"/>
      </g>
     </g>
     <g id="text_19">
      <!-- 20 -->
      <g transform="translate(521.461008 342.156563) scale(0.1 -0.1)">
       <use xlink:href="#DejaVuSans-32"/>
       <use xlink:href="#DejaVuSans-30" transform="translate(63.623047 0)"/>
      </g>
     </g>
    </g>
    <g id="xtick_11">
     <g id="line2d_21">
      <g>
       <use xlink:href="#m82ea1349e4" x="575.005936" y="327.558125" style="stroke: #000000; stroke-width: 0.8"/>
      </g>
     </g>
     <g id="text_20">
      <!-- 40 -->
      <g transform="translate(568.643436 342.156563) scale(0.1 -0.1)">
       <use xlink:href="#DejaVuSans-34"/>
       <use xlink:href="#DejaVuSans-30" transform="translate(63.623047 0)"/>
      </g>
     </g>
    </g>
    <g id="xtick_12">
     <g id="line2d_22">
      <g>
       <use xlink:href="#m82ea1349e4" x="622.188364" y="327.558125" style="stroke: #000000; stroke-width: 0.8"/>
      </g>
     </g>
     <g id="text_21">
      <!-- 60 -->
      <g transform="translate(615.825864 342.156563) scale(0.1 -0.1)">
       <use xlink:href="#DejaVuSans-36"/>
       <use xlink:href="#DejaVuSans-30" transform="translate(63.623047 0)"/>
      </g>
     </g>
    </g>
    <g id="xtick_13">
     <g id="line2d_23">
      <g>
       <use xlink:href="#m82ea1349e4" x="669.370793" y="327.558125" style="stroke: #000000; stroke-width: 0.8"/>
      </g>
     </g>
     <g id="text_22">
      <!-- 80 -->
      <g transform="translate(663.008293 342.156563) scale(0.1 -0.1)">
       <use xlink:href="#DejaVuSans-38"/>
       <use xlink:href="#DejaVuSans-30" transform="translate(63.623047 0)"/>
      </g>
     </g>
    </g>
    <g id="xtick_14">
     <g id="line2d_24">
      <g>
       <use xlink:href="#m82ea1349e4" x="716.553221" y="327.558125" style="stroke: #000000; stroke-width: 0.8"/>
      </g>
     </g>
     <g id="text_23">
      <!-- 100 -->
      <g transform="translate(707.009471 342.156563) scale(0.1 -0.1)">
       <use xlink:href="#DejaVuSans-31"/>
       <use xlink:href="#DejaVuSans-30" transform="translate(63.623047 0)"/>
       <use xlink:href="#DejaVuSans-30" transform="translate(127.246094 0)"/>
      </g>
     </g>
    </g>
    <g id="xtick_15">
     <g id="line2d_25">
      <g>
       <use xlink:href="#m82ea1349e4" x="763.735649" y="327.558125" style="stroke: #000000; stroke-width: 0.8"/>
      </g>
     </g>
     <g id="text_24">
      <!-- 120 -->
      <g transform="translate(754.191899 342.156563) scale(0.1 -0.1)">
       <use xlink:href="#DejaVuSans-31"/>
       <use xlink:href="#DejaVuSans-32" transform="translate(63.623047 0)"/>
       <use xlink:href="#DejaVuSans-30" transform="translate(127.246094 0)"/>
      </g>
     </g>
    </g>
    <g id="xtick_16">
     <g id="line2d_26">
      <g>
       <use xlink:href="#m82ea1349e4" x="810.918078" y="327.558125" style="stroke: #000000; stroke-width: 0.8"/>
      </g>
     </g>
     <g id="text_25">
      <!-- 140 -->
      <g transform="translate(801.374328 342.156563) scale(0.1 -0.1)">
       <use xlink:href="#DejaVuSans-31"/>
       <use xlink:href="#DejaVuSans-34" transform="translate(63.623047 0)"/>
       <use xlink:href="#DejaVuSans-30" transform="translate(127.246094 0)"/>
      </g>
     </g>
    </g>
   </g>
   <g id="matplotlib.axis_4">
    <g id="ytick_7">
     <g id="line2d_27">
      <g>
       <use xlink:href="#mc9100b6cc6" x="463.065625" y="299.948375" style="stroke: #000000; stroke-width: 0.8"/>
      </g>
     </g>
     <g id="text_26">
      <!-- 0.70 -->
      <g transform="translate(433.8 303.747594) scale(0.1 -0.1)">
       <use xlink:href="#DejaVuSans-30"/>
       <use xlink:href="#DejaVuSans-2e" transform="translate(63.623047 0)"/>
       <use xlink:href="#DejaVuSans-37" transform="translate(95.410156 0)"/>
       <use xlink:href="#DejaVuSans-30" transform="translate(159.033203 0)"/>
      </g>
     </g>
    </g>
    <g id="ytick_8">
     <g id="line2d_28">
      <g>
       <use xlink:href="#mc9100b6cc6" x="463.065625" y="235.127786" style="stroke: #000000; stroke-width: 0.8"/>
      </g>
     </g>
     <g id="text_27">
      <!-- 0.71 -->
      <g transform="translate(433.8 238.927005) scale(0.1 -0.1)">
       <use xlink:href="#DejaVuSans-30"/>
       <use xlink:href="#DejaVuSans-2e" transform="translate(63.623047 0)"/>
       <use xlink:href="#DejaVuSans-37" transform="translate(95.410156 0)"/>
       <use xlink:href="#DejaVuSans-31" transform="translate(159.033203 0)"/>
      </g>
     </g>
    </g>
    <g id="ytick_9">
     <g id="line2d_29">
      <g>
       <use xlink:href="#mc9100b6cc6" x="463.065625" y="170.307196" style="stroke: #000000; stroke-width: 0.8"/>
      </g>
     </g>
     <g id="text_28">
      <!-- 0.72 -->
      <g transform="translate(433.8 174.106415) scale(0.1 -0.1)">
       <use xlink:href="#DejaVuSans-30"/>
       <use xlink:href="#DejaVuSans-2e" transform="translate(63.623047 0)"/>
       <use xlink:href="#DejaVuSans-37" transform="translate(95.410156 0)"/>
       <use xlink:href="#DejaVuSans-32" transform="translate(159.033203 0)"/>
      </g>
     </g>
    </g>
    <g id="ytick_10">
     <g id="line2d_30">
      <g>
       <use xlink:href="#mc9100b6cc6" x="463.065625" y="105.486607" style="stroke: #000000; stroke-width: 0.8"/>
      </g>
     </g>
     <g id="text_29">
      <!-- 0.73 -->
      <g transform="translate(433.8 109.285826) scale(0.1 -0.1)">
       <defs>
        <path id="DejaVuSans-33" d="M 2597 2516 
Q 3050 2419 3304 2112 
Q 3559 1806 3559 1356 
Q 3559 666 3084 287 
Q 2609 -91 1734 -91 
Q 1441 -91 1130 -33 
Q 819 25 488 141 
L 488 750 
Q 750 597 1062 519 
Q 1375 441 1716 441 
Q 2309 441 2620 675 
Q 2931 909 2931 1356 
Q 2931 1769 2642 2001 
Q 2353 2234 1838 2234 
L 1294 2234 
L 1294 2753 
L 1863 2753 
Q 2328 2753 2575 2939 
Q 2822 3125 2822 3475 
Q 2822 3834 2567 4026 
Q 2313 4219 1838 4219 
Q 1578 4219 1281 4162 
Q 984 4106 628 3988 
L 628 4550 
Q 988 4650 1302 4700 
Q 1616 4750 1894 4750 
Q 2613 4750 3031 4423 
Q 3450 4097 3450 3541 
Q 3450 3153 3228 2886 
Q 3006 2619 2597 2516 
z
" transform="scale(0.015625)"/>
       </defs>
       <use xlink:href="#DejaVuSans-30"/>
       <use xlink:href="#DejaVuSans-2e" transform="translate(63.623047 0)"/>
       <use xlink:href="#DejaVuSans-37" transform="translate(95.410156 0)"/>
       <use xlink:href="#DejaVuSans-33" transform="translate(159.033203 0)"/>
      </g>
     </g>
    </g>
    <g id="ytick_11">
     <g id="line2d_31">
      <g>
       <use xlink:href="#mc9100b6cc6" x="463.065625" y="40.666018" style="stroke: #000000; stroke-width: 0.8"/>
      </g>
     </g>
     <g id="text_30">
      <!-- 0.74 -->
      <g transform="translate(433.8 44.465237) scale(0.1 -0.1)">
       <use xlink:href="#DejaVuSans-30"/>
       <use xlink:href="#DejaVuSans-2e" transform="translate(63.623047 0)"/>
       <use xlink:href="#DejaVuSans-37" transform="translate(95.410156 0)"/>
       <use xlink:href="#DejaVuSans-34" transform="translate(159.033203 0)"/>
      </g>
     </g>
    </g>
   </g>
   <g id="line2d_32">
    <path d="M 480.64108 313.68358 
L 483.000201 136.12876 
L 485.359322 131.697974 
L 487.718444 122.508382 
L 490.077565 121.852342 
L 492.436687 111.349895 
L 494.795808 110.693468 
L 497.154929 109.216411 
L 499.514051 97.5657 
L 501.873172 109.052594 
L 504.232294 99.370778 
L 506.591415 104.129584 
L 508.950537 105.114032 
L 511.309658 98.057924 
L 513.668779 96.74507 
L 516.027901 95.268013 
L 518.387022 95.104196 
L 520.746144 84.601749 
L 523.105265 91.82206 
L 525.464386 98.057924 
L 527.823508 90.181186 
L 530.182629 87.719681 
L 532.541751 92.150467 
L 534.900872 94.775789 
L 537.259994 83.288895 
L 539.619115 99.370778 
L 541.978236 88.868332 
L 544.337358 89.360556 
L 546.696479 93.299118 
L 549.055601 94.611972 
L 551.414722 80.007147 
L 553.773843 87.883885 
L 556.132965 88.540312 
L 558.492086 86.899051 
L 560.851208 71.966205 
L 563.210329 83.781119 
L 565.569451 75.24834 
L 567.928572 83.288895 
L 570.287693 74.75573 
L 572.646815 78.037865 
L 575.005936 74.75573 
L 577.365058 77.217235 
L 579.724179 78.530089 
L 582.0833 81.483818 
L 584.442422 71.966205 
L 586.801543 77.545642 
L 589.160665 69.996924 
L 591.519786 82.632468 
L 593.878907 69.012477 
L 596.238029 81.812224 
L 598.59715 80.170964 
L 600.956272 75.084137 
L 603.315393 77.873662 
L 605.674515 76.232788 
L 608.033636 76.889215 
L 610.392757 73.279059 
L 612.751879 80.335167 
L 615.111 73.279059 
L 617.470122 82.140245 
L 619.829243 69.996924 
L 622.188364 64.910097 
L 624.547486 67.371602 
L 626.906607 73.279059 
L 629.265729 64.25367 
L 631.62485 66.878992 
L 636.343093 69.5047 
L 638.702214 62.940816 
L 641.061336 68.68407 
L 643.420457 67.699623 
L 645.779579 64.745894 
L 648.1387 66.878992 
L 650.497821 57.853603 
L 652.856943 65.238118 
L 657.575186 58.838437 
L 659.934307 69.5047 
L 662.293429 62.448593 
L 664.65255 59.658681 
L 667.011671 60.643515 
L 669.370793 59.002254 
L 671.729914 62.284389 
L 674.089036 59.658681 
L 676.448157 62.61241 
L 678.807278 56.704953 
L 681.1664 62.776613 
L 683.525521 57.033359 
L 685.884643 65.238118 
L 688.243764 57.689786 
L 690.602886 52.766777 
L 692.962007 51.125516 
L 695.321128 56.540749 
L 697.68025 51.453923 
L 700.039371 52.43837 
L 702.398493 62.940816 
L 704.757614 64.089467 
L 707.116735 56.048526 
L 709.475857 51.618126 
L 711.834978 59.330661 
L 714.1941 51.618126 
L 716.553221 55.392099 
L 718.912343 55.228282 
L 721.271464 51.946147 
L 723.630585 44.725836 
L 725.989707 53.259001 
L 728.348828 59.494864 
L 733.067071 54.079245 
L 735.426192 53.423204 
L 737.785314 47.18734 
L 740.144435 49.813048 
L 742.503557 57.197176 
L 744.862678 48.007971 
L 747.221799 57.197176 
L 749.580921 53.915428 
L 751.940042 48.500194 
L 754.299164 45.710283 
L 756.658285 50.469089 
L 759.017407 54.735672 
L 761.376528 57.197176 
L 763.735649 58.017807 
L 766.094771 37.505525 
L 768.453892 49.976865 
L 770.813014 47.679564 
L 773.172135 37.341321 
L 775.531256 49.484642 
L 777.890378 48.828215 
L 780.249499 47.679564 
L 782.608621 53.259001 
L 784.967742 47.351544 
L 787.326864 42.428534 
L 789.685985 40.787273 
L 792.045106 50.961699 
L 794.404228 47.843767 
L 796.763349 54.407651 
L 799.122471 42.592351 
L 801.481592 56.048526 
L 803.840713 48.992418 
L 806.199835 36.19267 
L 810.918078 49.648845 
L 813.277199 44.233612 
L 815.636321 49.484642 
L 817.995442 45.053856 
L 820.354563 37.177118 
L 822.713685 42.100127 
L 825.072806 42.428534 
L 827.431928 37.833545 
L 829.791049 40.623456 
L 832.15017 51.453923 
L 832.15017 51.453923 
" clip-path="url(#pa77910eebb)" style="fill: none; stroke: #1f77b4; stroke-width: 1.5; stroke-linecap: square"/>
   </g>
   <g id="line2d_33">
    <path d="M 480.64108 86.242624 
L 483.000201 72.950653 
L 485.359322 41.93631 
L 490.077565 47.843767 
L 492.436687 37.505525 
L 494.795808 52.274167 
L 497.154929 44.890039 
L 499.514051 43.412981 
L 501.873172 40.459253 
L 504.232294 55.228282 
L 506.591415 56.704953 
L 508.950537 43.412981 
L 511.309658 46.36671 
L 513.668779 43.412981 
L 516.027901 52.274167 
L 518.387022 50.797496 
L 520.746144 67.043196 
L 523.105265 67.043196 
L 525.464386 69.996924 
L 527.823508 59.658681 
L 530.182629 65.566525 
L 532.541751 68.520253 
L 534.900872 77.381438 
L 537.259994 83.288895 
L 539.619115 43.412981 
L 541.978236 71.473981 
L 544.337358 50.797496 
L 546.696479 46.36671 
L 549.055601 55.228282 
L 551.414722 59.658681 
L 553.773843 75.904381 
L 556.132965 58.18201 
L 558.492086 52.274167 
L 560.851208 67.043196 
L 563.210329 41.93631 
L 567.928572 80.335167 
L 570.287693 64.089467 
L 572.646815 68.520253 
L 575.005936 59.658681 
L 577.365058 64.089467 
L 579.724179 71.473981 
L 582.0833 68.520253 
L 586.801543 80.335167 
L 589.160665 64.089467 
L 591.519786 74.42771 
L 593.878907 69.996924 
L 596.238029 69.996924 
L 598.59715 64.089467 
L 600.956272 77.381438 
L 603.315393 74.42771 
L 605.674515 64.089467 
L 608.033636 58.18201 
L 610.392757 67.043196 
L 612.751879 74.42771 
L 615.111 69.996924 
L 617.470122 68.520253 
L 619.829243 59.658681 
L 622.188364 65.566525 
L 624.547486 56.704953 
L 626.906607 84.765953 
L 629.265729 53.751224 
L 631.62485 69.996924 
L 633.983972 56.704953 
L 636.343093 71.473981 
L 638.702214 58.18201 
L 641.061336 58.18201 
L 643.420457 52.274167 
L 645.779579 77.381438 
L 648.1387 80.335167 
L 650.497821 65.566525 
L 652.856943 71.473981 
L 655.216064 74.42771 
L 657.575186 64.089467 
L 659.934307 74.42771 
L 662.293429 67.043196 
L 664.65255 74.42771 
L 667.011671 77.381438 
L 669.370793 62.61241 
L 671.729914 64.089467 
L 674.089036 58.18201 
L 676.448157 59.658681 
L 678.807278 69.996924 
L 681.1664 62.61241 
L 683.525521 64.089467 
L 685.884643 68.520253 
L 688.243764 65.566525 
L 690.602886 53.751224 
L 692.962007 64.089467 
L 695.321128 64.089467 
L 697.68025 67.043196 
L 700.039371 62.61241 
L 702.398493 47.843767 
L 704.757614 59.658681 
L 707.116735 49.320438 
L 709.475857 55.228282 
L 711.834978 55.228282 
L 714.1941 58.18201 
L 716.553221 68.520253 
L 718.912343 69.996924 
L 721.271464 59.658681 
L 723.630585 56.704953 
L 725.989707 61.135739 
L 728.348828 53.751224 
L 730.70795 59.658681 
L 733.067071 61.135739 
L 735.426192 61.135739 
L 737.785314 55.228282 
L 740.144435 64.089467 
L 742.503557 59.658681 
L 744.862678 52.274167 
L 747.221799 61.135739 
L 749.580921 74.42771 
L 751.940042 55.228282 
L 754.299164 53.751224 
L 756.658285 59.658681 
L 759.017407 61.135739 
L 761.376528 65.566525 
L 763.735649 49.320438 
L 766.094771 74.42771 
L 768.453892 53.751224 
L 770.813014 72.950653 
L 773.172135 56.704953 
L 775.531256 49.320438 
L 777.890378 64.089467 
L 780.249499 53.751224 
L 782.608621 52.274167 
L 784.967742 46.36671 
L 787.326864 58.18201 
L 789.685985 49.320438 
L 792.045106 58.18201 
L 794.404228 56.704953 
L 796.763349 68.520253 
L 799.122471 56.704953 
L 801.481592 52.274167 
L 803.840713 84.765953 
L 806.199835 64.089467 
L 808.558956 40.459253 
L 810.918078 56.704953 
L 813.277199 69.996924 
L 815.636321 65.566525 
L 817.995442 56.704953 
L 820.354563 49.320438 
L 822.713685 58.18201 
L 825.072806 71.473981 
L 827.431928 61.135739 
L 829.791049 68.520253 
L 832.15017 86.242624 
L 832.15017 86.242624 
" clip-path="url(#pa77910eebb)" style="fill: none; stroke: #ff7f0e; stroke-width: 1.5; stroke-linecap: square"/>
   </g>
   <g id="patch_9">
    <path d="M 463.065625 327.558125 
L 463.065625 22.318125 
" style="fill: none; stroke: #000000; stroke-width: 0.8; stroke-linejoin: miter; stroke-linecap: square"/>
   </g>
   <g id="patch_10">
    <path d="M 849.725625 327.558125 
L 849.725625 22.318125 
" style="fill: none; stroke: #000000; stroke-width: 0.8; stroke-linejoin: miter; stroke-linecap: square"/>
   </g>
   <g id="patch_11">
    <path d="M 463.065625 327.558125 
L 849.725625 327.558125 
" style="fill: none; stroke: #000000; stroke-width: 0.8; stroke-linejoin: miter; stroke-linecap: square"/>
   </g>
   <g id="patch_12">
    <path d="M 463.065625 22.318125 
L 849.725625 22.318125 
" style="fill: none; stroke: #000000; stroke-width: 0.8; stroke-linejoin: miter; stroke-linecap: square"/>
   </g>
   <g id="text_31">
    <!-- Model Accuracy (NN - Standard - No PCA) -->
    <g transform="translate(532.28 16.318125) scale(0.12 -0.12)">
     <defs>
      <path id="DejaVuSans-63" d="M 3122 3366 
L 3122 2828 
Q 2878 2963 2633 3030 
Q 2388 3097 2138 3097 
Q 1578 3097 1268 2742 
Q 959 2388 959 1747 
Q 959 1106 1268 751 
Q 1578 397 2138 397 
Q 2388 397 2633 464 
Q 2878 531 3122 666 
L 3122 134 
Q 2881 22 2623 -34 
Q 2366 -91 2075 -91 
Q 1284 -91 818 406 
Q 353 903 353 1747 
Q 353 2603 823 3093 
Q 1294 3584 2113 3584 
Q 2378 3584 2631 3529 
Q 2884 3475 3122 3366 
z
" transform="scale(0.015625)"/>
      <path id="DejaVuSans-75" d="M 544 1381 
L 544 3500 
L 1119 3500 
L 1119 1403 
Q 1119 906 1312 657 
Q 1506 409 1894 409 
Q 2359 409 2629 706 
Q 2900 1003 2900 1516 
L 2900 3500 
L 3475 3500 
L 3475 0 
L 2900 0 
L 2900 538 
Q 2691 219 2414 64 
Q 2138 -91 1772 -91 
Q 1169 -91 856 284 
Q 544 659 544 1381 
z
M 1991 3584 
L 1991 3584 
z
" transform="scale(0.015625)"/>
      <path id="DejaVuSans-79" d="M 2059 -325 
Q 1816 -950 1584 -1140 
Q 1353 -1331 966 -1331 
L 506 -1331 
L 506 -850 
L 844 -850 
Q 1081 -850 1212 -737 
Q 1344 -625 1503 -206 
L 1606 56 
L 191 3500 
L 800 3500 
L 1894 763 
L 2988 3500 
L 3597 3500 
L 2059 -325 
z
" transform="scale(0.015625)"/>
     </defs>
     <use xlink:href="#DejaVuSans-4d"/>
     <use xlink:href="#DejaVuSans-6f" transform="translate(86.279297 0)"/>
     <use xlink:href="#DejaVuSans-64" transform="translate(147.460938 0)"/>
     <use xlink:href="#DejaVuSans-65" transform="translate(210.9375 0)"/>
     <use xlink:href="#DejaVuSans-6c" transform="translate(272.460938 0)"/>
     <use xlink:href="#DejaVuSans-20" transform="translate(300.244141 0)"/>
     <use xlink:href="#DejaVuSans-41" transform="translate(332.03125 0)"/>
     <use xlink:href="#DejaVuSans-63" transform="translate(398.689453 0)"/>
     <use xlink:href="#DejaVuSans-63" transform="translate(453.669922 0)"/>
     <use xlink:href="#DejaVuSans-75" transform="translate(508.650391 0)"/>
     <use xlink:href="#DejaVuSans-72" transform="translate(572.029297 0)"/>
     <use xlink:href="#DejaVuSans-61" transform="translate(613.142578 0)"/>
     <use xlink:href="#DejaVuSans-63" transform="translate(674.421875 0)"/>
     <use xlink:href="#DejaVuSans-79" transform="translate(729.402344 0)"/>
     <use xlink:href="#DejaVuSans-20" transform="translate(788.582031 0)"/>
     <use xlink:href="#DejaVuSans-28" transform="translate(820.369141 0)"/>
     <use xlink:href="#DejaVuSans-4e" transform="translate(859.382812 0)"/>
     <use xlink:href="#DejaVuSans-4e" transform="translate(934.1875 0)"/>
     <use xlink:href="#DejaVuSans-20" transform="translate(1008.992188 0)"/>
     <use xlink:href="#DejaVuSans-2d" transform="translate(1040.779297 0)"/>
     <use xlink:href="#DejaVuSans-20" transform="translate(1076.863281 0)"/>
     <use xlink:href="#DejaVuSans-53" transform="translate(1108.650391 0)"/>
     <use xlink:href="#DejaVuSans-74" transform="translate(1172.126953 0)"/>
     <use xlink:href="#DejaVuSans-61" transform="translate(1211.335938 0)"/>
     <use xlink:href="#DejaVuSans-6e" transform="translate(1272.615234 0)"/>
     <use xlink:href="#DejaVuSans-64" transform="translate(1335.994141 0)"/>
     <use xlink:href="#DejaVuSans-61" transform="translate(1399.470703 0)"/>
     <use xlink:href="#DejaVuSans-72" transform="translate(1460.75 0)"/>
     <use xlink:href="#DejaVuSans-64" transform="translate(1500.113281 0)"/>
     <use xlink:href="#DejaVuSans-20" transform="translate(1563.589844 0)"/>
     <use xlink:href="#DejaVuSans-2d" transform="translate(1595.376953 0)"/>
     <use xlink:href="#DejaVuSans-20" transform="translate(1631.460938 0)"/>
     <use xlink:href="#DejaVuSans-4e" transform="translate(1663.248047 0)"/>
     <use xlink:href="#DejaVuSans-6f" transform="translate(1738.052734 0)"/>
     <use xlink:href="#DejaVuSans-20" transform="translate(1799.234375 0)"/>
     <use xlink:href="#DejaVuSans-50" transform="translate(1831.021484 0)"/>
     <use xlink:href="#DejaVuSans-43" transform="translate(1891.324219 0)"/>
     <use xlink:href="#DejaVuSans-41" transform="translate(1961.148438 0)"/>
     <use xlink:href="#DejaVuSans-29" transform="translate(2029.556641 0)"/>
    </g>
   </g>
   <g id="legend_2">
    <g id="patch_13">
     <path d="M 737.90375 322.558125 
L 842.725625 322.558125 
Q 844.725625 322.558125 844.725625 320.558125 
L 844.725625 292.201875 
Q 844.725625 290.201875 842.725625 290.201875 
L 737.90375 290.201875 
Q 735.90375 290.201875 735.90375 292.201875 
L 735.90375 320.558125 
Q 735.90375 322.558125 737.90375 322.558125 
z
" style="fill: #ffffff; opacity: 0.8; stroke: #cccccc; stroke-linejoin: miter"/>
    </g>
    <g id="line2d_34">
     <path d="M 739.90375 298.300313 
L 749.90375 298.300313 
L 759.90375 298.300313 
" style="fill: none; stroke: #1f77b4; stroke-width: 1.5; stroke-linecap: square"/>
    </g>
    <g id="text_32">
     <!-- Train Accuracy -->
     <g transform="translate(767.90375 301.800313) scale(0.1 -0.1)">
      <use xlink:href="#DejaVuSans-54"/>
      <use xlink:href="#DejaVuSans-72" transform="translate(46.333984 0)"/>
      <use xlink:href="#DejaVuSans-61" transform="translate(87.447266 0)"/>
      <use xlink:href="#DejaVuSans-69" transform="translate(148.726562 0)"/>
      <use xlink:href="#DejaVuSans-6e" transform="translate(176.509766 0)"/>
      <use xlink:href="#DejaVuSans-20" transform="translate(239.888672 0)"/>
      <use xlink:href="#DejaVuSans-41" transform="translate(271.675781 0)"/>
      <use xlink:href="#DejaVuSans-63" transform="translate(338.333984 0)"/>
      <use xlink:href="#DejaVuSans-63" transform="translate(393.314453 0)"/>
      <use xlink:href="#DejaVuSans-75" transform="translate(448.294922 0)"/>
      <use xlink:href="#DejaVuSans-72" transform="translate(511.673828 0)"/>
      <use xlink:href="#DejaVuSans-61" transform="translate(552.787109 0)"/>
      <use xlink:href="#DejaVuSans-63" transform="translate(614.066406 0)"/>
      <use xlink:href="#DejaVuSans-79" transform="translate(669.046875 0)"/>
     </g>
    </g>
    <g id="line2d_35">
     <path d="M 739.90375 312.978438 
L 749.90375 312.978438 
L 759.90375 312.978438 
" style="fill: none; stroke: #ff7f0e; stroke-width: 1.5; stroke-linecap: square"/>
    </g>
    <g id="text_33">
     <!-- Val Accuracy -->
     <g transform="translate(767.90375 316.478438) scale(0.1 -0.1)">
      <use xlink:href="#DejaVuSans-56"/>
      <use xlink:href="#DejaVuSans-61" transform="translate(60.658203 0)"/>
      <use xlink:href="#DejaVuSans-6c" transform="translate(121.9375 0)"/>
      <use xlink:href="#DejaVuSans-20" transform="translate(149.720703 0)"/>
      <use xlink:href="#DejaVuSans-41" transform="translate(181.507812 0)"/>
      <use xlink:href="#DejaVuSans-63" transform="translate(248.166016 0)"/>
      <use xlink:href="#DejaVuSans-63" transform="translate(303.146484 0)"/>
      <use xlink:href="#DejaVuSans-75" transform="translate(358.126953 0)"/>
      <use xlink:href="#DejaVuSans-72" transform="translate(421.505859 0)"/>
      <use xlink:href="#DejaVuSans-61" transform="translate(462.619141 0)"/>
      <use xlink:href="#DejaVuSans-63" transform="translate(523.898438 0)"/>
      <use xlink:href="#DejaVuSans-79" transform="translate(578.878906 0)"/>
     </g>
    </g>
   </g>
  </g>
 </g>
 <defs>
  <clipPath id="pbd1e290c32">
   <rect x="36.465625" y="22.318125" width="386.66" height="305.24"/>
  </clipPath>
  <clipPath id="pa77910eebb">
   <rect x="463.065625" y="22.318125" width="386.66" height="305.24"/>
  </clipPath>
 </defs>
</svg>
