<?xml version="1.0" encoding="utf-8" standalone="no"?>
<!DOCTYPE svg PUBLIC "-//W3C//DTD SVG 1.1//EN"
  "http://www.w3.org/Graphics/SVG/1.1/DTD/svg11.dtd">
<svg xmlns:xlink="http://www.w3.org/1999/xlink" width="856.925625pt" height="351.43625pt" viewBox="0 0 856.925625 351.43625" xmlns="http://www.w3.org/2000/svg" version="1.1">
 <metadata>
  <rdf:RDF xmlns:dc="http://purl.org/dc/elements/1.1/" xmlns:cc="http://creativecommons.org/ns#" xmlns:rdf="http://www.w3.org/1999/02/22-rdf-syntax-ns#">
   <cc:Work>
    <dc:type rdf:resource="http://purl.org/dc/dcmitype/StillImage"/>
    <dc:date>2026-01-03T15:23:46.107870</dc:date>
    <dc:format>image/svg+xml</dc:format>
    <dc:creator>
     <cc:Agent>
      <dc:title>Matplotlib v3.10.7, https://matplotlib.org/</dc:title>
     </cc:Agent>
    </dc:creator>
   </cc:Work>
  </rdf:RDF>
 </metadata>
 <defs>
  <style type="text/css">*{stroke-linejoin: round; stroke-linecap: butt}</style>
 </defs>
 <g id="figure_1">
  <g id="patch_1">
   <path d="M 0 351.43625 
L 856.925625 351.43625 
L 856.925625 0 
L 0 0 
z
" style="fill: #ffffff"/>
  </g>
  <g id="axes_1">
   <g id="patch_2">
    <path d="M 36.465625 327.558125 
L 423.080625 327.558125 
L 423.080625 22.318125 
L 36.465625 22.318125 
z
" style="fill: #ffffff"/>
   </g>
   <g id="matplotlib.axis_1">
    <g id="xtick_1">
     <g id="line2d_1">
      <defs>
       <path id="m44f0b7cd9d" d="M 0 0 
L 0 3.5 
" style="stroke: #000000; stroke-width: 0.8"/>
      </defs>
      <g>
       <use xlink:href="#m44f0b7cd9d" x="54.039034" y="327.558125" style="stroke: #000000; stroke-width: 0.8"/>
      </g>
     </g>
     <g id="text_1">
      <!-- 0 -->
      <g transform="translate(50.857784 342.156563) scale(0.1 -0.1)">
       <defs>
        <path id="DejaVuSans-30" d="M 2034 4250 
Q 1547 4250 1301 3770 
Q 1056 3291 1056 2328 
Q 1056 1369 1301 889 
Q 1547 409 2034 409 
Q 2525 409 2770 889 
Q 3016 1369 3016 2328 
Q 3016 3291 2770 3770 
Q 2525 4250 2034 4250 
z
M 2034 4750 
Q 2819 4750 3233 4129 
Q 3647 3509 3647 2328 
Q 3647 1150 3233 529 
Q 2819 -91 2034 -91 
Q 1250 -91 836 529 
Q 422 1150 422 2328 
Q 422 3509 836 4129 
Q 1250 4750 2034 4750 
z
" transform="scale(0.015625)"/>
       </defs>
       <use xlink:href="#DejaVuSans-30"/>
      </g>
     </g>
    </g>
    <g id="xtick_2">
     <g id="line2d_2">
      <g>
       <use xlink:href="#m44f0b7cd9d" x="125.042707" y="327.558125" style="stroke: #000000; stroke-width: 0.8"/>
      </g>
     </g>
     <g id="text_2">
      <!-- 20 -->
      <g transform="translate(118.680207 342.156563) scale(0.1 -0.1)">
       <defs>
        <path id="DejaVuSans-32" d="M 1228 531 
L 3431 531 
L 3431 0 
L 469 0 
L 469 531 
Q 828 903 1448 1529 
Q 2069 2156 2228 2338 
Q 2531 2678 2651 2914 
Q 2772 3150 2772 3378 
Q 2772 3750 2511 3984 
Q 2250 4219 1831 4219 
Q 1534 4219 1204 4116 
Q 875 4013 500 3803 
L 500 4441 
Q 881 4594 1212 4672 
Q 1544 4750 1819 4750 
Q 2544 4750 2975 4387 
Q 3406 4025 3406 3419 
Q 3406 3131 3298 2873 
Q 3191 2616 2906 2266 
Q 2828 2175 2409 1742 
Q 1991 1309 1228 531 
z
" transform="scale(0.015625)"/>
       </defs>
       <use xlink:href="#DejaVuSans-32"/>
       <use xlink:href="#DejaVuSans-30" transform="translate(63.623047 0)"/>
      </g>
     </g>
    </g>
    <g id="xtick_3">
     <g id="line2d_3">
      <g>
       <use xlink:href="#m44f0b7cd9d" x="196.04638" y="327.558125" style="stroke: #000000; stroke-width: 0.8"/>
      </g>
     </g>
     <g id="text_3">
      <!-- 40 -->
      <g transform="translate(189.68388 342.156563) scale(0.1 -0.1)">
       <defs>
        <path id="DejaVuSans-34" d="M 2419 4116 
L 825 1625 
L 2419 1625 
L 2419 4116 
z
M 2253 4666 
L 3047 4666 
L 3047 1625 
L 3713 1625 
L 3713 1100 
L 3047 1100 
L 3047 0 
L 2419 0 
L 2419 1100 
L 313 1100 
L 313 1709 
L 2253 4666 
z
" transform="scale(0.015625)"/>
       </defs>
       <use xlink:href="#DejaVuSans-34"/>
       <use xlink:href="#DejaVuSans-30" transform="translate(63.623047 0)"/>
      </g>
     </g>
    </g>
    <g id="xtick_4">
     <g id="line2d_4">
      <g>
       <use xlink:href="#m44f0b7cd9d" x="267.050053" y="327.558125" style="stroke: #000000; stroke-width: 0.8"/>
      </g>
     </g>
     <g id="text_4">
      <!-- 60 -->
      <g transform="translate(260.687553 342.156563) scale(0.1 -0.1)">
       <defs>
        <path id="DejaVuSans-36" d="M 2113 2584 
Q 1688 2584 1439 2293 
Q 1191 2003 1191 1497 
Q 1191 994 1439 701 
Q 1688 409 2113 409 
Q 2538 409 2786 701 
Q 3034 994 3034 1497 
Q 3034 2003 2786 2293 
Q 2538 2584 2113 2584 
z
M 3366 4563 
L 3366 3988 
Q 3128 4100 2886 4159 
Q 2644 4219 2406 4219 
Q 1781 4219 1451 3797 
Q 1122 3375 1075 2522 
Q 1259 2794 1537 2939 
Q 1816 3084 2150 3084 
Q 2853 3084 3261 2657 
Q 3669 2231 3669 1497 
Q 3669 778 3244 343 
Q 2819 -91 2113 -91 
Q 1303 -91 875 529 
Q 447 1150 447 2328 
Q 447 3434 972 4092 
Q 1497 4750 2381 4750 
Q 2619 4750 2861 4703 
Q 3103 4656 3366 4563 
z
" transform="scale(0.015625)"/>
       </defs>
       <use xlink:href="#DejaVuSans-36"/>
       <use xlink:href="#DejaVuSans-30" transform="translate(63.623047 0)"/>
      </g>
     </g>
    </g>
    <g id="xtick_5">
     <g id="line2d_5">
      <g>
       <use xlink:href="#m44f0b7cd9d" x="338.053726" y="327.558125" style="stroke: #000000; stroke-width: 0.8"/>
      </g>
     </g>
     <g id="text_5">
      <!-- 80 -->
      <g transform="translate(331.691226 342.156563) scale(0.1 -0.1)">
       <defs>
        <path id="DejaVuSans-38" d="M 2034 2216 
Q 1584 2216 1326 1975 
Q 1069 1734 1069 1313 
Q 1069 891 1326 650 
Q 1584 409 2034 409 
Q 2484 409 2743 651 
Q 3003 894 3003 1313 
Q 3003 1734 2745 1975 
Q 2488 2216 2034 2216 
z
M 1403 2484 
Q 997 2584 770 2862 
Q 544 3141 544 3541 
Q 544 4100 942 4425 
Q 1341 4750 2034 4750 
Q 2731 4750 3128 4425 
Q 3525 4100 3525 3541 
Q 3525 3141 3298 2862 
Q 3072 2584 2669 2484 
Q 3125 2378 3379 2068 
Q 3634 1759 3634 1313 
Q 3634 634 3220 271 
Q 2806 -91 2034 -91 
Q 1263 -91 848 271 
Q 434 634 434 1313 
Q 434 1759 690 2068 
Q 947 2378 1403 2484 
z
M 1172 3481 
Q 1172 3119 1398 2916 
Q 1625 2713 2034 2713 
Q 2441 2713 2670 2916 
Q 2900 3119 2900 3481 
Q 2900 3844 2670 4047 
Q 2441 4250 2034 4250 
Q 1625 4250 1398 4047 
Q 1172 3844 1172 3481 
z
" transform="scale(0.015625)"/>
       </defs>
       <use xlink:href="#DejaVuSans-38"/>
       <use xlink:href="#DejaVuSans-30" transform="translate(63.623047 0)"/>
      </g>
     </g>
    </g>
    <g id="xtick_6">
     <g id="line2d_6">
      <g>
       <use xlink:href="#m44f0b7cd9d" x="409.0574" y="327.558125" style="stroke: #000000; stroke-width: 0.8"/>
      </g>
     </g>
     <g id="text_6">
      <!-- 100 -->
      <g transform="translate(399.51365 342.156563) scale(0.1 -0.1)">
       <defs>
        <path id="DejaVuSans-31" d="M 794 531 
L 1825 531 
L 1825 4091 
L 703 3866 
L 703 4441 
L 1819 4666 
L 2450 4666 
L 2450 531 
L 3481 531 
L 3481 0 
L 794 0 
L 794 531 
z
" transform="scale(0.015625)"/>
       </defs>
       <use xlink:href="#DejaVuSans-31"/>
       <use xlink:href="#DejaVuSans-30" transform="translate(63.623047 0)"/>
       <use xlink:href="#DejaVuSans-30" transform="translate(127.246094 0)"/>
      </g>
     </g>
    </g>
   </g>
   <g id="matplotlib.axis_2">
    <g id="ytick_1">
     <g id="line2d_7">
      <defs>
       <path id="mb352a4ec5f" d="M 0 0 
L -3.5 0 
" style="stroke: #000000; stroke-width: 0.8"/>
      </defs>
      <g>
       <use xlink:href="#mb352a4ec5f" x="36.465625" y="265.447518" style="stroke: #000000; stroke-width: 0.8"/>
      </g>
     </g>
     <g id="text_7">
      <!-- 0.52 -->
      <g transform="translate(7.2 269.246736) scale(0.1 -0.1)">
       <defs>
        <path id="DejaVuSans-2e" d="M 684 794 
L 1344 794 
L 1344 0 
L 684 0 
L 684 794 
z
" transform="scale(0.015625)"/>
        <path id="DejaVuSans-35" d="M 691 4666 
L 3169 4666 
L 3169 4134 
L 1269 4134 
L 1269 2991 
Q 1406 3038 1543 3061 
Q 1681 3084 1819 3084 
Q 2600 3084 3056 2656 
Q 3513 2228 3513 1497 
Q 3513 744 3044 326 
Q 2575 -91 1722 -91 
Q 1428 -91 1123 -41 
Q 819 9 494 109 
L 494 744 
Q 775 591 1075 516 
Q 1375 441 1709 441 
Q 2250 441 2565 725 
Q 2881 1009 2881 1497 
Q 2881 1984 2565 2268 
Q 2250 2553 1709 2553 
Q 1456 2553 1204 2497 
Q 953 2441 691 2322 
L 691 4666 
z
" transform="scale(0.015625)"/>
       </defs>
       <use xlink:href="#DejaVuSans-30"/>
       <use xlink:href="#DejaVuSans-2e" transform="translate(63.623047 0)"/>
       <use xlink:href="#DejaVuSans-35" transform="translate(95.410156 0)"/>
       <use xlink:href="#DejaVuSans-32" transform="translate(159.033203 0)"/>
      </g>
     </g>
    </g>
    <g id="ytick_2">
     <g id="line2d_8">
      <g>
       <use xlink:href="#mb352a4ec5f" x="36.465625" y="200.516135" style="stroke: #000000; stroke-width: 0.8"/>
      </g>
     </g>
     <g id="text_8">
      <!-- 0.54 -->
      <g transform="translate(7.2 204.315354) scale(0.1 -0.1)">
       <use xlink:href="#DejaVuSans-30"/>
       <use xlink:href="#DejaVuSans-2e" transform="translate(63.623047 0)"/>
       <use xlink:href="#DejaVuSans-35" transform="translate(95.410156 0)"/>
       <use xlink:href="#DejaVuSans-34" transform="translate(159.033203 0)"/>
      </g>
     </g>
    </g>
    <g id="ytick_3">
     <g id="line2d_9">
      <g>
       <use xlink:href="#mb352a4ec5f" x="36.465625" y="135.584753" style="stroke: #000000; stroke-width: 0.8"/>
      </g>
     </g>
     <g id="text_9">
      <!-- 0.56 -->
      <g transform="translate(7.2 139.383972) scale(0.1 -0.1)">
       <use xlink:href="#DejaVuSans-30"/>
       <use xlink:href="#DejaVuSans-2e" transform="translate(63.623047 0)"/>
       <use xlink:href="#DejaVuSans-35" transform="translate(95.410156 0)"/>
       <use xlink:href="#DejaVuSans-36" transform="translate(159.033203 0)"/>
      </g>
     </g>
    </g>
    <g id="ytick_4">
     <g id="line2d_10">
      <g>
       <use xlink:href="#mb352a4ec5f" x="36.465625" y="70.653371" style="stroke: #000000; stroke-width: 0.8"/>
      </g>
     </g>
     <g id="text_10">
      <!-- 0.58 -->
      <g transform="translate(7.2 74.452589) scale(0.1 -0.1)">
       <use xlink:href="#DejaVuSans-30"/>
       <use xlink:href="#DejaVuSans-2e" transform="translate(63.623047 0)"/>
       <use xlink:href="#DejaVuSans-35" transform="translate(95.410156 0)"/>
       <use xlink:href="#DejaVuSans-38" transform="translate(159.033203 0)"/>
      </g>
     </g>
    </g>
   </g>
   <g id="line2d_11">
    <path d="M 54.039034 36.19267 
L 57.589218 188.667218 
L 61.139401 226.867759 
L 64.689585 244.008153 
L 68.239769 250.177658 
L 71.789952 255.352906 
L 75.340136 264.848664 
L 78.89032 265.973348 
L 82.440503 269.180786 
L 85.990687 266.747197 
L 89.540871 276.017322 
L 93.091054 272.431184 
L 96.641238 273.685906 
L 100.191422 275.391315 
L 103.741605 276.064732 
L 107.291789 284.601646 
L 110.841973 286.61106 
L 114.392156 283.935582 
L 117.94234 284.539335 
L 121.492524 285.149861 
L 125.042707 282.609261 
L 128.592891 285.06878 
L 132.143074 290.670525 
L 135.693258 293.647105 
L 139.243442 290.483981 
L 142.793625 295.571762 
L 146.343809 294.036835 
L 149.893993 291.238672 
L 153.444176 289.03478 
L 156.99436 288.108638 
L 160.544544 295.719217 
L 164.094727 292.663491 
L 167.644911 291.383612 
L 171.195095 294.641943 
L 174.745278 294.879961 
L 178.295462 300.249493 
L 181.845646 296.888021 
L 185.395829 293.104308 
L 188.946013 297.774686 
L 192.496197 297.057729 
L 196.04638 299.234337 
L 199.596564 296.872927 
L 203.146748 301.324638 
L 206.696931 299.88163 
L 210.247115 296.085726 
L 213.797299 298.409594 
L 217.347482 302.660829 
L 220.897666 294.522741 
L 224.44785 300.109972 
L 227.998033 297.664966 
L 231.548217 304.004179 
L 235.0984 303.197627 
L 238.648584 302.96735 
L 242.198768 300.067787 
L 245.748951 304.369527 
L 249.299135 303.52853 
L 252.849319 304.354627 
L 256.399502 302.638769 
L 259.949686 300.449003 
L 263.49987 302.775194 
L 267.050053 304.890264 
L 270.600237 302.561364 
L 274.150421 301.245105 
L 277.700604 306.99624 
L 281.250788 303.038174 
L 284.800972 310.324429 
L 288.351155 301.326186 
L 291.901339 303.999535 
L 295.451523 299.216921 
L 299.001706 307.592833 
L 302.55189 299.970451 
L 306.102074 303.668826 
L 309.652257 309.271538 
L 313.202441 303.783964 
L 316.752625 303.989473 
L 320.302808 308.150531 
L 323.852992 307.516784 
L 327.403176 304.841306 
L 330.953359 307.404741 
L 334.503543 304.608126 
L 338.053726 299.879694 
L 341.60391 309.199939 
L 345.154094 308.268766 
L 348.704277 302.587488 
L 352.254461 304.21975 
L 355.804645 307.470922 
L 359.354828 310.53671 
L 362.905012 312.161232 
L 366.455196 308.523426 
L 370.005379 312.618304 
L 373.555563 310.599988 
L 377.105747 309.512265 
L 380.65593 309.292437 
L 384.206114 303.421325 
L 387.756298 308.370166 
L 391.306481 310.693454 
L 394.856665 308.580512 
L 398.406849 307.420803 
L 401.957032 313.68358 
L 405.507216 311.811171 
" clip-path="url(#pde3cee850a)" style="fill: none; stroke: #1f77b4; stroke-width: 1.5; stroke-linecap: square"/>
   </g>
   <g id="line2d_12">
    <path d="M 54.039034 257.715283 
L 57.589218 267.919484 
L 61.139401 283.836505 
L 64.689585 287.912419 
L 68.239769 287.510497 
L 71.789952 293.346583 
L 75.340136 292.774759 
L 78.89032 295.849449 
L 82.440503 304.536914 
L 85.990687 306.668627 
L 89.540871 299.379276 
L 93.091054 306.042233 
L 96.641238 300.476868 
L 100.191422 306.842399 
L 103.741605 301.493379 
L 107.291789 306.691268 
L 110.841973 300.972062 
L 114.392156 308.041391 
L 117.94234 302.188082 
L 121.492524 294.635944 
L 125.042707 301.961288 
L 128.592891 306.644051 
L 132.143074 304.895102 
L 135.693258 305.297991 
L 139.243442 305.938705 
L 142.793625 299.679411 
L 146.343809 302.661603 
L 149.893993 306.558713 
L 153.444176 304.74397 
L 156.99436 305.117446 
L 160.544544 299.160803 
L 164.094727 304.235425 
L 167.644911 302.004441 
L 171.195095 293.227381 
L 174.745278 305.414678 
L 178.295462 301.489122 
L 181.845646 303.504148 
L 185.395829 295.268724 
L 188.946013 301.61742 
L 192.496197 302.136028 
L 196.04638 300.332122 
L 199.596564 300.122163 
L 203.146748 300.086751 
L 206.696931 302.733782 
L 210.247115 303.507244 
L 213.797299 299.703213 
L 217.347482 300.2642 
L 220.897666 302.194275 
L 224.44785 299.072562 
L 227.998033 306.902775 
L 231.548217 307.195169 
L 235.0984 306.796924 
L 238.648584 306.107446 
L 242.198768 302.463061 
L 245.748951 303.19666 
L 249.299135 300.584267 
L 252.849319 305.669145 
L 256.399502 302.755068 
L 259.949686 304.797186 
L 263.49987 303.932 
L 267.050053 303.13493 
L 270.600237 303.907811 
L 274.150421 302.527306 
L 277.700604 301.043854 
L 281.250788 303.871238 
L 284.800972 301.889883 
L 288.351155 303.793446 
L 291.901339 306.46486 
L 295.451523 303.757453 
L 299.001706 299.375212 
L 302.55189 299.42359 
L 306.102074 303.52853 
L 309.652257 301.29 
L 313.202441 304.002051 
L 316.752625 300.448035 
L 320.302808 303.233427 
L 323.852992 303.246392 
L 327.403176 300.849957 
L 330.953359 299.276135 
L 334.503543 305.220587 
L 338.053726 299.562144 
L 341.60391 301.40301 
L 345.154094 295.494744 
L 348.704277 302.546464 
L 352.254461 304.863947 
L 355.804645 299.804999 
L 359.354828 303.659924 
L 362.905012 300.180603 
L 366.455196 300.928135 
L 370.005379 302.197177 
L 373.555563 299.043342 
L 377.105747 302.972768 
L 380.65593 301.880788 
L 384.206114 305.519367 
L 387.756298 301.352697 
L 391.306481 300.674249 
L 394.856665 302.253489 
L 398.406849 304.081197 
L 401.957032 301.149124 
L 405.507216 302.420102 
" clip-path="url(#pde3cee850a)" style="fill: none; stroke: #ff7f0e; stroke-width: 1.5; stroke-linecap: square"/>
   </g>
   <g id="patch_3">
    <path d="M 36.465625 327.558125 
L 36.465625 22.318125 
" style="fill: none; stroke: #000000; stroke-width: 0.8; stroke-linejoin: miter; stroke-linecap: square"/>
   </g>
   <g id="patch_4">
    <path d="M 423.080625 327.558125 
L 423.080625 22.318125 
" style="fill: none; stroke: #000000; stroke-width: 0.8; stroke-linejoin: miter; stroke-linecap: square"/>
   </g>
   <g id="patch_5">
    <path d="M 36.465625 327.558125 
L 423.080625 327.558125 
" style="fill: none; stroke: #000000; stroke-width: 0.8; stroke-linejoin: miter; stroke-linecap: square"/>
   </g>
   <g id="patch_6">
    <path d="M 36.465625 22.318125 
L 423.080625 22.318125 
" style="fill: none; stroke: #000000; stroke-width: 0.8; stroke-linejoin: miter; stroke-linecap: square"/>
   </g>
   <g id="text_11">
    <!-- Model Loss (Neural Network - Undersampling) -->
    <g transform="translate(91.807813 16.318125) scale(0.12 -0.12)">
     <defs>
      <path id="DejaVuSans-4d" d="M 628 4666 
L 1569 4666 
L 2759 1491 
L 3956 4666 
L 4897 4666 
L 4897 0 
L 4281 0 
L 4281 4097 
L 3078 897 
L 2444 897 
L 1241 4097 
L 1241 0 
L 628 0 
L 628 4666 
z
" transform="scale(0.015625)"/>
      <path id="DejaVuSans-6f" d="M 1959 3097 
Q 1497 3097 1228 2736 
Q 959 2375 959 1747 
Q 959 1119 1226 758 
Q 1494 397 1959 397 
Q 2419 397 2687 759 
Q 2956 1122 2956 1747 
Q 2956 2369 2687 2733 
Q 2419 3097 1959 3097 
z
M 1959 3584 
Q 2709 3584 3137 3096 
Q 3566 2609 3566 1747 
Q 3566 888 3137 398 
Q 2709 -91 1959 -91 
Q 1206 -91 779 398 
Q 353 888 353 1747 
Q 353 2609 779 3096 
Q 1206 3584 1959 3584 
z
" transform="scale(0.015625)"/>
      <path id="DejaVuSans-64" d="M 2906 2969 
L 2906 4863 
L 3481 4863 
L 3481 0 
L 2906 0 
L 2906 525 
Q 2725 213 2448 61 
Q 2172 -91 1784 -91 
Q 1150 -91 751 415 
Q 353 922 353 1747 
Q 353 2572 751 3078 
Q 1150 3584 1784 3584 
Q 2172 3584 2448 3432 
Q 2725 3281 2906 2969 
z
M 947 1747 
Q 947 1113 1208 752 
Q 1469 391 1925 391 
Q 2381 391 2643 752 
Q 2906 1113 2906 1747 
Q 2906 2381 2643 2742 
Q 2381 3103 1925 3103 
Q 1469 3103 1208 2742 
Q 947 2381 947 1747 
z
" transform="scale(0.015625)"/>
      <path id="DejaVuSans-65" d="M 3597 1894 
L 3597 1613 
L 953 1613 
Q 991 1019 1311 708 
Q 1631 397 2203 397 
Q 2534 397 2845 478 
Q 3156 559 3463 722 
L 3463 178 
Q 3153 47 2828 -22 
Q 2503 -91 2169 -91 
Q 1331 -91 842 396 
Q 353 884 353 1716 
Q 353 2575 817 3079 
Q 1281 3584 2069 3584 
Q 2775 3584 3186 3129 
Q 3597 2675 3597 1894 
z
M 3022 2063 
Q 3016 2534 2758 2815 
Q 2500 3097 2075 3097 
Q 1594 3097 1305 2825 
Q 1016 2553 972 2059 
L 3022 2063 
z
" transform="scale(0.015625)"/>
      <path id="DejaVuSans-6c" d="M 603 4863 
L 1178 4863 
L 1178 0 
L 603 0 
L 603 4863 
z
" transform="scale(0.015625)"/>
      <path id="DejaVuSans-20" transform="scale(0.015625)"/>
      <path id="DejaVuSans-4c" d="M 628 4666 
L 1259 4666 
L 1259 531 
L 3531 531 
L 3531 0 
L 628 0 
L 628 4666 
z
" transform="scale(0.015625)"/>
      <path id="DejaVuSans-73" d="M 2834 3397 
L 2834 2853 
Q 2591 2978 2328 3040 
Q 2066 3103 1784 3103 
Q 1356 3103 1142 2972 
Q 928 2841 928 2578 
Q 928 2378 1081 2264 
Q 1234 2150 1697 2047 
L 1894 2003 
Q 2506 1872 2764 1633 
Q 3022 1394 3022 966 
Q 3022 478 2636 193 
Q 2250 -91 1575 -91 
Q 1294 -91 989 -36 
Q 684 19 347 128 
L 347 722 
Q 666 556 975 473 
Q 1284 391 1588 391 
Q 1994 391 2212 530 
Q 2431 669 2431 922 
Q 2431 1156 2273 1281 
Q 2116 1406 1581 1522 
L 1381 1569 
Q 847 1681 609 1914 
Q 372 2147 372 2553 
Q 372 3047 722 3315 
Q 1072 3584 1716 3584 
Q 2034 3584 2315 3537 
Q 2597 3491 2834 3397 
z
" transform="scale(0.015625)"/>
      <path id="DejaVuSans-28" d="M 1984 4856 
Q 1566 4138 1362 3434 
Q 1159 2731 1159 2009 
Q 1159 1288 1364 580 
Q 1569 -128 1984 -844 
L 1484 -844 
Q 1016 -109 783 600 
Q 550 1309 550 2009 
Q 550 2706 781 3412 
Q 1013 4119 1484 4856 
L 1984 4856 
z
" transform="scale(0.015625)"/>
      <path id="DejaVuSans-4e" d="M 628 4666 
L 1478 4666 
L 3547 763 
L 3547 4666 
L 4159 4666 
L 4159 0 
L 3309 0 
L 1241 3903 
L 1241 0 
L 628 0 
L 628 4666 
z
" transform="scale(0.015625)"/>
      <path id="DejaVuSans-75" d="M 544 1381 
L 544 3500 
L 1119 3500 
L 1119 1403 
Q 1119 906 1312 657 
Q 1506 409 1894 409 
Q 2359 409 2629 706 
Q 2900 1003 2900 1516 
L 2900 3500 
L 3475 3500 
L 3475 0 
L 2900 0 
L 2900 538 
Q 2691 219 2414 64 
Q 2138 -91 1772 -91 
Q 1169 -91 856 284 
Q 544 659 544 1381 
z
M 1991 3584 
L 1991 3584 
z
" transform="scale(0.015625)"/>
      <path id="DejaVuSans-72" d="M 2631 2963 
Q 2534 3019 2420 3045 
Q 2306 3072 2169 3072 
Q 1681 3072 1420 2755 
Q 1159 2438 1159 1844 
L 1159 0 
L 581 0 
L 581 3500 
L 1159 3500 
L 1159 2956 
Q 1341 3275 1631 3429 
Q 1922 3584 2338 3584 
Q 2397 3584 2469 3576 
Q 2541 3569 2628 3553 
L 2631 2963 
z
" transform="scale(0.015625)"/>
      <path id="DejaVuSans-61" d="M 2194 1759 
Q 1497 1759 1228 1600 
Q 959 1441 959 1056 
Q 959 750 1161 570 
Q 1363 391 1709 391 
Q 2188 391 2477 730 
Q 2766 1069 2766 1631 
L 2766 1759 
L 2194 1759 
z
M 3341 1997 
L 3341 0 
L 2766 0 
L 2766 531 
Q 2569 213 2275 61 
Q 1981 -91 1556 -91 
Q 1019 -91 701 211 
Q 384 513 384 1019 
Q 384 1609 779 1909 
Q 1175 2209 1959 2209 
L 2766 2209 
L 2766 2266 
Q 2766 2663 2505 2880 
Q 2244 3097 1772 3097 
Q 1472 3097 1187 3025 
Q 903 2953 641 2809 
L 641 3341 
Q 956 3463 1253 3523 
Q 1550 3584 1831 3584 
Q 2591 3584 2966 3190 
Q 3341 2797 3341 1997 
z
" transform="scale(0.015625)"/>
      <path id="DejaVuSans-74" d="M 1172 4494 
L 1172 3500 
L 2356 3500 
L 2356 3053 
L 1172 3053 
L 1172 1153 
Q 1172 725 1289 603 
Q 1406 481 1766 481 
L 2356 481 
L 2356 0 
L 1766 0 
Q 1100 0 847 248 
Q 594 497 594 1153 
L 594 3053 
L 172 3053 
L 172 3500 
L 594 3500 
L 594 4494 
L 1172 4494 
z
" transform="scale(0.015625)"/>
      <path id="DejaVuSans-77" d="M 269 3500 
L 844 3500 
L 1563 769 
L 2278 3500 
L 2956 3500 
L 3675 769 
L 4391 3500 
L 4966 3500 
L 4050 0 
L 3372 0 
L 2619 2869 
L 1863 0 
L 1184 0 
L 269 3500 
z
" transform="scale(0.015625)"/>
      <path id="DejaVuSans-6b" d="M 581 4863 
L 1159 4863 
L 1159 1991 
L 2875 3500 
L 3609 3500 
L 1753 1863 
L 3688 0 
L 2938 0 
L 1159 1709 
L 1159 0 
L 581 0 
L 581 4863 
z
" transform="scale(0.015625)"/>
      <path id="DejaVuSans-2d" d="M 313 2009 
L 1997 2009 
L 1997 1497 
L 313 1497 
L 313 2009 
z
" transform="scale(0.015625)"/>
      <path id="DejaVuSans-55" d="M 556 4666 
L 1191 4666 
L 1191 1831 
Q 1191 1081 1462 751 
Q 1734 422 2344 422 
Q 2950 422 3222 751 
Q 3494 1081 3494 1831 
L 3494 4666 
L 4128 4666 
L 4128 1753 
Q 4128 841 3676 375 
Q 3225 -91 2344 -91 
Q 1459 -91 1007 375 
Q 556 841 556 1753 
L 556 4666 
z
" transform="scale(0.015625)"/>
      <path id="DejaVuSans-6e" d="M 3513 2113 
L 3513 0 
L 2938 0 
L 2938 2094 
Q 2938 2591 2744 2837 
Q 2550 3084 2163 3084 
Q 1697 3084 1428 2787 
Q 1159 2491 1159 1978 
L 1159 0 
L 581 0 
L 581 3500 
L 1159 3500 
L 1159 2956 
Q 1366 3272 1645 3428 
Q 1925 3584 2291 3584 
Q 2894 3584 3203 3211 
Q 3513 2838 3513 2113 
z
" transform="scale(0.015625)"/>
      <path id="DejaVuSans-6d" d="M 3328 2828 
Q 3544 3216 3844 3400 
Q 4144 3584 4550 3584 
Q 5097 3584 5394 3201 
Q 5691 2819 5691 2113 
L 5691 0 
L 5113 0 
L 5113 2094 
Q 5113 2597 4934 2840 
Q 4756 3084 4391 3084 
Q 3944 3084 3684 2787 
Q 3425 2491 3425 1978 
L 3425 0 
L 2847 0 
L 2847 2094 
Q 2847 2600 2669 2842 
Q 2491 3084 2119 3084 
Q 1678 3084 1418 2786 
Q 1159 2488 1159 1978 
L 1159 0 
L 581 0 
L 581 3500 
L 1159 3500 
L 1159 2956 
Q 1356 3278 1631 3431 
Q 1906 3584 2284 3584 
Q 2666 3584 2933 3390 
Q 3200 3197 3328 2828 
z
" transform="scale(0.015625)"/>
      <path id="DejaVuSans-70" d="M 1159 525 
L 1159 -1331 
L 581 -1331 
L 581 3500 
L 1159 3500 
L 1159 2969 
Q 1341 3281 1617 3432 
Q 1894 3584 2278 3584 
Q 2916 3584 3314 3078 
Q 3713 2572 3713 1747 
Q 3713 922 3314 415 
Q 2916 -91 2278 -91 
Q 1894 -91 1617 61 
Q 1341 213 1159 525 
z
M 3116 1747 
Q 3116 2381 2855 2742 
Q 2594 3103 2138 3103 
Q 1681 3103 1420 2742 
Q 1159 2381 1159 1747 
Q 1159 1113 1420 752 
Q 1681 391 2138 391 
Q 2594 391 2855 752 
Q 3116 1113 3116 1747 
z
" transform="scale(0.015625)"/>
      <path id="DejaVuSans-69" d="M 603 3500 
L 1178 3500 
L 1178 0 
L 603 0 
L 603 3500 
z
M 603 4863 
L 1178 4863 
L 1178 4134 
L 603 4134 
L 603 4863 
z
" transform="scale(0.015625)"/>
      <path id="DejaVuSans-67" d="M 2906 1791 
Q 2906 2416 2648 2759 
Q 2391 3103 1925 3103 
Q 1463 3103 1205 2759 
Q 947 2416 947 1791 
Q 947 1169 1205 825 
Q 1463 481 1925 481 
Q 2391 481 2648 825 
Q 2906 1169 2906 1791 
z
M 3481 434 
Q 3481 -459 3084 -895 
Q 2688 -1331 1869 -1331 
Q 1566 -1331 1297 -1286 
Q 1028 -1241 775 -1147 
L 775 -588 
Q 1028 -725 1275 -790 
Q 1522 -856 1778 -856 
Q 2344 -856 2625 -561 
Q 2906 -266 2906 331 
L 2906 616 
Q 2728 306 2450 153 
Q 2172 0 1784 0 
Q 1141 0 747 490 
Q 353 981 353 1791 
Q 353 2603 747 3093 
Q 1141 3584 1784 3584 
Q 2172 3584 2450 3431 
Q 2728 3278 2906 2969 
L 2906 3500 
L 3481 3500 
L 3481 434 
z
" transform="scale(0.015625)"/>
      <path id="DejaVuSans-29" d="M 513 4856 
L 1013 4856 
Q 1481 4119 1714 3412 
Q 1947 2706 1947 2009 
Q 1947 1309 1714 600 
Q 1481 -109 1013 -844 
L 513 -844 
Q 928 -128 1133 580 
Q 1338 1288 1338 2009 
Q 1338 2731 1133 3434 
Q 928 4138 513 4856 
z
" transform="scale(0.015625)"/>
     </defs>
     <use xlink:href="#DejaVuSans-4d"/>
     <use xlink:href="#DejaVuSans-6f" transform="translate(86.279297 0)"/>
     <use xlink:href="#DejaVuSans-64" transform="translate(147.460938 0)"/>
     <use xlink:href="#DejaVuSans-65" transform="translate(210.9375 0)"/>
     <use xlink:href="#DejaVuSans-6c" transform="translate(272.460938 0)"/>
     <use xlink:href="#DejaVuSans-20" transform="translate(300.244141 0)"/>
     <use xlink:href="#DejaVuSans-4c" transform="translate(332.03125 0)"/>
     <use xlink:href="#DejaVuSans-6f" transform="translate(385.994141 0)"/>
     <use xlink:href="#DejaVuSans-73" transform="translate(447.175781 0)"/>
     <use xlink:href="#DejaVuSans-73" transform="translate(499.275391 0)"/>
     <use xlink:href="#DejaVuSans-20" transform="translate(551.375 0)"/>
     <use xlink:href="#DejaVuSans-28" transform="translate(583.162109 0)"/>
     <use xlink:href="#DejaVuSans-4e" transform="translate(622.175781 0)"/>
     <use xlink:href="#DejaVuSans-65" transform="translate(696.980469 0)"/>
     <use xlink:href="#DejaVuSans-75" transform="translate(758.503906 0)"/>
     <use xlink:href="#DejaVuSans-72" transform="translate(821.882812 0)"/>
     <use xlink:href="#DejaVuSans-61" transform="translate(862.996094 0)"/>
     <use xlink:href="#DejaVuSans-6c" transform="translate(924.275391 0)"/>
     <use xlink:href="#DejaVuSans-20" transform="translate(952.058594 0)"/>
     <use xlink:href="#DejaVuSans-4e" transform="translate(983.845703 0)"/>
     <use xlink:href="#DejaVuSans-65" transform="translate(1058.650391 0)"/>
     <use xlink:href="#DejaVuSans-74" transform="translate(1120.173828 0)"/>
     <use xlink:href="#DejaVuSans-77" transform="translate(1159.382812 0)"/>
     <use xlink:href="#DejaVuSans-6f" transform="translate(1241.169922 0)"/>
     <use xlink:href="#DejaVuSans-72" transform="translate(1302.351562 0)"/>
     <use xlink:href="#DejaVuSans-6b" transform="translate(1343.464844 0)"/>
     <use xlink:href="#DejaVuSans-20" transform="translate(1401.375 0)"/>
     <use xlink:href="#DejaVuSans-2d" transform="translate(1433.162109 0)"/>
     <use xlink:href="#DejaVuSans-20" transform="translate(1469.246094 0)"/>
     <use xlink:href="#DejaVuSans-55" transform="translate(1501.033203 0)"/>
     <use xlink:href="#DejaVuSans-6e" transform="translate(1574.226562 0)"/>
     <use xlink:href="#DejaVuSans-64" transform="translate(1637.605469 0)"/>
     <use xlink:href="#DejaVuSans-65" transform="translate(1701.082031 0)"/>
     <use xlink:href="#DejaVuSans-72" transform="translate(1762.605469 0)"/>
     <use xlink:href="#DejaVuSans-73" transform="translate(1803.71875 0)"/>
     <use xlink:href="#DejaVuSans-61" transform="translate(1855.818359 0)"/>
     <use xlink:href="#DejaVuSans-6d" transform="translate(1917.097656 0)"/>
     <use xlink:href="#DejaVuSans-70" transform="translate(2014.509766 0)"/>
     <use xlink:href="#DejaVuSans-6c" transform="translate(2077.986328 0)"/>
     <use xlink:href="#DejaVuSans-69" transform="translate(2105.769531 0)"/>
     <use xlink:href="#DejaVuSans-6e" transform="translate(2133.552734 0)"/>
     <use xlink:href="#DejaVuSans-67" transform="translate(2196.931641 0)"/>
     <use xlink:href="#DejaVuSans-29" transform="translate(2260.408203 0)"/>
    </g>
   </g>
   <g id="legend_1">
    <g id="patch_7">
     <path d="M 334.980625 59.674375 
L 416.080625 59.674375 
Q 418.080625 59.674375 418.080625 57.674375 
L 418.080625 29.318125 
Q 418.080625 27.318125 416.080625 27.318125 
L 334.980625 27.318125 
Q 332.980625 27.318125 332.980625 29.318125 
L 332.980625 57.674375 
Q 332.980625 59.674375 334.980625 59.674375 
z
" style="fill: #ffffff; opacity: 0.8; stroke: #cccccc; stroke-linejoin: miter"/>
    </g>
    <g id="line2d_13">
     <path d="M 336.980625 35.416562 
L 346.980625 35.416562 
L 356.980625 35.416562 
" style="fill: none; stroke: #1f77b4; stroke-width: 1.5; stroke-linecap: square"/>
    </g>
    <g id="text_12">
     <!-- Train Loss -->
     <g transform="translate(364.980625 38.916562) scale(0.1 -0.1)">
      <defs>
       <path id="DejaVuSans-54" d="M -19 4666 
L 3928 4666 
L 3928 4134 
L 2272 4134 
L 2272 0 
L 1638 0 
L 1638 4134 
L -19 4134 
L -19 4666 
z
" transform="scale(0.015625)"/>
      </defs>
      <use xlink:href="#DejaVuSans-54"/>
      <use xlink:href="#DejaVuSans-72" transform="translate(46.333984 0)"/>
      <use xlink:href="#DejaVuSans-61" transform="translate(87.447266 0)"/>
      <use xlink:href="#DejaVuSans-69" transform="translate(148.726562 0)"/>
      <use xlink:href="#DejaVuSans-6e" transform="translate(176.509766 0)"/>
      <use xlink:href="#DejaVuSans-20" transform="translate(239.888672 0)"/>
      <use xlink:href="#DejaVuSans-4c" transform="translate(271.675781 0)"/>
      <use xlink:href="#DejaVuSans-6f" transform="translate(325.638672 0)"/>
      <use xlink:href="#DejaVuSans-73" transform="translate(386.820312 0)"/>
      <use xlink:href="#DejaVuSans-73" transform="translate(438.919922 0)"/>
     </g>
    </g>
    <g id="line2d_14">
     <path d="M 336.980625 50.094688 
L 346.980625 50.094688 
L 356.980625 50.094688 
" style="fill: none; stroke: #ff7f0e; stroke-width: 1.5; stroke-linecap: square"/>
    </g>
    <g id="text_13">
     <!-- Val Loss -->
     <g transform="translate(364.980625 53.594688) scale(0.1 -0.1)">
      <defs>
       <path id="DejaVuSans-56" d="M 1831 0 
L 50 4666 
L 709 4666 
L 2188 738 
L 3669 4666 
L 4325 4666 
L 2547 0 
L 1831 0 
z
" transform="scale(0.015625)"/>
      </defs>
      <use xlink:href="#DejaVuSans-56"/>
      <use xlink:href="#DejaVuSans-61" transform="translate(60.658203 0)"/>
      <use xlink:href="#DejaVuSans-6c" transform="translate(121.9375 0)"/>
      <use xlink:href="#DejaVuSans-20" transform="translate(149.720703 0)"/>
      <use xlink:href="#DejaVuSans-4c" transform="translate(181.507812 0)"/>
      <use xlink:href="#DejaVuSans-6f" transform="translate(235.470703 0)"/>
      <use xlink:href="#DejaVuSans-73" transform="translate(296.652344 0)"/>
      <use xlink:href="#DejaVuSans-73" transform="translate(348.751953 0)"/>
     </g>
    </g>
   </g>
  </g>
  <g id="axes_2">
   <g id="patch_8">
    <path d="M 463.110625 327.558125 
L 849.725625 327.558125 
L 849.725625 22.318125 
L 463.110625 22.318125 
z
" style="fill: #ffffff"/>
   </g>
   <g id="matplotlib.axis_3">
    <g id="xtick_7">
     <g id="line2d_15">
      <g>
       <use xlink:href="#m44f0b7cd9d" x="480.684034" y="327.558125" style="stroke: #000000; stroke-width: 0.8"/>
      </g>
     </g>
     <g id="text_14">
      <!-- 0 -->
      <g transform="translate(477.502784 342.156563) scale(0.1 -0.1)">
       <use xlink:href="#DejaVuSans-30"/>
      </g>
     </g>
    </g>
    <g id="xtick_8">
     <g id="line2d_16">
      <g>
       <use xlink:href="#m44f0b7cd9d" x="551.687707" y="327.558125" style="stroke: #000000; stroke-width: 0.8"/>
      </g>
     </g>
     <g id="text_15">
      <!-- 20 -->
      <g transform="translate(545.325207 342.156563) scale(0.1 -0.1)">
       <use xlink:href="#DejaVuSans-32"/>
       <use xlink:href="#DejaVuSans-30" transform="translate(63.623047 0)"/>
      </g>
     </g>
    </g>
    <g id="xtick_9">
     <g id="line2d_17">
      <g>
       <use xlink:href="#m44f0b7cd9d" x="622.69138" y="327.558125" style="stroke: #000000; stroke-width: 0.8"/>
      </g>
     </g>
     <g id="text_16">
      <!-- 40 -->
      <g transform="translate(616.32888 342.156563) scale(0.1 -0.1)">
       <use xlink:href="#DejaVuSans-34"/>
       <use xlink:href="#DejaVuSans-30" transform="translate(63.623047 0)"/>
      </g>
     </g>
    </g>
    <g id="xtick_10">
     <g id="line2d_18">
      <g>
       <use xlink:href="#m44f0b7cd9d" x="693.695053" y="327.558125" style="stroke: #000000; stroke-width: 0.8"/>
      </g>
     </g>
     <g id="text_17">
      <!-- 60 -->
      <g transform="translate(687.332553 342.156563) scale(0.1 -0.1)">
       <use xlink:href="#DejaVuSans-36"/>
       <use xlink:href="#DejaVuSans-30" transform="translate(63.623047 0)"/>
      </g>
     </g>
    </g>
    <g id="xtick_11">
     <g id="line2d_19">
      <g>
       <use xlink:href="#m44f0b7cd9d" x="764.698726" y="327.558125" style="stroke: #000000; stroke-width: 0.8"/>
      </g>
     </g>
     <g id="text_18">
      <!-- 80 -->
      <g transform="translate(758.336226 342.156563) scale(0.1 -0.1)">
       <use xlink:href="#DejaVuSans-38"/>
       <use xlink:href="#DejaVuSans-30" transform="translate(63.623047 0)"/>
      </g>
     </g>
    </g>
    <g id="xtick_12">
     <g id="line2d_20">
      <g>
       <use xlink:href="#m44f0b7cd9d" x="835.7024" y="327.558125" style="stroke: #000000; stroke-width: 0.8"/>
      </g>
     </g>
     <g id="text_19">
      <!-- 100 -->
      <g transform="translate(826.15865 342.156563) scale(0.1 -0.1)">
       <use xlink:href="#DejaVuSans-31"/>
       <use xlink:href="#DejaVuSans-30" transform="translate(63.623047 0)"/>
       <use xlink:href="#DejaVuSans-30" transform="translate(127.246094 0)"/>
      </g>
     </g>
    </g>
   </g>
   <g id="matplotlib.axis_4">
    <g id="ytick_5">
     <g id="line2d_21">
      <g>
       <use xlink:href="#mb352a4ec5f" x="463.110625" y="299.86249" style="stroke: #000000; stroke-width: 0.8"/>
      </g>
     </g>
     <g id="text_20">
      <!-- 0.69 -->
      <g transform="translate(433.845 303.661709) scale(0.1 -0.1)">
       <defs>
        <path id="DejaVuSans-39" d="M 703 97 
L 703 672 
Q 941 559 1184 500 
Q 1428 441 1663 441 
Q 2288 441 2617 861 
Q 2947 1281 2994 2138 
Q 2813 1869 2534 1725 
Q 2256 1581 1919 1581 
Q 1219 1581 811 2004 
Q 403 2428 403 3163 
Q 403 3881 828 4315 
Q 1253 4750 1959 4750 
Q 2769 4750 3195 4129 
Q 3622 3509 3622 2328 
Q 3622 1225 3098 567 
Q 2575 -91 1691 -91 
Q 1453 -91 1209 -44 
Q 966 3 703 97 
z
M 1959 2075 
Q 2384 2075 2632 2365 
Q 2881 2656 2881 3163 
Q 2881 3666 2632 3958 
Q 2384 4250 1959 4250 
Q 1534 4250 1286 3958 
Q 1038 3666 1038 3163 
Q 1038 2656 1286 2365 
Q 1534 2075 1959 2075 
z
" transform="scale(0.015625)"/>
       </defs>
       <use xlink:href="#DejaVuSans-30"/>
       <use xlink:href="#DejaVuSans-2e" transform="translate(63.623047 0)"/>
       <use xlink:href="#DejaVuSans-36" transform="translate(95.410156 0)"/>
       <use xlink:href="#DejaVuSans-39" transform="translate(159.033203 0)"/>
      </g>
     </g>
    </g>
    <g id="ytick_6">
     <g id="line2d_22">
      <g>
       <use xlink:href="#mb352a4ec5f" x="463.110625" y="260.189748" style="stroke: #000000; stroke-width: 0.8"/>
      </g>
     </g>
     <g id="text_21">
      <!-- 0.70 -->
      <g transform="translate(433.845 263.988966) scale(0.1 -0.1)">
       <defs>
        <path id="DejaVuSans-37" d="M 525 4666 
L 3525 4666 
L 3525 4397 
L 1831 0 
L 1172 0 
L 2766 4134 
L 525 4134 
L 525 4666 
z
" transform="scale(0.015625)"/>
       </defs>
       <use xlink:href="#DejaVuSans-30"/>
       <use xlink:href="#DejaVuSans-2e" transform="translate(63.623047 0)"/>
       <use xlink:href="#DejaVuSans-37" transform="translate(95.410156 0)"/>
       <use xlink:href="#DejaVuSans-30" transform="translate(159.033203 0)"/>
      </g>
     </g>
    </g>
    <g id="ytick_7">
     <g id="line2d_23">
      <g>
       <use xlink:href="#mb352a4ec5f" x="463.110625" y="220.517005" style="stroke: #000000; stroke-width: 0.8"/>
      </g>
     </g>
     <g id="text_22">
      <!-- 0.71 -->
      <g transform="translate(433.845 224.316224) scale(0.1 -0.1)">
       <use xlink:href="#DejaVuSans-30"/>
       <use xlink:href="#DejaVuSans-2e" transform="translate(63.623047 0)"/>
       <use xlink:href="#DejaVuSans-37" transform="translate(95.410156 0)"/>
       <use xlink:href="#DejaVuSans-31" transform="translate(159.033203 0)"/>
      </g>
     </g>
    </g>
    <g id="ytick_8">
     <g id="line2d_24">
      <g>
       <use xlink:href="#mb352a4ec5f" x="463.110625" y="180.844263" style="stroke: #000000; stroke-width: 0.8"/>
      </g>
     </g>
     <g id="text_23">
      <!-- 0.72 -->
      <g transform="translate(433.845 184.643481) scale(0.1 -0.1)">
       <use xlink:href="#DejaVuSans-30"/>
       <use xlink:href="#DejaVuSans-2e" transform="translate(63.623047 0)"/>
       <use xlink:href="#DejaVuSans-37" transform="translate(95.410156 0)"/>
       <use xlink:href="#DejaVuSans-32" transform="translate(159.033203 0)"/>
      </g>
     </g>
    </g>
    <g id="ytick_9">
     <g id="line2d_25">
      <g>
       <use xlink:href="#mb352a4ec5f" x="463.110625" y="141.17152" style="stroke: #000000; stroke-width: 0.8"/>
      </g>
     </g>
     <g id="text_24">
      <!-- 0.73 -->
      <g transform="translate(433.845 144.970739) scale(0.1 -0.1)">
       <defs>
        <path id="DejaVuSans-33" d="M 2597 2516 
Q 3050 2419 3304 2112 
Q 3559 1806 3559 1356 
Q 3559 666 3084 287 
Q 2609 -91 1734 -91 
Q 1441 -91 1130 -33 
Q 819 25 488 141 
L 488 750 
Q 750 597 1062 519 
Q 1375 441 1716 441 
Q 2309 441 2620 675 
Q 2931 909 2931 1356 
Q 2931 1769 2642 2001 
Q 2353 2234 1838 2234 
L 1294 2234 
L 1294 2753 
L 1863 2753 
Q 2328 2753 2575 2939 
Q 2822 3125 2822 3475 
Q 2822 3834 2567 4026 
Q 2313 4219 1838 4219 
Q 1578 4219 1281 4162 
Q 984 4106 628 3988 
L 628 4550 
Q 988 4650 1302 4700 
Q 1616 4750 1894 4750 
Q 2613 4750 3031 4423 
Q 3450 4097 3450 3541 
Q 3450 3153 3228 2886 
Q 3006 2619 2597 2516 
z
" transform="scale(0.015625)"/>
       </defs>
       <use xlink:href="#DejaVuSans-30"/>
       <use xlink:href="#DejaVuSans-2e" transform="translate(63.623047 0)"/>
       <use xlink:href="#DejaVuSans-37" transform="translate(95.410156 0)"/>
       <use xlink:href="#DejaVuSans-33" transform="translate(159.033203 0)"/>
      </g>
     </g>
    </g>
    <g id="ytick_10">
     <g id="line2d_26">
      <g>
       <use xlink:href="#mb352a4ec5f" x="463.110625" y="101.498778" style="stroke: #000000; stroke-width: 0.8"/>
      </g>
     </g>
     <g id="text_25">
      <!-- 0.74 -->
      <g transform="translate(433.845 105.297996) scale(0.1 -0.1)">
       <use xlink:href="#DejaVuSans-30"/>
       <use xlink:href="#DejaVuSans-2e" transform="translate(63.623047 0)"/>
       <use xlink:href="#DejaVuSans-37" transform="translate(95.410156 0)"/>
       <use xlink:href="#DejaVuSans-34" transform="translate(159.033203 0)"/>
      </g>
     </g>
    </g>
    <g id="ytick_11">
     <g id="line2d_27">
      <g>
       <use xlink:href="#mb352a4ec5f" x="463.110625" y="61.826035" style="stroke: #000000; stroke-width: 0.8"/>
      </g>
     </g>
     <g id="text_26">
      <!-- 0.75 -->
      <g transform="translate(433.845 65.625254) scale(0.1 -0.1)">
       <use xlink:href="#DejaVuSans-30"/>
       <use xlink:href="#DejaVuSans-2e" transform="translate(63.623047 0)"/>
       <use xlink:href="#DejaVuSans-37" transform="translate(95.410156 0)"/>
       <use xlink:href="#DejaVuSans-35" transform="translate(159.033203 0)"/>
      </g>
     </g>
    </g>
   </g>
   <g id="line2d_28">
    <path d="M 480.684034 313.68358 
L 484.234218 115.38674 
L 487.784401 85.989515 
L 491.334585 72.538271 
L 494.884769 76.724936 
L 498.434952 73.607106 
L 501.985136 65.322451 
L 505.53532 64.253615 
L 509.085503 63.451752 
L 512.635687 62.20462 
L 516.185871 56.236169 
L 519.736054 58.997642 
L 523.286238 56.859735 
L 526.836422 61.848263 
L 530.386605 55.523454 
L 533.936789 58.017718 
L 537.486973 58.196015 
L 541.037156 60.423071 
L 544.58734 58.908493 
L 548.137524 57.75051 
L 551.687707 54.989037 
L 555.237891 54.454383 
L 558.788074 59.532059 
L 562.338258 52.850893 
L 565.888442 51.603761 
L 569.438625 55.345394 
L 572.988809 51.24764 
L 576.538993 56.592526 
L 580.089176 59.264851 
L 583.63936 56.503378 
L 587.189544 57.572449 
L 590.739727 59.264851 
L 594.289911 53.118339 
L 597.840095 54.899888 
L 601.390278 56.057872 
L 604.940462 48.129574 
L 608.490646 55.879811 
L 612.040829 56.770586 
L 615.591013 53.02919 
L 619.141197 46.258876 
L 622.69138 52.227327 
L 626.241564 53.652756 
L 629.791748 51.336552 
L 633.341931 55.701751 
L 636.892115 48.931437 
L 640.442299 48.842288 
L 643.992482 54.276322 
L 647.542666 56.057872 
L 651.09285 48.575079 
L 654.643033 46.704381 
L 658.193217 47.862365 
L 661.7434 50.08942 
L 665.293584 43.230194 
L 668.843768 47.773216 
L 672.393951 52.672833 
L 675.944135 48.75314 
L 679.494319 51.603761 
L 683.044502 53.296399 
L 686.594686 49.733063 
L 690.14487 50.267717 
L 693.695053 47.506008 
L 697.245237 49.733063 
L 700.795421 49.555003 
L 704.345604 44.922595 
L 707.895788 50.534926 
L 711.445972 46.348024 
L 714.996155 51.069344 
L 718.546339 47.14965 
L 722.096523 53.118339 
L 725.646706 45.457249 
L 729.19689 52.227327 
L 732.747074 47.595156 
L 736.297257 46.79353 
L 739.847441 50.000272 
L 743.397625 48.931437 
L 746.947808 42.784688 
L 750.497992 44.744535 
L 754.048176 45.19004 
L 757.598359 44.120969 
L 761.148543 50.000272 
L 764.698726 50.356629 
L 768.24891 51.425701 
L 771.799094 43.764611 
L 775.349277 49.555003 
L 778.899461 39.934067 
L 782.449645 40.023215 
L 785.999828 36.19267 
L 789.550012 41.804765 
L 793.100196 37.083445 
L 796.650379 38.063369 
L 800.200563 42.339419 
L 803.750747 42.339419 
L 807.30093 44.299029 
L 810.851114 48.396783 
L 814.401298 37.617863 
L 817.951481 41.270347 
L 821.501665 43.497403 
L 825.051849 52.405624 
L 828.602032 42.250271 
L 832.152216 39.488798 
" clip-path="url(#p54b7670998)" style="fill: none; stroke: #1f77b4; stroke-width: 1.5; stroke-linecap: square"/>
   </g>
   <g id="line2d_29">
    <path d="M 480.684034 96.095683 
L 484.234218 100.104052 
L 487.784401 93.690804 
L 491.334585 80.063155 
L 494.884769 80.864781 
L 498.434952 77.658275 
L 501.985136 65.633879 
L 505.53532 60.823884 
L 509.085503 66.435505 
L 512.635687 57.617378 
L 516.185871 60.022257 
L 519.736054 56.014125 
L 523.286238 64.030626 
L 526.836422 63.229 
L 530.386605 53.609246 
L 533.936789 59.220631 
L 537.486973 65.633879 
L 541.037156 69.642011 
L 544.58734 65.633879 
L 548.137524 64.832252 
L 551.687707 76.055022 
L 555.237891 69.642011 
L 558.788074 57.617378 
L 562.338258 67.237132 
L 565.888442 60.022257 
L 569.438625 67.237132 
L 572.988809 47.997861 
L 576.538993 73.650143 
L 580.089176 67.237132 
L 583.63936 53.609246 
L 587.189544 70.443637 
L 590.739727 64.832252 
L 594.289911 68.840385 
L 597.840095 69.642011 
L 601.390278 74.45177 
L 604.940462 72.848517 
L 608.490646 59.220631 
L 612.040829 60.022257 
L 615.591013 52.80762 
L 619.141197 52.005993 
L 622.69138 57.617378 
L 626.241564 63.229 
L 629.791748 68.840385 
L 633.341931 70.443637 
L 636.892115 60.823884 
L 640.442299 68.038758 
L 643.992482 67.237132 
L 647.542666 71.245264 
L 651.09285 56.815752 
L 654.643033 57.617378 
L 658.193217 58.419005 
L 661.7434 52.005993 
L 665.293584 58.419005 
L 668.843768 56.815752 
L 672.393951 56.014125 
L 675.944135 50.40274 
L 679.494319 48.799487 
L 683.044502 39.981597 
L 686.594686 50.40274 
L 690.14487 57.617378 
L 693.695053 58.419005 
L 697.245237 60.823884 
L 700.795421 56.014125 
L 704.345604 45.592982 
L 707.895788 47.196235 
L 711.445972 56.815752 
L 714.996155 48.799487 
L 718.546339 51.204367 
L 722.096523 46.394608 
L 725.646706 42.386476 
L 729.19689 48.799487 
L 732.747074 52.80762 
L 736.297257 49.601114 
L 739.847441 56.815752 
L 743.397625 60.022257 
L 746.947808 56.014125 
L 750.497992 64.030626 
L 754.048176 66.435505 
L 757.598359 66.435505 
L 761.148543 60.823884 
L 764.698726 58.419005 
L 768.24891 63.229 
L 771.799094 62.427373 
L 775.349277 52.005993 
L 778.899461 64.030626 
L 782.449645 60.022257 
L 785.999828 57.617378 
L 789.550012 55.212499 
L 793.100196 59.220631 
L 796.650379 62.427373 
L 800.200563 61.62551 
L 803.750747 64.030626 
L 807.30093 67.237132 
L 810.851114 64.030626 
L 814.401298 54.410872 
L 817.951481 60.022257 
L 821.501665 50.40274 
L 825.051849 63.229 
L 828.602032 65.633879 
L 832.152216 61.62551 
" clip-path="url(#p54b7670998)" style="fill: none; stroke: #ff7f0e; stroke-width: 1.5; stroke-linecap: square"/>
   </g>
   <g id="patch_9">
    <path d="M 463.110625 327.558125 
L 463.110625 22.318125 
" style="fill: none; stroke: #000000; stroke-width: 0.8; stroke-linejoin: miter; stroke-linecap: square"/>
   </g>
   <g id="patch_10">
    <path d="M 849.725625 327.558125 
L 849.725625 22.318125 
" style="fill: none; stroke: #000000; stroke-width: 0.8; stroke-linejoin: miter; stroke-linecap: square"/>
   </g>
   <g id="patch_11">
    <path d="M 463.110625 327.558125 
L 849.725625 327.558125 
" style="fill: none; stroke: #000000; stroke-width: 0.8; stroke-linejoin: miter; stroke-linecap: square"/>
   </g>
   <g id="patch_12">
    <path d="M 463.110625 22.318125 
L 849.725625 22.318125 
" style="fill: none; stroke: #000000; stroke-width: 0.8; stroke-linejoin: miter; stroke-linecap: square"/>
   </g>
   <g id="text_27">
    <!-- Model Accuracy (Neural Network - Undersampling) -->
    <g transform="translate(504.219687 16.318125) scale(0.12 -0.12)">
     <defs>
      <path id="DejaVuSans-41" d="M 2188 4044 
L 1331 1722 
L 3047 1722 
L 2188 4044 
z
M 1831 4666 
L 2547 4666 
L 4325 0 
L 3669 0 
L 3244 1197 
L 1141 1197 
L 716 0 
L 50 0 
L 1831 4666 
z
" transform="scale(0.015625)"/>
      <path id="DejaVuSans-63" d="M 3122 3366 
L 3122 2828 
Q 2878 2963 2633 3030 
Q 2388 3097 2138 3097 
Q 1578 3097 1268 2742 
Q 959 2388 959 1747 
Q 959 1106 1268 751 
Q 1578 397 2138 397 
Q 2388 397 2633 464 
Q 2878 531 3122 666 
L 3122 134 
Q 2881 22 2623 -34 
Q 2366 -91 2075 -91 
Q 1284 -91 818 406 
Q 353 903 353 1747 
Q 353 2603 823 3093 
Q 1294 3584 2113 3584 
Q 2378 3584 2631 3529 
Q 2884 3475 3122 3366 
z
" transform="scale(0.015625)"/>
      <path id="DejaVuSans-79" d="M 2059 -325 
Q 1816 -950 1584 -1140 
Q 1353 -1331 966 -1331 
L 506 -1331 
L 506 -850 
L 844 -850 
Q 1081 -850 1212 -737 
Q 1344 -625 1503 -206 
L 1606 56 
L 191 3500 
L 800 3500 
L 1894 763 
L 2988 3500 
L 3597 3500 
L 2059 -325 
z
" transform="scale(0.015625)"/>
     </defs>
     <use xlink:href="#DejaVuSans-4d"/>
     <use xlink:href="#DejaVuSans-6f" transform="translate(86.279297 0)"/>
     <use xlink:href="#DejaVuSans-64" transform="translate(147.460938 0)"/>
     <use xlink:href="#DejaVuSans-65" transform="translate(210.9375 0)"/>
     <use xlink:href="#DejaVuSans-6c" transform="translate(272.460938 0)"/>
     <use xlink:href="#DejaVuSans-20" transform="translate(300.244141 0)"/>
     <use xlink:href="#DejaVuSans-41" transform="translate(332.03125 0)"/>
     <use xlink:href="#DejaVuSans-63" transform="translate(398.689453 0)"/>
     <use xlink:href="#DejaVuSans-63" transform="translate(453.669922 0)"/>
     <use xlink:href="#DejaVuSans-75" transform="translate(508.650391 0)"/>
     <use xlink:href="#DejaVuSans-72" transform="translate(572.029297 0)"/>
     <use xlink:href="#DejaVuSans-61" transform="translate(613.142578 0)"/>
     <use xlink:href="#DejaVuSans-63" transform="translate(674.421875 0)"/>
     <use xlink:href="#DejaVuSans-79" transform="translate(729.402344 0)"/>
     <use xlink:href="#DejaVuSans-20" transform="translate(788.582031 0)"/>
     <use xlink:href="#DejaVuSans-28" transform="translate(820.369141 0)"/>
     <use xlink:href="#DejaVuSans-4e" transform="translate(859.382812 0)"/>
     <use xlink:href="#DejaVuSans-65" transform="translate(934.1875 0)"/>
     <use xlink:href="#DejaVuSans-75" transform="translate(995.710938 0)"/>
     <use xlink:href="#DejaVuSans-72" transform="translate(1059.089844 0)"/>
     <use xlink:href="#DejaVuSans-61" transform="translate(1100.203125 0)"/>
     <use xlink:href="#DejaVuSans-6c" transform="translate(1161.482422 0)"/>
     <use xlink:href="#DejaVuSans-20" transform="translate(1189.265625 0)"/>
     <use xlink:href="#DejaVuSans-4e" transform="translate(1221.052734 0)"/>
     <use xlink:href="#DejaVuSans-65" transform="translate(1295.857422 0)"/>
     <use xlink:href="#DejaVuSans-74" transform="translate(1357.380859 0)"/>
     <use xlink:href="#DejaVuSans-77" transform="translate(1396.589844 0)"/>
     <use xlink:href="#DejaVuSans-6f" transform="translate(1478.376953 0)"/>
     <use xlink:href="#DejaVuSans-72" transform="translate(1539.558594 0)"/>
     <use xlink:href="#DejaVuSans-6b" transform="translate(1580.671875 0)"/>
     <use xlink:href="#DejaVuSans-20" transform="translate(1638.582031 0)"/>
     <use xlink:href="#DejaVuSans-2d" transform="translate(1670.369141 0)"/>
     <use xlink:href="#DejaVuSans-20" transform="translate(1706.453125 0)"/>
     <use xlink:href="#DejaVuSans-55" transform="translate(1738.240234 0)"/>
     <use xlink:href="#DejaVuSans-6e" transform="translate(1811.433594 0)"/>
     <use xlink:href="#DejaVuSans-64" transform="translate(1874.8125 0)"/>
     <use xlink:href="#DejaVuSans-65" transform="translate(1938.289062 0)"/>
     <use xlink:href="#DejaVuSans-72" transform="translate(1999.8125 0)"/>
     <use xlink:href="#DejaVuSans-73" transform="translate(2040.925781 0)"/>
     <use xlink:href="#DejaVuSans-61" transform="translate(2093.025391 0)"/>
     <use xlink:href="#DejaVuSans-6d" transform="translate(2154.304688 0)"/>
     <use xlink:href="#DejaVuSans-70" transform="translate(2251.716797 0)"/>
     <use xlink:href="#DejaVuSans-6c" transform="translate(2315.193359 0)"/>
     <use xlink:href="#DejaVuSans-69" transform="translate(2342.976562 0)"/>
     <use xlink:href="#DejaVuSans-6e" transform="translate(2370.759766 0)"/>
     <use xlink:href="#DejaVuSans-67" transform="translate(2434.138672 0)"/>
     <use xlink:href="#DejaVuSans-29" transform="translate(2497.615234 0)"/>
    </g>
   </g>
   <g id="legend_2">
    <g id="patch_13">
     <path d="M 737.90375 322.558125 
L 842.725625 322.558125 
Q 844.725625 322.558125 844.725625 320.558125 
L 844.725625 292.201875 
Q 844.725625 290.201875 842.725625 290.201875 
L 737.90375 290.201875 
Q 735.90375 290.201875 735.90375 292.201875 
L 735.90375 320.558125 
Q 735.90375 322.558125 737.90375 322.558125 
z
" style="fill: #ffffff; opacity: 0.8; stroke: #cccccc; stroke-linejoin: miter"/>
    </g>
    <g id="line2d_30">
     <path d="M 739.90375 298.300313 
L 749.90375 298.300313 
L 759.90375 298.300313 
" style="fill: none; stroke: #1f77b4; stroke-width: 1.5; stroke-linecap: square"/>
    </g>
    <g id="text_28">
     <!-- Train Accuracy -->
     <g transform="translate(767.90375 301.800313) scale(0.1 -0.1)">
      <use xlink:href="#DejaVuSans-54"/>
      <use xlink:href="#DejaVuSans-72" transform="translate(46.333984 0)"/>
      <use xlink:href="#DejaVuSans-61" transform="translate(87.447266 0)"/>
      <use xlink:href="#DejaVuSans-69" transform="translate(148.726562 0)"/>
      <use xlink:href="#DejaVuSans-6e" transform="translate(176.509766 0)"/>
      <use xlink:href="#DejaVuSans-20" transform="translate(239.888672 0)"/>
      <use xlink:href="#DejaVuSans-41" transform="translate(271.675781 0)"/>
      <use xlink:href="#DejaVuSans-63" transform="translate(338.333984 0)"/>
      <use xlink:href="#DejaVuSans-63" transform="translate(393.314453 0)"/>
      <use xlink:href="#DejaVuSans-75" transform="translate(448.294922 0)"/>
      <use xlink:href="#DejaVuSans-72" transform="translate(511.673828 0)"/>
      <use xlink:href="#DejaVuSans-61" transform="translate(552.787109 0)"/>
      <use xlink:href="#DejaVuSans-63" transform="translate(614.066406 0)"/>
      <use xlink:href="#DejaVuSans-79" transform="translate(669.046875 0)"/>
     </g>
    </g>
    <g id="line2d_31">
     <path d="M 739.90375 312.978438 
L 749.90375 312.978438 
L 759.90375 312.978438 
" style="fill: none; stroke: #ff7f0e; stroke-width: 1.5; stroke-linecap: square"/>
    </g>
    <g id="text_29">
     <!-- Val Accuracy -->
     <g transform="translate(767.90375 316.478438) scale(0.1 -0.1)">
      <use xlink:href="#DejaVuSans-56"/>
      <use xlink:href="#DejaVuSans-61" transform="translate(60.658203 0)"/>
      <use xlink:href="#DejaVuSans-6c" transform="translate(121.9375 0)"/>
      <use xlink:href="#DejaVuSans-20" transform="translate(149.720703 0)"/>
      <use xlink:href="#DejaVuSans-41" transform="translate(181.507812 0)"/>
      <use xlink:href="#DejaVuSans-63" transform="translate(248.166016 0)"/>
      <use xlink:href="#DejaVuSans-63" transform="translate(303.146484 0)"/>
      <use xlink:href="#DejaVuSans-75" transform="translate(358.126953 0)"/>
      <use xlink:href="#DejaVuSans-72" transform="translate(421.505859 0)"/>
      <use xlink:href="#DejaVuSans-61" transform="translate(462.619141 0)"/>
      <use xlink:href="#DejaVuSans-63" transform="translate(523.898438 0)"/>
      <use xlink:href="#DejaVuSans-79" transform="translate(578.878906 0)"/>
     </g>
    </g>
   </g>
  </g>
 </g>
 <defs>
  <clipPath id="pde3cee850a">
   <rect x="36.465625" y="22.318125" width="386.615" height="305.24"/>
  </clipPath>
  <clipPath id="p54b7670998">
   <rect x="463.110625" y="22.318125" width="386.615" height="305.24"/>
  </clipPath>
 </defs>
</svg>
